<svg xmlns="http://www.w3.org/2000/svg" width="1542" height="900" viewBox="0 0 1542 900">
<rect width="100%" height="100%" fill="white"/>
<rect x="30.00" y="30.00" width="1482.00" height="840.00" fill="none" stroke="#777" stroke-width="2.0" />
<polygon points="1512.00,870.00 1512.00,30.00 720.00,30.00 651.00,30.00 651.00,47.62 651.00,65.24 651.00,82.86 651.00,100.48 651.00,118.10 651.00,135.71 651.00,153.33 651.00,170.95 651.00,188.57 651.00,206.19 651.00,223.81 651.00,241.43 651.00,259.05 651.00,276.67 651.00,294.29 651.00,311.90 651.00,329.52 651.00,347.14 651.00,364.76 651.00,382.38 651.00,400.04 650.97,422.10 650.76,445.13 650.18,468.92 649.03,493.21 647.11,517.78 644.18,542.44 639.98,567.01 634.20,591.32 626.46,615.19 616.31,638.41 603.22,660.62 586.66,681.24 566.33,699.37 542.34,713.99 515.30,724.27 485.93,729.86 454.69,730.83 421.67,727.40 386.65,719.73 349.30,707.83 311.99,692.72 299.40,688.72 285.97,685.85 271.89,684.19 257.33,683.77 242.44,684.64 227.41,686.80 212.39,690.26 197.55,694.99 183.07,701.00 169.08,708.24 155.73,716.70 143.14,726.34 131.42,737.14 120.68,749.10 111.00,762.24 102.47,776.57 95.18,792.17 89.25,809.12 84.79,827.50 81.98,847.41 80.95,871.33 1512.00,870.00" fill="rgba(70,120,255,0.18)" stroke="#4678ff" stroke-width="1"/>
<polygon points="80.95,871.33 81.98,847.41 84.79,827.50 89.25,809.12 95.18,792.17 102.47,776.57 111.00,762.24 120.68,749.10 131.42,737.14 143.14,726.34 155.73,716.70 169.08,708.24 183.07,701.00 197.55,694.99 212.39,690.26 227.41,686.80 242.44,684.64 257.33,683.77 271.89,684.19 285.97,685.85 299.40,688.72 311.99,692.72 349.30,707.83 386.65,719.73 421.67,727.40 454.69,730.83 485.93,729.86 515.30,724.27 542.34,713.99 566.33,699.37 586.66,681.24 603.22,660.62 616.31,638.41 626.46,615.19 634.20,591.32 639.98,567.01 644.18,542.44 647.11,517.78 649.03,493.21 650.18,468.92 650.76,445.13 650.97,422.10 651.00,400.04 651.00,382.38 651.00,364.76 651.00,347.14 651.00,329.52 651.00,311.90 651.00,294.29 651.00,276.67 651.00,259.05 651.00,241.43 651.00,223.81 651.00,206.19 651.00,188.57 651.00,170.95 651.00,153.33 651.00,135.71 651.00,118.10 651.00,100.48 651.00,82.86 651.00,65.24 651.00,47.62 651.00,30.00 600.00,30.00 600.00,47.62 600.00,65.24 600.00,82.86 600.00,100.48 600.00,118.10 600.00,135.71 600.00,153.33 600.00,170.95 600.00,188.57 600.00,206.19 600.00,223.81 600.00,241.43 600.00,259.05 600.00,276.67 600.00,294.29 600.00,311.90 600.00,329.52 600.00,347.14 600.00,364.76 600.00,382.38 600.00,400.00 599.97,421.83 599.77,444.28 599.21,467.10 598.13,490.02 596.36,512.80 593.70,535.16 590.00,556.85 585.07,577.61 578.75,597.19 570.85,615.31 561.20,631.73 549.62,646.18 535.95,658.41 520.00,668.15 501.60,675.15 480.58,679.14 456.76,679.87 429.97,677.08 400.03,670.52 366.76,659.91 330.00,645.00 312.47,639.42 294.29,635.53 275.60,633.32 256.56,632.78 237.32,633.90 218.05,636.67 198.89,641.07 180.00,647.11 161.55,654.76 143.67,664.02 126.53,674.88 110.29,687.32 95.10,701.34 81.11,716.93 68.48,734.07 57.37,752.75 47.93,772.97 40.32,794.72 34.69,817.98 31.20,842.74 30.00,869.00" fill="rgba(0,0,0,0.65)" stroke="black" stroke-width="2"/>
<polyline points="80.95,871.33 81.98,847.41 84.79,827.50 89.25,809.12 95.18,792.17 102.47,776.57 111.00,762.24 120.68,749.10 131.42,737.14 143.14,726.34 155.73,716.70 169.08,708.24 183.07,701.00 197.55,694.99 212.39,690.26 227.41,686.80 242.44,684.64 257.33,683.77 271.89,684.19 285.97,685.85 299.40,688.72 311.99,692.72 349.30,707.83 386.65,719.73 421.67,727.40 454.69,730.83 485.93,729.86 515.30,724.27 542.34,713.99 566.33,699.37 586.66,681.24 603.22,660.62 616.31,638.41 626.46,615.19 634.20,591.32 639.98,567.01 644.18,542.44 647.11,517.78 649.03,493.21 650.18,468.92 650.76,445.13 650.97,422.10 651.00,400.04 651.00,382.38 651.00,364.76 651.00,347.14 651.00,329.52 651.00,311.90 651.00,294.29 651.00,276.67 651.00,259.05 651.00,241.43 651.00,223.81 651.00,206.19 651.00,188.57 651.00,170.95 651.00,153.33 651.00,135.71 651.00,118.10 651.00,100.48 651.00,82.86 651.00,65.24 651.00,47.62 651.00,30.00" fill="none" stroke="#164cff" stroke-width="2"/>
<polyline points="30.00,869.00 31.20,842.74 34.69,817.98 40.32,794.72 47.93,772.97 57.37,752.75 68.48,734.07 81.11,716.93 95.10,701.34 110.29,687.32 126.53,674.88 143.67,664.02 161.55,654.76 180.00,647.11 198.89,641.07 218.05,636.67 237.32,633.90 256.56,632.78 275.60,633.32 294.29,635.53 312.47,639.42 330.00,645.00 366.76,659.91 400.03,670.52 429.97,677.08 456.76,679.87 480.58,679.14 501.60,675.15 520.00,668.15 535.95,658.41 549.62,646.18 561.20,631.73 570.85,615.31 578.75,597.19 585.07,577.61 590.00,556.85 593.70,535.16 596.36,512.80 598.13,490.02 599.21,467.10 599.77,444.28 599.97,421.83 600.00,400.00 600.00,382.38 600.00,364.76 600.00,347.14 600.00,329.52 600.00,311.90 600.00,294.29 600.00,276.67 600.00,259.05 600.00,241.43 600.00,223.81 600.00,206.19 600.00,188.57 600.00,170.95 600.00,153.33 600.00,135.71 600.00,118.10 600.00,100.48 600.00,82.86 600.00,65.24 600.00,47.62 600.00,30.00" fill="none" stroke="#111" stroke-width="2"/>
<polyline points="30.00,869.00 31.20,842.74 34.69,817.98 40.32,794.72 47.93,772.97 57.37,752.75 68.48,734.07 81.11,716.93 95.10,701.34 110.29,687.32 126.53,674.88 143.67,664.02 161.55,654.76 180.00,647.11 198.89,641.07 218.05,636.67 237.32,633.90 256.56,632.78 275.60,633.32 294.29,635.53 312.47,639.42 330.00,645.00 366.76,659.91 400.03,670.52 429.97,677.08 456.76,679.87 480.58,679.14 501.60,675.15 520.00,668.15 535.95,658.41 549.62,646.18 561.20,631.73 570.85,615.31 578.75,597.19 585.07,577.61 590.00,556.85 593.70,535.16 596.36,512.80 598.13,490.02 599.21,467.10 599.77,444.28 599.97,421.83 600.00,400.00 600.00,382.38 600.00,364.76 600.00,347.14 600.00,329.52 600.00,311.90 600.00,294.29 600.00,276.67 600.00,259.05 600.00,241.43 600.00,223.81 600.00,206.19 600.00,188.57 600.00,170.95 600.00,153.33 600.00,135.71 600.00,118.10 600.00,100.48 600.00,82.86 600.00,65.24 600.00,47.62 600.00,30.00" fill="none" stroke="#555" stroke-width="1.5" stroke-dasharray="4 3"/>
<rect x="81.00" y="69.00" width="643.50" height="762.00" fill="none" stroke="#1f77b4" stroke-width="2.0" stroke-dasharray="6 3"/>
<rect x="81.00" y="651.00" width="390.00" height="180.00" fill="rgba(0,180,180,0.06)" stroke="#0aa" stroke-width="2.0" stroke-dasharray="4 3"/>
<circle cx="291.00" cy="732.00" r="42.00" fill="rgba(0,180,180,0.12)" stroke="#0aa" stroke-width="2.0"/>
<text x="315.00" y="732.00" font-size="12" fill="#111">Approx Pi SoC/hotspot</text>
<line x1="210.00" y1="830.00" x2="210.00" y2="740.00" stroke="#333" stroke-width="12" stroke-linecap="round"/>
<line x1="270.00" y1="830.00" x2="270.00" y2="740.00" stroke="#333" stroke-width="12" stroke-linecap="round"/>
<line x1="330.00" y1="830.00" x2="330.00" y2="740.00" stroke="#333" stroke-width="12" stroke-linecap="round"/>
<rect x="126.00" y="870.00" width="84.00" height="24.00" fill="rgba(0,180,180,0.18)" stroke="#0aa" stroke-width="1.0" />
<text x="126.00" y="852.00" font-size="11" fill="#111">Pi mini-HDMI</text>
<rect x="297.00" y="870.00" width="84.00" height="24.00" fill="rgba(0,180,180,0.18)" stroke="#0aa" stroke-width="1.0" />
<text x="297.00" y="852.00" font-size="11" fill="#111">Pi USB data</text>
<rect x="335.28" y="74.46" width="251.46" height="259.08" fill="rgba(255,0,0,0.05)" stroke="red" stroke-width="2.0" />
<rect x="362.01" y="105.00" width="198.00" height="198.00" fill="none" stroke="red" stroke-width="2.0" />
<circle cx="174.30" cy="322.50" r="75.00" fill="none" stroke="#777" stroke-width="1.5"/>
<circle cx="174.30" cy="322.50" r="63.00" fill="none" stroke="#111" stroke-width="2.0"/>
<text x="204.30" y="334.50" font-size="14" fill="#111">SW1</text>
<circle cx="356.10" cy="435.30" r="60.00" fill="none" stroke="#777" stroke-width="1.5"/>
<circle cx="356.10" cy="435.30" r="48.00" fill="none" stroke="#111" stroke-width="2.0"/>
<text x="386.10" y="447.30" font-size="14" fill="#111">SW2</text>
<circle cx="254.10" cy="573.90" r="60.00" fill="none" stroke="#777" stroke-width="1.5"/>
<circle cx="254.10" cy="573.90" r="48.00" fill="none" stroke="#111" stroke-width="2.0"/>
<text x="284.10" y="585.90" font-size="14" fill="#111">SW3</text>
<circle cx="458.10" cy="573.90" r="60.00" fill="none" stroke="#777" stroke-width="1.5"/>
<circle cx="458.10" cy="573.90" r="48.00" fill="none" stroke="#111" stroke-width="2.0"/>
<text x="488.10" y="585.90" font-size="14" fill="#111">AUX3</text>
<rect x="744.90" y="701.40" width="67.20" height="67.20" fill="none" stroke="orange" stroke-width="0.8" />
<rect x="834.90" y="701.40" width="67.20" height="67.20" fill="none" stroke="orange" stroke-width="0.8" />
<rect x="924.90" y="701.40" width="67.20" height="67.20" fill="none" stroke="orange" stroke-width="0.8" />
<rect x="1014.90" y="701.40" width="67.20" height="67.20" fill="none" stroke="orange" stroke-width="0.8" />
<rect x="1104.90" y="701.40" width="67.20" height="67.20" fill="none" stroke="orange" stroke-width="0.8" />
<rect x="1194.90" y="701.40" width="67.20" height="67.20" fill="none" stroke="orange" stroke-width="0.8" />
<rect x="1284.90" y="701.40" width="67.20" height="67.20" fill="none" stroke="orange" stroke-width="0.8" />
<rect x="1374.90" y="701.40" width="67.20" height="67.20" fill="none" stroke="orange" stroke-width="0.8" />
<rect x="744.90" y="611.40" width="67.20" height="67.20" fill="none" stroke="orange" stroke-width="0.8" />
<rect x="834.90" y="611.40" width="67.20" height="67.20" fill="none" stroke="orange" stroke-width="0.8" />
<rect x="924.90" y="611.40" width="67.20" height="67.20" fill="none" stroke="orange" stroke-width="0.8" />
<rect x="1014.90" y="611.40" width="67.20" height="67.20" fill="none" stroke="orange" stroke-width="0.8" />
<rect x="1104.90" y="611.40" width="67.20" height="67.20" fill="none" stroke="orange" stroke-width="0.8" />
<rect x="1194.90" y="611.40" width="67.20" height="67.20" fill="none" stroke="orange" stroke-width="0.8" />
<rect x="1284.90" y="611.40" width="67.20" height="67.20" fill="none" stroke="orange" stroke-width="0.8" />
<rect x="1374.90" y="611.40" width="67.20" height="67.20" fill="none" stroke="orange" stroke-width="0.8" />
<rect x="744.90" y="521.40" width="67.20" height="67.20" fill="none" stroke="orange" stroke-width="0.8" />
<rect x="834.90" y="521.40" width="67.20" height="67.20" fill="none" stroke="orange" stroke-width="0.8" />
<rect x="924.90" y="521.40" width="67.20" height="67.20" fill="none" stroke="orange" stroke-width="0.8" />
<rect x="1014.90" y="521.40" width="67.20" height="67.20" fill="none" stroke="orange" stroke-width="0.8" />
<rect x="1104.90" y="521.40" width="67.20" height="67.20" fill="none" stroke="orange" stroke-width="0.8" />
<rect x="1194.90" y="521.40" width="67.20" height="67.20" fill="none" stroke="orange" stroke-width="0.8" />
<rect x="1284.90" y="521.40" width="67.20" height="67.20" fill="none" stroke="orange" stroke-width="0.8" />
<rect x="1374.90" y="521.40" width="67.20" height="67.20" fill="none" stroke="orange" stroke-width="0.8" />
<rect x="744.90" y="431.40" width="67.20" height="67.20" fill="none" stroke="orange" stroke-width="0.8" />
<rect x="834.90" y="431.40" width="67.20" height="67.20" fill="none" stroke="orange" stroke-width="0.8" />
<rect x="924.90" y="431.40" width="67.20" height="67.20" fill="none" stroke="orange" stroke-width="0.8" />
<rect x="1014.90" y="431.40" width="67.20" height="67.20" fill="none" stroke="orange" stroke-width="0.8" />
<rect x="1104.90" y="431.40" width="67.20" height="67.20" fill="none" stroke="orange" stroke-width="0.8" />
<rect x="1194.90" y="431.40" width="67.20" height="67.20" fill="none" stroke="orange" stroke-width="0.8" />
<rect x="1284.90" y="431.40" width="67.20" height="67.20" fill="none" stroke="orange" stroke-width="0.8" />
<rect x="1374.90" y="431.40" width="67.20" height="67.20" fill="none" stroke="orange" stroke-width="0.8" />
<rect x="744.90" y="341.40" width="67.20" height="67.20" fill="none" stroke="orange" stroke-width="0.8" />
<rect x="834.90" y="341.40" width="67.20" height="67.20" fill="none" stroke="orange" stroke-width="0.8" />
<rect x="924.90" y="341.40" width="67.20" height="67.20" fill="none" stroke="orange" stroke-width="0.8" />
<rect x="1014.90" y="341.40" width="67.20" height="67.20" fill="none" stroke="orange" stroke-width="0.8" />
<rect x="1104.90" y="341.40" width="67.20" height="67.20" fill="none" stroke="orange" stroke-width="0.8" />
<rect x="1194.90" y="341.40" width="67.20" height="67.20" fill="none" stroke="orange" stroke-width="0.8" />
<rect x="1284.90" y="341.40" width="67.20" height="67.20" fill="none" stroke="orange" stroke-width="0.8" />
<rect x="1374.90" y="341.40" width="67.20" height="67.20" fill="none" stroke="orange" stroke-width="0.8" />
<rect x="744.90" y="251.40" width="67.20" height="67.20" fill="none" stroke="orange" stroke-width="0.8" />
<rect x="834.90" y="251.40" width="67.20" height="67.20" fill="none" stroke="orange" stroke-width="0.8" />
<rect x="924.90" y="251.40" width="67.20" height="67.20" fill="none" stroke="orange" stroke-width="0.8" />
<rect x="1014.90" y="251.40" width="67.20" height="67.20" fill="none" stroke="orange" stroke-width="0.8" />
<rect x="1104.90" y="251.40" width="67.20" height="67.20" fill="none" stroke="orange" stroke-width="0.8" />
<rect x="1194.90" y="251.40" width="67.20" height="67.20" fill="none" stroke="orange" stroke-width="0.8" />
<rect x="1284.90" y="251.40" width="67.20" height="67.20" fill="none" stroke="orange" stroke-width="0.8" />
<rect x="1374.90" y="251.40" width="67.20" height="67.20" fill="none" stroke="orange" stroke-width="0.8" />
<rect x="744.90" y="161.40" width="67.20" height="67.20" fill="none" stroke="orange" stroke-width="0.8" />
<rect x="834.90" y="161.40" width="67.20" height="67.20" fill="none" stroke="orange" stroke-width="0.8" />
<rect x="924.90" y="161.40" width="67.20" height="67.20" fill="none" stroke="orange" stroke-width="0.8" />
<rect x="1014.90" y="161.40" width="67.20" height="67.20" fill="none" stroke="orange" stroke-width="0.8" />
<rect x="1104.90" y="161.40" width="67.20" height="67.20" fill="none" stroke="orange" stroke-width="0.8" />
<rect x="1194.90" y="161.40" width="67.20" height="67.20" fill="none" stroke="orange" stroke-width="0.8" />
<rect x="1284.90" y="161.40" width="67.20" height="67.20" fill="none" stroke="orange" stroke-width="0.8" />
<rect x="1374.90" y="161.40" width="67.20" height="67.20" fill="none" stroke="orange" stroke-width="0.8" />
<rect x="744.90" y="71.40" width="67.20" height="67.20" fill="none" stroke="orange" stroke-width="0.8" />
<rect x="834.90" y="71.40" width="67.20" height="67.20" fill="none" stroke="orange" stroke-width="0.8" />
<rect x="924.90" y="71.40" width="67.20" height="67.20" fill="none" stroke="orange" stroke-width="0.8" />
<rect x="1014.90" y="71.40" width="67.20" height="67.20" fill="none" stroke="orange" stroke-width="0.8" />
<rect x="1104.90" y="71.40" width="67.20" height="67.20" fill="none" stroke="orange" stroke-width="0.8" />
<rect x="1194.90" y="71.40" width="67.20" height="67.20" fill="none" stroke="orange" stroke-width="0.8" />
<rect x="1284.90" y="71.40" width="67.20" height="67.20" fill="none" stroke="orange" stroke-width="0.8" />
<rect x="1374.90" y="71.40" width="67.20" height="67.20" fill="none" stroke="orange" stroke-width="0.8" />
<text x="40" y="22" font-size="18" fill="#111">Current generated top view: black = shoulder slope, blue = high flat tier</text>
<text x="40" y="44" font-size="13" fill="#555">Blue dashed = main PCB keepout; red = OLED; orange = NeoTrellis; AUX3 label marks SW4 crater.</text>
<text x="40" y="62" font-size="13" fill="#555">Cyan = approximate Pi Zero 2 W board and SoC/hotspot target. Gray encoder rings include sloped crater radius.</text>
</svg>