<svg xmlns="http://www.w3.org/2000/svg" width="1542" height="900" viewBox="0 0 1542 900">
<rect width="100%" height="100%" fill="white"/>
<line x1="30.00" y1="870.00" x2="30.00" y2="30.00" stroke="#eee" stroke-width="1"/>
<line x1="90.00" y1="870.00" x2="90.00" y2="30.00" stroke="#eee" stroke-width="1"/>
<line x1="150.00" y1="870.00" x2="150.00" y2="30.00" stroke="#eee" stroke-width="1"/>
<line x1="210.00" y1="870.00" x2="210.00" y2="30.00" stroke="#eee" stroke-width="1"/>
<line x1="270.00" y1="870.00" x2="270.00" y2="30.00" stroke="#eee" stroke-width="1"/>
<line x1="330.00" y1="870.00" x2="330.00" y2="30.00" stroke="#eee" stroke-width="1"/>
<line x1="390.00" y1="870.00" x2="390.00" y2="30.00" stroke="#eee" stroke-width="1"/>
<line x1="450.00" y1="870.00" x2="450.00" y2="30.00" stroke="#eee" stroke-width="1"/>
<line x1="510.00" y1="870.00" x2="510.00" y2="30.00" stroke="#eee" stroke-width="1"/>
<line x1="570.00" y1="870.00" x2="570.00" y2="30.00" stroke="#eee" stroke-width="1"/>
<line x1="630.00" y1="870.00" x2="630.00" y2="30.00" stroke="#eee" stroke-width="1"/>
<line x1="690.00" y1="870.00" x2="690.00" y2="30.00" stroke="#eee" stroke-width="1"/>
<line x1="750.00" y1="870.00" x2="750.00" y2="30.00" stroke="#eee" stroke-width="1"/>
<line x1="810.00" y1="870.00" x2="810.00" y2="30.00" stroke="#eee" stroke-width="1"/>
<line x1="870.00" y1="870.00" x2="870.00" y2="30.00" stroke="#eee" stroke-width="1"/>
<line x1="930.00" y1="870.00" x2="930.00" y2="30.00" stroke="#eee" stroke-width="1"/>
<line x1="990.00" y1="870.00" x2="990.00" y2="30.00" stroke="#eee" stroke-width="1"/>
<line x1="1050.00" y1="870.00" x2="1050.00" y2="30.00" stroke="#eee" stroke-width="1"/>
<line x1="1110.00" y1="870.00" x2="1110.00" y2="30.00" stroke="#eee" stroke-width="1"/>
<line x1="1170.00" y1="870.00" x2="1170.00" y2="30.00" stroke="#eee" stroke-width="1"/>
<line x1="1230.00" y1="870.00" x2="1230.00" y2="30.00" stroke="#eee" stroke-width="1"/>
<line x1="1290.00" y1="870.00" x2="1290.00" y2="30.00" stroke="#eee" stroke-width="1"/>
<line x1="1350.00" y1="870.00" x2="1350.00" y2="30.00" stroke="#eee" stroke-width="1"/>
<line x1="1410.00" y1="870.00" x2="1410.00" y2="30.00" stroke="#eee" stroke-width="1"/>
<line x1="1470.00" y1="870.00" x2="1470.00" y2="30.00" stroke="#eee" stroke-width="1"/>
<line x1="30.00" y1="870.00" x2="1512.00" y2="870.00" stroke="#eee" stroke-width="1"/>
<line x1="30.00" y1="810.00" x2="1512.00" y2="810.00" stroke="#eee" stroke-width="1"/>
<line x1="30.00" y1="750.00" x2="1512.00" y2="750.00" stroke="#eee" stroke-width="1"/>
<line x1="30.00" y1="690.00" x2="1512.00" y2="690.00" stroke="#eee" stroke-width="1"/>
<line x1="30.00" y1="630.00" x2="1512.00" y2="630.00" stroke="#eee" stroke-width="1"/>
<line x1="30.00" y1="570.00" x2="1512.00" y2="570.00" stroke="#eee" stroke-width="1"/>
<line x1="30.00" y1="510.00" x2="1512.00" y2="510.00" stroke="#eee" stroke-width="1"/>
<line x1="30.00" y1="450.00" x2="1512.00" y2="450.00" stroke="#eee" stroke-width="1"/>
<line x1="30.00" y1="390.00" x2="1512.00" y2="390.00" stroke="#eee" stroke-width="1"/>
<line x1="30.00" y1="330.00" x2="1512.00" y2="330.00" stroke="#eee" stroke-width="1"/>
<line x1="30.00" y1="270.00" x2="1512.00" y2="270.00" stroke="#eee" stroke-width="1"/>
<line x1="30.00" y1="210.00" x2="1512.00" y2="210.00" stroke="#eee" stroke-width="1"/>
<line x1="30.00" y1="150.00" x2="1512.00" y2="150.00" stroke="#eee" stroke-width="1"/>
<line x1="30.00" y1="90.00" x2="1512.00" y2="90.00" stroke="#eee" stroke-width="1"/>
<line x1="30.00" y1="30.00" x2="1512.00" y2="30.00" stroke="#eee" stroke-width="1"/>
<rect x="30.00" y="30.00" width="1482.00" height="840.00" fill="none" stroke="#777" stroke-width="2.0" />
<rect x="81.00" y="69.00" width="643.50" height="762.00" fill="none" stroke="#1f77b4" stroke-width="2.0" stroke-dasharray="6 3"/>
<rect x="335.28" y="74.46" width="251.46" height="259.08" fill="rgba(255,0,0,0.04)" stroke="#e22" stroke-width="2.0" />
<rect x="362.01" y="105.00" width="198.00" height="198.00" fill="none" stroke="#e22" stroke-width="2.0" />
<text x="335.28" y="50.46" font-size="12" fill="#222">OLED</text>
<circle cx="174.30" cy="322.50" r="75.00" fill="none" stroke="#999" stroke-width="1.5"/>
<circle cx="174.30" cy="322.50" r="63.00" fill="none" stroke="#111" stroke-width="2.0"/>
<text x="204.30" y="334.50" font-size="12" fill="#222">SW1</text>
<circle cx="356.10" cy="435.30" r="60.00" fill="none" stroke="#999" stroke-width="1.5"/>
<circle cx="356.10" cy="435.30" r="48.00" fill="none" stroke="#111" stroke-width="2.0"/>
<text x="386.10" y="447.30" font-size="12" fill="#222">SW2</text>
<circle cx="254.10" cy="573.90" r="60.00" fill="none" stroke="#999" stroke-width="1.5"/>
<circle cx="254.10" cy="573.90" r="48.00" fill="none" stroke="#111" stroke-width="2.0"/>
<text x="284.10" y="585.90" font-size="12" fill="#222">SW3</text>
<circle cx="458.10" cy="573.90" r="60.00" fill="none" stroke="#999" stroke-width="1.5"/>
<circle cx="458.10" cy="573.90" r="48.00" fill="none" stroke="#111" stroke-width="2.0"/>
<text x="488.10" y="585.90" font-size="12" fill="#222">AUX3 / SW4</text>
<rect x="597.96" y="477.90" width="106.68" height="342.90" fill="rgba(160,0,160,0.04)" stroke="#950095" stroke-width="2.0" stroke-dasharray="5 3"/>
<rect x="590.10" y="347.55" width="122.40" height="122.40" fill="none" stroke="#950095" stroke-width="1.4" />
<rect x="590.10" y="461.85" width="122.40" height="122.40" fill="none" stroke="#950095" stroke-width="1.4" />
<rect x="590.10" y="576.15" width="122.40" height="122.40" fill="none" stroke="#950095" stroke-width="1.4" />
<rect x="590.10" y="690.45" width="122.40" height="122.40" fill="none" stroke="#950095" stroke-width="1.4" />
<text x="597.96" y="453.90" font-size="12" fill="#222">NeoKey</text>
<rect x="744.90" y="701.40" width="67.20" height="67.20" fill="none" stroke="#e6a000" stroke-width="0.8" />
<rect x="834.90" y="701.40" width="67.20" height="67.20" fill="none" stroke="#e6a000" stroke-width="0.8" />
<rect x="924.90" y="701.40" width="67.20" height="67.20" fill="none" stroke="#e6a000" stroke-width="0.8" />
<rect x="1014.90" y="701.40" width="67.20" height="67.20" fill="none" stroke="#e6a000" stroke-width="0.8" />
<rect x="1104.90" y="701.40" width="67.20" height="67.20" fill="none" stroke="#e6a000" stroke-width="0.8" />
<rect x="1194.90" y="701.40" width="67.20" height="67.20" fill="none" stroke="#e6a000" stroke-width="0.8" />
<rect x="1284.90" y="701.40" width="67.20" height="67.20" fill="none" stroke="#e6a000" stroke-width="0.8" />
<rect x="1374.90" y="701.40" width="67.20" height="67.20" fill="none" stroke="#e6a000" stroke-width="0.8" />
<rect x="744.90" y="611.40" width="67.20" height="67.20" fill="none" stroke="#e6a000" stroke-width="0.8" />
<rect x="834.90" y="611.40" width="67.20" height="67.20" fill="none" stroke="#e6a000" stroke-width="0.8" />
<rect x="924.90" y="611.40" width="67.20" height="67.20" fill="none" stroke="#e6a000" stroke-width="0.8" />
<rect x="1014.90" y="611.40" width="67.20" height="67.20" fill="none" stroke="#e6a000" stroke-width="0.8" />
<rect x="1104.90" y="611.40" width="67.20" height="67.20" fill="none" stroke="#e6a000" stroke-width="0.8" />
<rect x="1194.90" y="611.40" width="67.20" height="67.20" fill="none" stroke="#e6a000" stroke-width="0.8" />
<rect x="1284.90" y="611.40" width="67.20" height="67.20" fill="none" stroke="#e6a000" stroke-width="0.8" />
<rect x="1374.90" y="611.40" width="67.20" height="67.20" fill="none" stroke="#e6a000" stroke-width="0.8" />
<rect x="744.90" y="521.40" width="67.20" height="67.20" fill="none" stroke="#e6a000" stroke-width="0.8" />
<rect x="834.90" y="521.40" width="67.20" height="67.20" fill="none" stroke="#e6a000" stroke-width="0.8" />
<rect x="924.90" y="521.40" width="67.20" height="67.20" fill="none" stroke="#e6a000" stroke-width="0.8" />
<rect x="1014.90" y="521.40" width="67.20" height="67.20" fill="none" stroke="#e6a000" stroke-width="0.8" />
<rect x="1104.90" y="521.40" width="67.20" height="67.20" fill="none" stroke="#e6a000" stroke-width="0.8" />
<rect x="1194.90" y="521.40" width="67.20" height="67.20" fill="none" stroke="#e6a000" stroke-width="0.8" />
<rect x="1284.90" y="521.40" width="67.20" height="67.20" fill="none" stroke="#e6a000" stroke-width="0.8" />
<rect x="1374.90" y="521.40" width="67.20" height="67.20" fill="none" stroke="#e6a000" stroke-width="0.8" />
<rect x="744.90" y="431.40" width="67.20" height="67.20" fill="none" stroke="#e6a000" stroke-width="0.8" />
<rect x="834.90" y="431.40" width="67.20" height="67.20" fill="none" stroke="#e6a000" stroke-width="0.8" />
<rect x="924.90" y="431.40" width="67.20" height="67.20" fill="none" stroke="#e6a000" stroke-width="0.8" />
<rect x="1014.90" y="431.40" width="67.20" height="67.20" fill="none" stroke="#e6a000" stroke-width="0.8" />
<rect x="1104.90" y="431.40" width="67.20" height="67.20" fill="none" stroke="#e6a000" stroke-width="0.8" />
<rect x="1194.90" y="431.40" width="67.20" height="67.20" fill="none" stroke="#e6a000" stroke-width="0.8" />
<rect x="1284.90" y="431.40" width="67.20" height="67.20" fill="none" stroke="#e6a000" stroke-width="0.8" />
<rect x="1374.90" y="431.40" width="67.20" height="67.20" fill="none" stroke="#e6a000" stroke-width="0.8" />
<rect x="744.90" y="341.40" width="67.20" height="67.20" fill="none" stroke="#e6a000" stroke-width="0.8" />
<rect x="834.90" y="341.40" width="67.20" height="67.20" fill="none" stroke="#e6a000" stroke-width="0.8" />
<rect x="924.90" y="341.40" width="67.20" height="67.20" fill="none" stroke="#e6a000" stroke-width="0.8" />
<rect x="1014.90" y="341.40" width="67.20" height="67.20" fill="none" stroke="#e6a000" stroke-width="0.8" />
<rect x="1104.90" y="341.40" width="67.20" height="67.20" fill="none" stroke="#e6a000" stroke-width="0.8" />
<rect x="1194.90" y="341.40" width="67.20" height="67.20" fill="none" stroke="#e6a000" stroke-width="0.8" />
<rect x="1284.90" y="341.40" width="67.20" height="67.20" fill="none" stroke="#e6a000" stroke-width="0.8" />
<rect x="1374.90" y="341.40" width="67.20" height="67.20" fill="none" stroke="#e6a000" stroke-width="0.8" />
<rect x="744.90" y="251.40" width="67.20" height="67.20" fill="none" stroke="#e6a000" stroke-width="0.8" />
<rect x="834.90" y="251.40" width="67.20" height="67.20" fill="none" stroke="#e6a000" stroke-width="0.8" />
<rect x="924.90" y="251.40" width="67.20" height="67.20" fill="none" stroke="#e6a000" stroke-width="0.8" />
<rect x="1014.90" y="251.40" width="67.20" height="67.20" fill="none" stroke="#e6a000" stroke-width="0.8" />
<rect x="1104.90" y="251.40" width="67.20" height="67.20" fill="none" stroke="#e6a000" stroke-width="0.8" />
<rect x="1194.90" y="251.40" width="67.20" height="67.20" fill="none" stroke="#e6a000" stroke-width="0.8" />
<rect x="1284.90" y="251.40" width="67.20" height="67.20" fill="none" stroke="#e6a000" stroke-width="0.8" />
<rect x="1374.90" y="251.40" width="67.20" height="67.20" fill="none" stroke="#e6a000" stroke-width="0.8" />
<rect x="744.90" y="161.40" width="67.20" height="67.20" fill="none" stroke="#e6a000" stroke-width="0.8" />
<rect x="834.90" y="161.40" width="67.20" height="67.20" fill="none" stroke="#e6a000" stroke-width="0.8" />
<rect x="924.90" y="161.40" width="67.20" height="67.20" fill="none" stroke="#e6a000" stroke-width="0.8" />
<rect x="1014.90" y="161.40" width="67.20" height="67.20" fill="none" stroke="#e6a000" stroke-width="0.8" />
<rect x="1104.90" y="161.40" width="67.20" height="67.20" fill="none" stroke="#e6a000" stroke-width="0.8" />
<rect x="1194.90" y="161.40" width="67.20" height="67.20" fill="none" stroke="#e6a000" stroke-width="0.8" />
<rect x="1284.90" y="161.40" width="67.20" height="67.20" fill="none" stroke="#e6a000" stroke-width="0.8" />
<rect x="1374.90" y="161.40" width="67.20" height="67.20" fill="none" stroke="#e6a000" stroke-width="0.8" />
<rect x="744.90" y="71.40" width="67.20" height="67.20" fill="none" stroke="#e6a000" stroke-width="0.8" />
<rect x="834.90" y="71.40" width="67.20" height="67.20" fill="none" stroke="#e6a000" stroke-width="0.8" />
<rect x="924.90" y="71.40" width="67.20" height="67.20" fill="none" stroke="#e6a000" stroke-width="0.8" />
<rect x="1014.90" y="71.40" width="67.20" height="67.20" fill="none" stroke="#e6a000" stroke-width="0.8" />
<rect x="1104.90" y="71.40" width="67.20" height="67.20" fill="none" stroke="#e6a000" stroke-width="0.8" />
<rect x="1194.90" y="71.40" width="67.20" height="67.20" fill="none" stroke="#e6a000" stroke-width="0.8" />
<rect x="1284.90" y="71.40" width="67.20" height="67.20" fill="none" stroke="#e6a000" stroke-width="0.8" />
<rect x="1374.90" y="71.40" width="67.20" height="67.20" fill="none" stroke="#e6a000" stroke-width="0.8" />
<rect x="738.00" y="90.00" width="720.00" height="726.00" fill="none" stroke="#e6a000" stroke-width="2.0" />
<text x="774.00" y="66.00" font-size="12" fill="#222">NeoTrellis</text>
<text x="48.00" y="900.00" font-size="14" fill="#222">Draw desired wave area using two splines plus two connecting lines. Coordinates are CAD mm; X right, Y up.</text>
</svg>