<svg xmlns="http://www.w3.org/2000/svg" width="1542" height="900" viewBox="0 0 1542 900">
<rect width="100%" height="100%" fill="white"/>
<rect x="30.00" y="30.00" width="1482.00" height="840.00" fill="none" stroke="#777" stroke-width="2.0" />
<polygon points="1512.00,870.00 1512.00,30.00 720.00,30.00 651.00,30.00 651.00,56.00 651.00,82.00 651.00,108.00 651.00,134.00 651.00,160.00 651.00,186.00 651.00,212.00 651.00,238.00 651.00,264.00 651.00,290.00 651.00,316.00 651.00,342.00 660.00,690.90 642.50,690.90 625.00,690.90 607.50,690.90 590.00,690.90 572.50,690.90 555.00,690.90 537.50,690.90 520.00,690.90 502.50,690.90 485.00,690.90 467.50,690.90 450.00,690.90 432.50,690.90 415.00,690.90 397.50,690.90 380.00,690.90 362.50,690.90 345.00,690.90 327.50,690.90 310.00,690.90 292.50,690.90 275.00,690.90 257.50,690.90 240.00,690.90 222.50,690.90 205.00,690.90 187.50,690.90 170.00,690.90 152.50,690.90 135.00,690.90 117.50,690.90 100.00,690.90 82.50,690.90 65.00,690.90 47.50,690.90 30.00,690.90 1512.00,870.00" fill="rgba(70,120,255,0.18)" stroke="#4678ff" stroke-width="1"/>
<polygon points="660.00,870.00 720.00,870.00 720.00,639.90 660.00,639.90" fill="rgba(70,120,255,0.10)" stroke="#4678ff" stroke-width="1"/>
<polygon points="660.00,870.00 660.00,639.90 658.68,639.90 658.68,639.90" fill="rgba(70,120,255,0.18)" stroke="#4678ff" stroke-width="1"/>
<polygon points="651.00,341.55 651.00,316.00 651.00,290.00 651.00,264.00 651.00,238.00 651.00,212.00 651.00,186.00 651.00,160.00 651.00,134.00 651.00,108.00 651.00,82.00 651.00,56.00 651.00,30.00 600.00,30.00 600.00,56.00 600.00,82.00 600.00,108.00 600.00,134.00 600.00,160.00 600.00,186.00 600.00,212.00 600.00,238.00 600.00,264.00 600.00,290.00 600.00,316.00 600.00,341.55" fill="rgba(0,0,0,0.65)" stroke="black" stroke-width="2"/>
<polygon points="658.68,639.90 658.68,639.90 30.00,639.90 30.00,639.90" fill="rgba(0,0,0,0.65)" stroke="black" stroke-width="2"/>
<polyline points="30.00,690.90 47.50,690.90 65.00,690.90 82.50,690.90 100.00,690.90 117.50,690.90 135.00,690.90 152.50,690.90 170.00,690.90 187.50,690.90 205.00,690.90 222.50,690.90 240.00,690.90 257.50,690.90 275.00,690.90 292.50,690.90 310.00,690.90 327.50,690.90 345.00,690.90 362.50,690.90 380.00,690.90 397.50,690.90 415.00,690.90 432.50,690.90 450.00,690.90 467.50,690.90 485.00,690.90 502.50,690.90 520.00,690.90 537.50,690.90 555.00,690.90 572.50,690.90 590.00,690.90 607.50,690.90 625.00,690.90 642.50,690.90 660.00,690.90 651.00,342.00 651.00,316.00 651.00,290.00 651.00,264.00 651.00,238.00 651.00,212.00 651.00,186.00 651.00,160.00 651.00,134.00 651.00,108.00 651.00,82.00 651.00,56.00 651.00,30.00" fill="none" stroke="#164cff" stroke-width="2"/>
<polyline points="30.00,639.90 47.50,639.90 65.00,639.90 82.50,639.90 100.00,639.90 117.50,639.90 135.00,639.90 152.50,639.90 170.00,639.90 187.50,639.90 205.00,639.90 222.50,639.90 240.00,639.90 257.50,639.90 275.00,639.90 292.50,639.90 310.00,639.90 327.50,639.90 345.00,639.90 362.50,639.90 380.00,639.90 397.50,639.90 415.00,639.90 432.50,639.90 450.00,639.90 467.50,639.90 485.00,639.90 502.50,639.90 520.00,639.90 537.50,639.90 555.00,639.90 572.50,639.90 590.00,639.90 607.50,639.90 625.00,639.90 642.50,639.90 660.00,639.90 600.00,342.00 600.00,316.00 600.00,290.00 600.00,264.00 600.00,238.00 600.00,212.00 600.00,186.00 600.00,160.00 600.00,134.00 600.00,108.00 600.00,82.00 600.00,56.00 600.00,30.00" fill="none" stroke="#111" stroke-width="2"/>
<rect x="81.00" y="69.00" width="643.50" height="762.00" fill="none" stroke="#1f77b4" stroke-width="2.0" stroke-dasharray="6 3"/>
<rect x="81.00" y="651.00" width="390.00" height="180.00" fill="rgba(0,180,180,0.06)" stroke="#0aa" stroke-width="2.0" stroke-dasharray="4 3"/>
<circle cx="291.00" cy="732.00" r="42.00" fill="rgba(0,180,180,0.12)" stroke="#0aa" stroke-width="2.0"/>
<text x="315.00" y="732.00" font-size="12" fill="#111">Approx Pi SoC/hotspot</text>
<line x1="177.00" y1="821.55" x2="177.00" y2="718.35" stroke="#333" stroke-width="12" stroke-linecap="round"/>
<line x1="237.00" y1="821.55" x2="237.00" y2="718.35" stroke="#333" stroke-width="12" stroke-linecap="round"/>
<line x1="297.00" y1="821.55" x2="297.00" y2="718.35" stroke="#333" stroke-width="12" stroke-linecap="round"/>
<line x1="357.00" y1="821.55" x2="357.00" y2="718.35" stroke="#333" stroke-width="12" stroke-linecap="round"/>
<line x1="417.00" y1="821.55" x2="417.00" y2="718.35" stroke="#333" stroke-width="12" stroke-linecap="round"/>
<rect x="132.00" y="870.00" width="72.00" height="24.00" fill="rgba(0,180,180,0.18)" stroke="#0aa" stroke-width="1.0" />
<text x="132.00" y="852.00" font-size="11" fill="#111">Pi mini-HDMI</text>
<rect x="303.00" y="870.00" width="72.00" height="24.00" fill="rgba(0,180,180,0.18)" stroke="#0aa" stroke-width="1.0" />
<text x="303.00" y="852.00" font-size="11" fill="#111">Pi USB data</text>
<rect x="335.28" y="74.46" width="251.46" height="259.08" fill="rgba(255,0,0,0.05)" stroke="red" stroke-width="2.0" />
<rect x="362.01" y="105.00" width="198.00" height="198.00" fill="none" stroke="red" stroke-width="2.0" />
<circle cx="174.30" cy="322.50" r="69.00" fill="none" stroke="#777" stroke-width="1.5"/>
<circle cx="174.30" cy="322.50" r="57.00" fill="none" stroke="#111" stroke-width="2.0"/>
<circle cx="174.30" cy="322.50" r="21.60" fill="none" stroke="#111" stroke-width="1.0"/>
<text x="204.30" y="334.50" font-size="14" fill="#111">SW1</text>
<circle cx="356.10" cy="435.30" r="60.00" fill="none" stroke="#777" stroke-width="1.5"/>
<circle cx="356.10" cy="435.30" r="48.00" fill="none" stroke="#111" stroke-width="2.0"/>
<circle cx="356.10" cy="435.30" r="21.60" fill="none" stroke="#111" stroke-width="1.0"/>
<text x="386.10" y="447.30" font-size="14" fill="#111">SW2</text>
<circle cx="254.10" cy="573.90" r="60.00" fill="none" stroke="#777" stroke-width="1.5"/>
<circle cx="254.10" cy="573.90" r="48.00" fill="none" stroke="#111" stroke-width="2.0"/>
<circle cx="254.10" cy="573.90" r="21.60" fill="none" stroke="#111" stroke-width="1.0"/>
<text x="284.10" y="585.90" font-size="14" fill="#111">SW3</text>
<circle cx="458.10" cy="573.90" r="60.00" fill="none" stroke="#777" stroke-width="1.5"/>
<circle cx="458.10" cy="573.90" r="48.00" fill="none" stroke="#111" stroke-width="2.0"/>
<circle cx="458.10" cy="573.90" r="21.60" fill="none" stroke="#111" stroke-width="1.0"/>
<text x="488.10" y="585.90" font-size="14" fill="#111">AUX3</text>
<rect x="744.90" y="731.40" width="67.20" height="67.20" fill="none" stroke="orange" stroke-width="0.8" />
<rect x="834.90" y="731.40" width="67.20" height="67.20" fill="none" stroke="orange" stroke-width="0.8" />
<rect x="924.90" y="731.40" width="67.20" height="67.20" fill="none" stroke="orange" stroke-width="0.8" />
<rect x="1014.90" y="731.40" width="67.20" height="67.20" fill="none" stroke="orange" stroke-width="0.8" />
<rect x="1104.90" y="731.40" width="67.20" height="67.20" fill="none" stroke="orange" stroke-width="0.8" />
<rect x="1194.90" y="731.40" width="67.20" height="67.20" fill="none" stroke="orange" stroke-width="0.8" />
<rect x="1284.90" y="731.40" width="67.20" height="67.20" fill="none" stroke="orange" stroke-width="0.8" />
<rect x="1374.90" y="731.40" width="67.20" height="67.20" fill="none" stroke="orange" stroke-width="0.8" />
<rect x="744.90" y="641.40" width="67.20" height="67.20" fill="none" stroke="orange" stroke-width="0.8" />
<rect x="834.90" y="641.40" width="67.20" height="67.20" fill="none" stroke="orange" stroke-width="0.8" />
<rect x="924.90" y="641.40" width="67.20" height="67.20" fill="none" stroke="orange" stroke-width="0.8" />
<rect x="1014.90" y="641.40" width="67.20" height="67.20" fill="none" stroke="orange" stroke-width="0.8" />
<rect x="1104.90" y="641.40" width="67.20" height="67.20" fill="none" stroke="orange" stroke-width="0.8" />
<rect x="1194.90" y="641.40" width="67.20" height="67.20" fill="none" stroke="orange" stroke-width="0.8" />
<rect x="1284.90" y="641.40" width="67.20" height="67.20" fill="none" stroke="orange" stroke-width="0.8" />
<rect x="1374.90" y="641.40" width="67.20" height="67.20" fill="none" stroke="orange" stroke-width="0.8" />
<rect x="744.90" y="551.40" width="67.20" height="67.20" fill="none" stroke="orange" stroke-width="0.8" />
<rect x="834.90" y="551.40" width="67.20" height="67.20" fill="none" stroke="orange" stroke-width="0.8" />
<rect x="924.90" y="551.40" width="67.20" height="67.20" fill="none" stroke="orange" stroke-width="0.8" />
<rect x="1014.90" y="551.40" width="67.20" height="67.20" fill="none" stroke="orange" stroke-width="0.8" />
<rect x="1104.90" y="551.40" width="67.20" height="67.20" fill="none" stroke="orange" stroke-width="0.8" />
<rect x="1194.90" y="551.40" width="67.20" height="67.20" fill="none" stroke="orange" stroke-width="0.8" />
<rect x="1284.90" y="551.40" width="67.20" height="67.20" fill="none" stroke="orange" stroke-width="0.8" />
<rect x="1374.90" y="551.40" width="67.20" height="67.20" fill="none" stroke="orange" stroke-width="0.8" />
<rect x="744.90" y="461.40" width="67.20" height="67.20" fill="none" stroke="orange" stroke-width="0.8" />
<rect x="834.90" y="461.40" width="67.20" height="67.20" fill="none" stroke="orange" stroke-width="0.8" />
<rect x="924.90" y="461.40" width="67.20" height="67.20" fill="none" stroke="orange" stroke-width="0.8" />
<rect x="1014.90" y="461.40" width="67.20" height="67.20" fill="none" stroke="orange" stroke-width="0.8" />
<rect x="1104.90" y="461.40" width="67.20" height="67.20" fill="none" stroke="orange" stroke-width="0.8" />
<rect x="1194.90" y="461.40" width="67.20" height="67.20" fill="none" stroke="orange" stroke-width="0.8" />
<rect x="1284.90" y="461.40" width="67.20" height="67.20" fill="none" stroke="orange" stroke-width="0.8" />
<rect x="1374.90" y="461.40" width="67.20" height="67.20" fill="none" stroke="orange" stroke-width="0.8" />
<rect x="744.90" y="371.40" width="67.20" height="67.20" fill="none" stroke="orange" stroke-width="0.8" />
<rect x="834.90" y="371.40" width="67.20" height="67.20" fill="none" stroke="orange" stroke-width="0.8" />
<rect x="924.90" y="371.40" width="67.20" height="67.20" fill="none" stroke="orange" stroke-width="0.8" />
<rect x="1014.90" y="371.40" width="67.20" height="67.20" fill="none" stroke="orange" stroke-width="0.8" />
<rect x="1104.90" y="371.40" width="67.20" height="67.20" fill="none" stroke="orange" stroke-width="0.8" />
<rect x="1194.90" y="371.40" width="67.20" height="67.20" fill="none" stroke="orange" stroke-width="0.8" />
<rect x="1284.90" y="371.40" width="67.20" height="67.20" fill="none" stroke="orange" stroke-width="0.8" />
<rect x="1374.90" y="371.40" width="67.20" height="67.20" fill="none" stroke="orange" stroke-width="0.8" />
<rect x="744.90" y="281.40" width="67.20" height="67.20" fill="none" stroke="orange" stroke-width="0.8" />
<rect x="834.90" y="281.40" width="67.20" height="67.20" fill="none" stroke="orange" stroke-width="0.8" />
<rect x="924.90" y="281.40" width="67.20" height="67.20" fill="none" stroke="orange" stroke-width="0.8" />
<rect x="1014.90" y="281.40" width="67.20" height="67.20" fill="none" stroke="orange" stroke-width="0.8" />
<rect x="1104.90" y="281.40" width="67.20" height="67.20" fill="none" stroke="orange" stroke-width="0.8" />
<rect x="1194.90" y="281.40" width="67.20" height="67.20" fill="none" stroke="orange" stroke-width="0.8" />
<rect x="1284.90" y="281.40" width="67.20" height="67.20" fill="none" stroke="orange" stroke-width="0.8" />
<rect x="1374.90" y="281.40" width="67.20" height="67.20" fill="none" stroke="orange" stroke-width="0.8" />
<rect x="744.90" y="191.40" width="67.20" height="67.20" fill="none" stroke="orange" stroke-width="0.8" />
<rect x="834.90" y="191.40" width="67.20" height="67.20" fill="none" stroke="orange" stroke-width="0.8" />
<rect x="924.90" y="191.40" width="67.20" height="67.20" fill="none" stroke="orange" stroke-width="0.8" />
<rect x="1014.90" y="191.40" width="67.20" height="67.20" fill="none" stroke="orange" stroke-width="0.8" />
<rect x="1104.90" y="191.40" width="67.20" height="67.20" fill="none" stroke="orange" stroke-width="0.8" />
<rect x="1194.90" y="191.40" width="67.20" height="67.20" fill="none" stroke="orange" stroke-width="0.8" />
<rect x="1284.90" y="191.40" width="67.20" height="67.20" fill="none" stroke="orange" stroke-width="0.8" />
<rect x="1374.90" y="191.40" width="67.20" height="67.20" fill="none" stroke="orange" stroke-width="0.8" />
<rect x="744.90" y="101.40" width="67.20" height="67.20" fill="none" stroke="orange" stroke-width="0.8" />
<rect x="834.90" y="101.40" width="67.20" height="67.20" fill="none" stroke="orange" stroke-width="0.8" />
<rect x="924.90" y="101.40" width="67.20" height="67.20" fill="none" stroke="orange" stroke-width="0.8" />
<rect x="1014.90" y="101.40" width="67.20" height="67.20" fill="none" stroke="orange" stroke-width="0.8" />
<rect x="1104.90" y="101.40" width="67.20" height="67.20" fill="none" stroke="orange" stroke-width="0.8" />
<rect x="1194.90" y="101.40" width="67.20" height="67.20" fill="none" stroke="orange" stroke-width="0.8" />
<rect x="1284.90" y="101.40" width="67.20" height="67.20" fill="none" stroke="orange" stroke-width="0.8" />
<rect x="1374.90" y="101.40" width="67.20" height="67.20" fill="none" stroke="orange" stroke-width="0.8" />
<text x="40" y="22" font-size="18" fill="#111">Current generated top view: black = shoulder slope, blue = high flat tier</text>
<text x="40" y="44" font-size="13" fill="#555">Blue dashed = main PCB keepout; red = OLED; orange = NeoTrellis; AUX3 label marks SW4 crater.</text>
<text x="40" y="62" font-size="13" fill="#555">Cyan = approximate Pi Zero 2 W board and SoC/hotspot target. Gray encoder rings include sloped crater radius.</text>
</svg>