M48
; DRILL file KiCad 10.0.1 date 2026-06-18T15:12:54
; FORMAT={-:-/ absolute / metric / decimal}
; #@! TF.CreationDate,2026-06-18T15:12:54+02:00
; #@! TF.GenerationSoftware,Kicad,Pcbnew,10.0.1
; #@! TF.FileFunction,Plated,1,2,PTH
FMAT,2
METRIC
; #@! TA.AperFunction,Plated,PTH,ViaDrill
T1C0.300
; #@! TA.AperFunction,Plated,PTH,ComponentDrill
T2C0.600
; #@! TA.AperFunction,Plated,PTH,ComponentDrill
T3C0.800
; #@! TA.AperFunction,Plated,PTH,ComponentDrill
T4C1.000
; #@! TA.AperFunction,Plated,PTH,ComponentDrill
T5C1.500
; #@! TA.AperFunction,Plated,PTH,ComponentDrill
T6C2.500
%
G90
G05
T1
X44.773Y-89.984
X50.313Y-51.625
X50.614Y-57.49
X54.994Y-60.326
X57.12Y-108.14
X57.563Y-103.88
X60.277Y-72.194
X60.732Y-42.386
X61.056Y-43.195
X72.354Y-48.667
T2
X18.25Y-84.11
X18.25Y-92.75
X22.43Y-84.11
X22.43Y-92.75
T3
X105.5Y-34.0
X109.0Y-34.0
T4
X21.98Y-35.67
X24.089Y-111.954
X24.089Y-114.494
X24.52Y-20.43
X24.52Y-35.67
X26.629Y-111.954
X26.629Y-114.494
X27.06Y-20.43
X27.06Y-35.67
X27.08Y-79.54
X27.08Y-82.08
X27.08Y-84.62
X27.08Y-87.16
X27.08Y-89.7
X27.08Y-92.24
X27.08Y-94.78
X27.08Y-97.32
X27.3Y-50.0
X27.3Y-64.5
X29.169Y-111.954
X29.169Y-114.494
X29.6Y-20.43
X29.6Y-35.67
X29.8Y-64.5
X31.709Y-111.954
X31.709Y-114.494
X32.14Y-20.43
X32.14Y-35.67
X32.3Y-50.0
X32.3Y-64.5
X34.249Y-111.954
X34.249Y-114.494
X34.68Y-20.43
X34.68Y-35.67
X36.789Y-111.954
X36.789Y-114.494
X37.22Y-20.43
X37.22Y-35.67
X39.329Y-111.954
X39.329Y-114.494
X39.76Y-35.67
X40.6Y-91.9
X40.6Y-106.4
X41.869Y-111.954
X41.869Y-114.494
X43.1Y-106.4
X44.409Y-111.954
X44.409Y-114.494
X45.6Y-91.9
X45.6Y-106.4
X46.949Y-111.954
X46.949Y-114.494
X49.489Y-111.954
X49.489Y-114.494
X52.029Y-111.954
X52.029Y-114.494
X54.569Y-111.954
X54.569Y-114.494
X57.109Y-111.954
X57.109Y-114.494
X57.6Y-68.8
X57.6Y-83.3
X58.154Y-24.55
X58.154Y-27.09
X58.154Y-29.63
X58.154Y-32.17
X58.154Y-34.71
X58.154Y-37.25
X58.154Y-39.79
X58.154Y-42.33
X58.154Y-44.87
X58.154Y-47.41
X58.154Y-49.95
X59.649Y-111.954
X59.649Y-114.494
X60.1Y-83.3
X62.189Y-111.954
X62.189Y-114.494
X62.6Y-68.8
X62.6Y-83.3
X64.729Y-111.954
X64.729Y-114.494
X67.269Y-111.954
X67.269Y-114.494
X69.809Y-111.954
X69.809Y-114.494
X72.349Y-111.954
X72.349Y-114.494
X74.6Y-91.9
X74.6Y-106.4
X77.1Y-106.4
X79.6Y-91.9
X79.6Y-106.4
X100.41Y-95.6
X100.41Y-98.14
X100.41Y-100.68
X100.41Y-103.22
X100.41Y-105.76
X100.41Y-108.3
X109.8Y-43.84
X109.8Y-46.38
X109.8Y-48.92
X109.8Y-51.46
X109.8Y-54.0
X118.19Y-95.6
X118.19Y-98.14
X118.19Y-100.68
X118.19Y-103.22
X118.19Y-105.76
X118.19Y-108.3
T6
X18.17Y-20.43
X18.17Y-35.67
X18.19Y-80.81
X18.19Y-96.05
X43.57Y-20.43
X43.57Y-35.67
X59.17Y-18.2
X59.17Y-56.3
X96.0Y-18.2
X96.0Y-56.3
X101.045Y-82.9
X101.045Y-121.0
X117.555Y-82.9
X117.555Y-121.0
T5
G00X24.2Y-57.65
M15
G01X24.2Y-56.35
M16
G05
G00X35.4Y-57.65
M15
G01X35.4Y-56.35
M16
G05
G00X37.5Y-99.55
M15
G01X37.5Y-98.25
M16
G05
G00X48.7Y-99.55
M15
G01X48.7Y-98.25
M16
G05
G00X54.5Y-76.45
M15
G01X54.5Y-75.15
M16
G05
G00X65.7Y-76.45
M15
G01X65.7Y-75.15
M16
G05
G00X71.5Y-99.55
M15
G01X71.5Y-98.25
M16
G05
G00X82.7Y-99.55
M15
G01X82.7Y-98.25
M16
G05
M30
