%TF.GenerationSoftware,KiCad,Pcbnew,10.0.1*%
%TF.CreationDate,2026-06-18T15:12:55+02:00*%
%TF.ProjectId,octessera,63656c6c-5379-46d7-9068-6f6e792e6b69,rev?*%
%TF.SameCoordinates,Original*%
%TF.FileFunction,Soldermask,Bot*%
%TF.FilePolarity,Negative*%
%FSLAX46Y46*%
G04 Gerber Fmt 4.6, Leading zero omitted, Abs format (unit mm)*
G04 Created by KiCad (PCBNEW 10.0.1) date 2026-06-18 15:12:55*
%MOMM*%
%LPD*%
G01*
G04 APERTURE LIST*
G04 Aperture macros list*
%AMRoundRect*
0 Rectangle with rounded corners*
0 $1 Rounding radius*
0 $2 $3 $4 $5 $6 $7 $8 $9 X,Y pos of 4 corners*
0 Add a 4 corners polygon primitive as box body*
4,1,4,$2,$3,$4,$5,$6,$7,$8,$9,$2,$3,0*
0 Add four circle primitives for the rounded corners*
1,1,$1+$1,$2,$3*
1,1,$1+$1,$4,$5*
1,1,$1+$1,$6,$7*
1,1,$1+$1,$8,$9*
0 Add four rect primitives between the rounded corners*
20,1,$1+$1,$2,$3,$4,$5,0*
20,1,$1+$1,$4,$5,$6,$7,0*
20,1,$1+$1,$6,$7,$8,$9,0*
20,1,$1+$1,$8,$9,$2,$3,0*%
G04 Aperture macros list end*
%ADD10C,2.750000*%
%ADD11RoundRect,0.102000X-0.754000X-0.754000X0.754000X-0.754000X0.754000X0.754000X-0.754000X0.754000X0*%
%ADD12C,1.712000*%
%ADD13C,1.930400*%
%ADD14C,3.200000*%
%ADD15R,2.000000X2.000000*%
%ADD16C,2.000000*%
%ADD17R,2.000000X3.200000*%
%ADD18C,1.778000*%
%ADD19C,1.700000*%
%ADD20C,1.676400*%
%ADD21O,1.600000X1.000000*%
%ADD22RoundRect,0.250000X-0.550000X-0.550000X0.550000X-0.550000X0.550000X0.550000X-0.550000X0.550000X0*%
%ADD23C,1.600000*%
G04 APERTURE END LIST*
D10*
%TO.C,U1*%
X19219200Y-113223900D03*
X19219200Y-136223900D03*
X77219200Y-113223900D03*
X77219200Y-136223900D03*
D11*
X24089200Y-114493900D03*
D12*
X24089200Y-111953900D03*
X26629200Y-114493900D03*
X26629200Y-111953900D03*
X29169200Y-114493900D03*
X29169200Y-111953900D03*
X31709200Y-114493900D03*
X31709200Y-111953900D03*
X34249200Y-114493900D03*
X34249200Y-111953900D03*
X36789200Y-114493900D03*
X36789200Y-111953900D03*
X39329200Y-114493900D03*
X39329200Y-111953900D03*
X41869200Y-114493900D03*
X41869200Y-111953900D03*
X44409200Y-114493900D03*
X44409200Y-111953900D03*
X46949200Y-114493900D03*
X46949200Y-111953900D03*
X49489200Y-114493900D03*
X49489200Y-111953900D03*
X52029200Y-114493900D03*
X52029200Y-111953900D03*
X54569200Y-114493900D03*
X54569200Y-111953900D03*
X57109200Y-114493900D03*
X57109200Y-111953900D03*
X59649200Y-114493900D03*
X59649200Y-111953900D03*
X62189200Y-114493900D03*
X62189200Y-111953900D03*
X64729200Y-114493900D03*
X64729200Y-111953900D03*
X67269200Y-114493900D03*
X67269200Y-111953900D03*
X69809200Y-114493900D03*
X69809200Y-111953900D03*
X72349200Y-114493900D03*
X72349200Y-111953900D03*
%TD*%
D13*
%TO.C,U2*%
X58154000Y-27090000D03*
X58154000Y-29630000D03*
X58154000Y-32170000D03*
X58154000Y-47410000D03*
X58154000Y-44870000D03*
X58154000Y-24550000D03*
D14*
X96000000Y-18200000D03*
X96000000Y-56300000D03*
X59170000Y-56300000D03*
X59170000Y-18200000D03*
D13*
X58154000Y-39790000D03*
X58154000Y-42330000D03*
X58154000Y-37250000D03*
X58154000Y-49950000D03*
X58154000Y-34710000D03*
%TD*%
D15*
%TO.C,SW3*%
X40600000Y-106400000D03*
D16*
X45600000Y-106400000D03*
X43100000Y-106400000D03*
D17*
X37500000Y-98900000D03*
X48700000Y-98900000D03*
D16*
X45600000Y-91900000D03*
X40600000Y-91900000D03*
%TD*%
D18*
%TO.C,U5*%
X100410000Y-100680000D03*
X118190000Y-100680000D03*
X100410000Y-98140000D03*
X118190000Y-98140000D03*
X100410000Y-103220000D03*
X118190000Y-103220000D03*
X100410000Y-105760000D03*
X118190000Y-105760000D03*
X100410000Y-108300000D03*
X118190000Y-108300000D03*
D14*
X117555000Y-82900000D03*
X117555000Y-121000000D03*
X101045000Y-82900000D03*
X101045000Y-121000000D03*
D18*
X100410000Y-95600000D03*
X118190000Y-95600000D03*
%TD*%
D19*
%TO.C,J1*%
X109800000Y-54000000D03*
X109800000Y-51460000D03*
X109800000Y-48920000D03*
X109800000Y-46380000D03*
X109800000Y-43840000D03*
%TD*%
D15*
%TO.C,SW2*%
X57600000Y-83300000D03*
D16*
X62600000Y-83300000D03*
X60100000Y-83300000D03*
D17*
X54500000Y-75800000D03*
X65700000Y-75800000D03*
D16*
X62600000Y-68800000D03*
X57600000Y-68800000D03*
%TD*%
D15*
%TO.C,SW4*%
X74600000Y-106400000D03*
D16*
X79600000Y-106400000D03*
X77100000Y-106400000D03*
D17*
X71500000Y-98900000D03*
X82700000Y-98900000D03*
D16*
X79600000Y-91900000D03*
X74600000Y-91900000D03*
%TD*%
D18*
%TO.C,U4*%
X24520000Y-20430000D03*
D20*
X29600000Y-35670000D03*
D18*
X37220000Y-20430000D03*
D20*
X32140000Y-35670000D03*
D18*
X34680000Y-20430000D03*
X27060000Y-20430000D03*
D20*
X24520000Y-35670000D03*
X37220000Y-35670000D03*
X27060000Y-35670000D03*
D18*
X32140000Y-20430000D03*
D14*
X43570000Y-35670000D03*
X18170000Y-35670000D03*
X43570000Y-20430000D03*
X18170000Y-20430000D03*
D18*
X29600000Y-20430000D03*
D20*
X21980000Y-35670000D03*
X39760000Y-35670000D03*
X34680000Y-35670000D03*
%TD*%
D15*
%TO.C,SW1*%
X27300000Y-64500000D03*
D16*
X32300000Y-64500000D03*
X29800000Y-64500000D03*
D17*
X24200000Y-57000000D03*
X35400000Y-57000000D03*
D16*
X32300000Y-50000000D03*
X27300000Y-50000000D03*
%TD*%
D13*
%TO.C,U3*%
X27080000Y-89700000D03*
X27080000Y-79540000D03*
X27080000Y-84620000D03*
X27080000Y-87160000D03*
X27080000Y-97320000D03*
D21*
X22430000Y-92750000D03*
X22430000Y-84110000D03*
X18250000Y-92750000D03*
X18250000Y-84110000D03*
D14*
X18190000Y-80810000D03*
X18190000Y-96050000D03*
D13*
X27080000Y-82080000D03*
X27080000Y-92240000D03*
X27080000Y-94780000D03*
%TD*%
D22*
%TO.C,C1*%
X105500000Y-34000000D03*
D23*
X109000000Y-34000000D03*
%TD*%
M02*
