M48
; DRILL file KiCad 10.0.1 date 2026-05-03T00:17:10
; FORMAT={-:-/ absolute / metric / decimal}
; #@! TF.CreationDate,2026-05-03T00:17:10+02:00
; #@! TF.GenerationSoftware,Kicad,Pcbnew,10.0.1
; #@! TF.FileFunction,Plated,1,2,PTH
FMAT,2
METRIC
; #@! TA.AperFunction,Plated,PTH,ViaDrill
T1C0.300
; #@! TA.AperFunction,Plated,PTH,ComponentDrill
T2C1.000
; #@! TA.AperFunction,Plated,PTH,ComponentDrill
T3C1.500
%
G90
G05
T1
X42.065Y-127.682
X43.026Y-133.612
X44.469Y-137.598
X55.38Y-86.177
X64.744Y-124.264
X73.832Y-128.012
T2
X38.0Y-31.0
X38.0Y-45.5
X38.0Y-54.25
X38.0Y-68.75
X38.0Y-77.29
X38.0Y-91.79
X40.5Y-45.5
X40.5Y-68.75
X40.5Y-91.79
X43.0Y-31.0
X43.0Y-45.5
X43.0Y-54.25
X43.0Y-68.75
X43.0Y-77.29
X43.0Y-91.79
X59.73Y-108.16
X59.73Y-110.7
X59.73Y-113.24
X59.73Y-115.78
X59.73Y-118.32
X59.73Y-120.86
X59.73Y-123.4
X59.73Y-125.94
X59.73Y-128.48
X59.73Y-131.02
X59.73Y-133.56
X59.73Y-136.1
X59.73Y-138.64
X59.73Y-141.18
X59.73Y-143.72
X59.73Y-146.26
X59.73Y-148.8
X59.73Y-151.34
X59.73Y-153.88
X59.73Y-156.42
X60.5Y-54.25
X60.5Y-68.75
X60.5Y-77.29
X60.5Y-91.79
X62.27Y-108.16
X62.27Y-110.7
X62.27Y-113.24
X62.27Y-115.78
X62.27Y-118.32
X62.27Y-120.86
X62.27Y-123.4
X62.27Y-125.94
X62.27Y-128.48
X62.27Y-131.02
X62.27Y-133.56
X62.27Y-136.1
X62.27Y-138.64
X62.27Y-141.18
X62.27Y-143.72
X62.27Y-146.26
X62.27Y-148.8
X62.27Y-151.34
X62.27Y-153.88
X62.27Y-156.42
X63.0Y-68.75
X63.0Y-91.79
X65.5Y-54.25
X65.5Y-68.75
X65.5Y-77.29
X65.5Y-91.79
X77.5Y-31.21
X77.5Y-33.75
X77.5Y-36.29
X77.5Y-38.83
X77.5Y-41.37
X77.5Y-43.91
X77.5Y-46.45
X77.5Y-98.5
X77.5Y-101.04
X77.5Y-103.58
X77.5Y-106.12
X77.5Y-111.92
X77.5Y-114.46
X77.5Y-117.0
X77.5Y-119.54
X77.5Y-125.46
X77.5Y-128.0
X77.5Y-130.54
X77.5Y-133.08
X77.5Y-135.62
X77.5Y-138.16
X77.5Y-145.96
X77.5Y-148.5
X77.5Y-151.04
X77.5Y-153.58
T3
G00X34.9Y-38.65
M15
G01X34.9Y-37.35
M16
G05
G00X34.9Y-61.9
M15
G01X34.9Y-60.6
M16
G05
G00X34.9Y-84.94
M15
G01X34.9Y-83.64
M16
G05
G00X46.1Y-38.65
M15
G01X46.1Y-37.35
M16
G05
G00X46.1Y-61.9
M15
G01X46.1Y-60.6
M16
G05
G00X46.1Y-84.94
M15
G01X46.1Y-83.64
M16
G05
G00X57.4Y-61.9
M15
G01X57.4Y-60.6
M16
G05
G00X57.4Y-84.94
M15
G01X57.4Y-83.64
M16
G05
G00X68.6Y-61.9
M15
G01X68.6Y-60.6
M16
G05
G00X68.6Y-84.94
M15
G01X68.6Y-83.64
M16
G05
M30
