%TF.GenerationSoftware,KiCad,Pcbnew,10.0.1*%
%TF.CreationDate,2026-05-03T00:17:08+02:00*%
%TF.ProjectId,cellSymphony,63656c6c-5379-46d7-9068-6f6e792e6b69,rev?*%
%TF.SameCoordinates,Original*%
%TF.FileFunction,Copper,L1,Top*%
%TF.FilePolarity,Positive*%
%FSLAX46Y46*%
G04 Gerber Fmt 4.6, Leading zero omitted, Abs format (unit mm)*
G04 Created by KiCad (PCBNEW 10.0.1) date 2026-05-03 00:17:08*
%MOMM*%
%LPD*%
G01*
G04 APERTURE LIST*
%ADD10C,0.300000*%
%TA.AperFunction,NonConductor*%
%ADD11C,0.300000*%
%TD*%
%TA.AperFunction,ComponentPad*%
%ADD12R,1.508000X1.508000*%
%TD*%
%TA.AperFunction,ComponentPad*%
%ADD13C,1.508000*%
%TD*%
%TA.AperFunction,ComponentPad*%
%ADD14R,2.000000X2.000000*%
%TD*%
%TA.AperFunction,ComponentPad*%
%ADD15C,2.000000*%
%TD*%
%TA.AperFunction,ComponentPad*%
%ADD16R,2.000000X3.200000*%
%TD*%
%TA.AperFunction,ComponentPad*%
%ADD17R,1.700000X1.700000*%
%TD*%
%TA.AperFunction,ComponentPad*%
%ADD18C,1.700000*%
%TD*%
%TA.AperFunction,ViaPad*%
%ADD19C,0.600000*%
%TD*%
%TA.AperFunction,Conductor*%
%ADD20C,0.200000*%
%TD*%
G04 APERTURE END LIST*
D10*
D11*
X34411653Y-171657971D02*
X34340225Y-171729400D01*
X34340225Y-171729400D02*
X34125939Y-171800828D01*
X34125939Y-171800828D02*
X33983082Y-171800828D01*
X33983082Y-171800828D02*
X33768796Y-171729400D01*
X33768796Y-171729400D02*
X33625939Y-171586542D01*
X33625939Y-171586542D02*
X33554510Y-171443685D01*
X33554510Y-171443685D02*
X33483082Y-171157971D01*
X33483082Y-171157971D02*
X33483082Y-170943685D01*
X33483082Y-170943685D02*
X33554510Y-170657971D01*
X33554510Y-170657971D02*
X33625939Y-170515114D01*
X33625939Y-170515114D02*
X33768796Y-170372257D01*
X33768796Y-170372257D02*
X33983082Y-170300828D01*
X33983082Y-170300828D02*
X34125939Y-170300828D01*
X34125939Y-170300828D02*
X34340225Y-170372257D01*
X34340225Y-170372257D02*
X34411653Y-170443685D01*
X35625939Y-171729400D02*
X35483082Y-171800828D01*
X35483082Y-171800828D02*
X35197368Y-171800828D01*
X35197368Y-171800828D02*
X35054510Y-171729400D01*
X35054510Y-171729400D02*
X34983082Y-171586542D01*
X34983082Y-171586542D02*
X34983082Y-171015114D01*
X34983082Y-171015114D02*
X35054510Y-170872257D01*
X35054510Y-170872257D02*
X35197368Y-170800828D01*
X35197368Y-170800828D02*
X35483082Y-170800828D01*
X35483082Y-170800828D02*
X35625939Y-170872257D01*
X35625939Y-170872257D02*
X35697368Y-171015114D01*
X35697368Y-171015114D02*
X35697368Y-171157971D01*
X35697368Y-171157971D02*
X34983082Y-171300828D01*
X36554510Y-171800828D02*
X36411653Y-171729400D01*
X36411653Y-171729400D02*
X36340224Y-171586542D01*
X36340224Y-171586542D02*
X36340224Y-170300828D01*
X37340224Y-171800828D02*
X37197367Y-171729400D01*
X37197367Y-171729400D02*
X37125938Y-171586542D01*
X37125938Y-171586542D02*
X37125938Y-170300828D01*
X37840224Y-171729400D02*
X38054510Y-171800828D01*
X38054510Y-171800828D02*
X38411652Y-171800828D01*
X38411652Y-171800828D02*
X38554510Y-171729400D01*
X38554510Y-171729400D02*
X38625938Y-171657971D01*
X38625938Y-171657971D02*
X38697367Y-171515114D01*
X38697367Y-171515114D02*
X38697367Y-171372257D01*
X38697367Y-171372257D02*
X38625938Y-171229400D01*
X38625938Y-171229400D02*
X38554510Y-171157971D01*
X38554510Y-171157971D02*
X38411652Y-171086542D01*
X38411652Y-171086542D02*
X38125938Y-171015114D01*
X38125938Y-171015114D02*
X37983081Y-170943685D01*
X37983081Y-170943685D02*
X37911652Y-170872257D01*
X37911652Y-170872257D02*
X37840224Y-170729400D01*
X37840224Y-170729400D02*
X37840224Y-170586542D01*
X37840224Y-170586542D02*
X37911652Y-170443685D01*
X37911652Y-170443685D02*
X37983081Y-170372257D01*
X37983081Y-170372257D02*
X38125938Y-170300828D01*
X38125938Y-170300828D02*
X38483081Y-170300828D01*
X38483081Y-170300828D02*
X38697367Y-170372257D01*
X39197366Y-170800828D02*
X39554509Y-171800828D01*
X39911652Y-170800828D02*
X39554509Y-171800828D01*
X39554509Y-171800828D02*
X39411652Y-172157971D01*
X39411652Y-172157971D02*
X39340223Y-172229400D01*
X39340223Y-172229400D02*
X39197366Y-172300828D01*
X40483080Y-171800828D02*
X40483080Y-170800828D01*
X40483080Y-170943685D02*
X40554509Y-170872257D01*
X40554509Y-170872257D02*
X40697366Y-170800828D01*
X40697366Y-170800828D02*
X40911652Y-170800828D01*
X40911652Y-170800828D02*
X41054509Y-170872257D01*
X41054509Y-170872257D02*
X41125938Y-171015114D01*
X41125938Y-171015114D02*
X41125938Y-171800828D01*
X41125938Y-171015114D02*
X41197366Y-170872257D01*
X41197366Y-170872257D02*
X41340223Y-170800828D01*
X41340223Y-170800828D02*
X41554509Y-170800828D01*
X41554509Y-170800828D02*
X41697366Y-170872257D01*
X41697366Y-170872257D02*
X41768795Y-171015114D01*
X41768795Y-171015114D02*
X41768795Y-171800828D01*
X42483080Y-170800828D02*
X42483080Y-172300828D01*
X42483080Y-170872257D02*
X42625938Y-170800828D01*
X42625938Y-170800828D02*
X42911652Y-170800828D01*
X42911652Y-170800828D02*
X43054509Y-170872257D01*
X43054509Y-170872257D02*
X43125938Y-170943685D01*
X43125938Y-170943685D02*
X43197366Y-171086542D01*
X43197366Y-171086542D02*
X43197366Y-171515114D01*
X43197366Y-171515114D02*
X43125938Y-171657971D01*
X43125938Y-171657971D02*
X43054509Y-171729400D01*
X43054509Y-171729400D02*
X42911652Y-171800828D01*
X42911652Y-171800828D02*
X42625938Y-171800828D01*
X42625938Y-171800828D02*
X42483080Y-171729400D01*
X43840223Y-171800828D02*
X43840223Y-170300828D01*
X44483081Y-171800828D02*
X44483081Y-171015114D01*
X44483081Y-171015114D02*
X44411652Y-170872257D01*
X44411652Y-170872257D02*
X44268795Y-170800828D01*
X44268795Y-170800828D02*
X44054509Y-170800828D01*
X44054509Y-170800828D02*
X43911652Y-170872257D01*
X43911652Y-170872257D02*
X43840223Y-170943685D01*
X45411652Y-171800828D02*
X45268795Y-171729400D01*
X45268795Y-171729400D02*
X45197366Y-171657971D01*
X45197366Y-171657971D02*
X45125938Y-171515114D01*
X45125938Y-171515114D02*
X45125938Y-171086542D01*
X45125938Y-171086542D02*
X45197366Y-170943685D01*
X45197366Y-170943685D02*
X45268795Y-170872257D01*
X45268795Y-170872257D02*
X45411652Y-170800828D01*
X45411652Y-170800828D02*
X45625938Y-170800828D01*
X45625938Y-170800828D02*
X45768795Y-170872257D01*
X45768795Y-170872257D02*
X45840224Y-170943685D01*
X45840224Y-170943685D02*
X45911652Y-171086542D01*
X45911652Y-171086542D02*
X45911652Y-171515114D01*
X45911652Y-171515114D02*
X45840224Y-171657971D01*
X45840224Y-171657971D02*
X45768795Y-171729400D01*
X45768795Y-171729400D02*
X45625938Y-171800828D01*
X45625938Y-171800828D02*
X45411652Y-171800828D01*
X46554509Y-170800828D02*
X46554509Y-171800828D01*
X46554509Y-170943685D02*
X46625938Y-170872257D01*
X46625938Y-170872257D02*
X46768795Y-170800828D01*
X46768795Y-170800828D02*
X46983081Y-170800828D01*
X46983081Y-170800828D02*
X47125938Y-170872257D01*
X47125938Y-170872257D02*
X47197367Y-171015114D01*
X47197367Y-171015114D02*
X47197367Y-171800828D01*
X47768795Y-170800828D02*
X48125938Y-171800828D01*
X48483081Y-170800828D02*
X48125938Y-171800828D01*
X48125938Y-171800828D02*
X47983081Y-172157971D01*
X47983081Y-172157971D02*
X47911652Y-172229400D01*
X47911652Y-172229400D02*
X47768795Y-172300828D01*
X50197366Y-171800828D02*
X50197366Y-170300828D01*
X50197366Y-170872257D02*
X50340224Y-170800828D01*
X50340224Y-170800828D02*
X50625938Y-170800828D01*
X50625938Y-170800828D02*
X50768795Y-170872257D01*
X50768795Y-170872257D02*
X50840224Y-170943685D01*
X50840224Y-170943685D02*
X50911652Y-171086542D01*
X50911652Y-171086542D02*
X50911652Y-171515114D01*
X50911652Y-171515114D02*
X50840224Y-171657971D01*
X50840224Y-171657971D02*
X50768795Y-171729400D01*
X50768795Y-171729400D02*
X50625938Y-171800828D01*
X50625938Y-171800828D02*
X50340224Y-171800828D01*
X50340224Y-171800828D02*
X50197366Y-171729400D01*
X51411652Y-170800828D02*
X51768795Y-171800828D01*
X52125938Y-170800828D02*
X51768795Y-171800828D01*
X51768795Y-171800828D02*
X51625938Y-172157971D01*
X51625938Y-172157971D02*
X51554509Y-172229400D01*
X51554509Y-172229400D02*
X51411652Y-172300828D01*
X53840223Y-170800828D02*
X53840223Y-171800828D01*
X53840223Y-170943685D02*
X53911652Y-170872257D01*
X53911652Y-170872257D02*
X54054509Y-170800828D01*
X54054509Y-170800828D02*
X54268795Y-170800828D01*
X54268795Y-170800828D02*
X54411652Y-170872257D01*
X54411652Y-170872257D02*
X54483081Y-171015114D01*
X54483081Y-171015114D02*
X54483081Y-171800828D01*
X55768795Y-171729400D02*
X55625938Y-171800828D01*
X55625938Y-171800828D02*
X55340224Y-171800828D01*
X55340224Y-171800828D02*
X55197366Y-171729400D01*
X55197366Y-171729400D02*
X55125938Y-171586542D01*
X55125938Y-171586542D02*
X55125938Y-171015114D01*
X55125938Y-171015114D02*
X55197366Y-170872257D01*
X55197366Y-170872257D02*
X55340224Y-170800828D01*
X55340224Y-170800828D02*
X55625938Y-170800828D01*
X55625938Y-170800828D02*
X55768795Y-170872257D01*
X55768795Y-170872257D02*
X55840224Y-171015114D01*
X55840224Y-171015114D02*
X55840224Y-171157971D01*
X55840224Y-171157971D02*
X55125938Y-171300828D01*
X56340223Y-171800828D02*
X57125938Y-170800828D01*
X56340223Y-170800828D02*
X57125938Y-171800828D01*
X57554509Y-171800828D02*
X58340224Y-170800828D01*
X57554509Y-170800828D02*
X58340224Y-171800828D01*
X58768795Y-170800828D02*
X59125938Y-171800828D01*
X59483081Y-170800828D02*
X59125938Y-171800828D01*
X59125938Y-171800828D02*
X58983081Y-172157971D01*
X58983081Y-172157971D02*
X58911652Y-172229400D01*
X58911652Y-172229400D02*
X58768795Y-172300828D01*
X59911652Y-170800828D02*
X60697367Y-170800828D01*
X60697367Y-170800828D02*
X59911652Y-171800828D01*
X59911652Y-171800828D02*
X60697367Y-171800828D01*
D12*
%TO.P,U1,1,3V3_1_1*%
%TO.N,Net-(OLED1-VIN)*%
X59730000Y-108160000D03*
D13*
%TO.P,U1,2,5V_2_2*%
%TO.N,+5V*%
X62270000Y-108160000D03*
%TO.P,U1,3,GPIO2/SDA1_3*%
%TO.N,Net-(NeoKey1-SDA)*%
X59730000Y-110700000D03*
%TO.P,U1,4,5V_4_4*%
%TO.N,unconnected-(U1-5V_4-Pad4)*%
X62270000Y-110700000D03*
%TO.P,U1,5,GPIO3/SCL_5*%
%TO.N,Net-(NeoKey1-SCL)*%
X59730000Y-113240000D03*
%TO.P,U1,6,GND_6_6*%
%TO.N,GND*%
X62270000Y-113240000D03*
%TO.P,U1,7,GPIO4/GPIO_GCLK_7*%
%TO.N,Net-(U1-GPIO4{slash}GPIO_GCLK)*%
X59730000Y-115780000D03*
%TO.P,U1,8,GPIO14/TXD0_8*%
%TO.N,Net-(U1-GPIO14{slash}TXD0)*%
X62270000Y-115780000D03*
%TO.P,U1,9,GND_9_9*%
%TO.N,unconnected-(U1-GND_9-Pad9)*%
X59730000Y-118320000D03*
%TO.P,U1,10,GPIO15/RXD0_10*%
%TO.N,unconnected-(U1-GPIO15{slash}RXD0-Pad10)*%
X62270000Y-118320000D03*
%TO.P,U1,11,GPIO17/GPIO_GEN0_11*%
%TO.N,Net-(U1-GPIO17{slash}GPIO_GEN0)*%
X59730000Y-120860000D03*
%TO.P,U1,12,GPIO18/GPIO_GEN1_12*%
%TO.N,Net-(GY-PCM5102-BCK)*%
X62270000Y-120860000D03*
%TO.P,U1,13,GPIO27/GPIO_GEN2_13*%
%TO.N,Net-(U1-GPIO27{slash}GPIO_GEN2)*%
X59730000Y-123400000D03*
%TO.P,U1,14,GND_14_14*%
%TO.N,unconnected-(U1-GND_14-Pad14)*%
X62270000Y-123400000D03*
%TO.P,U1,15,GPIO22/GPIO_GEN3_15*%
%TO.N,Net-(U1-GPIO22{slash}GPIO_GEN3)*%
X59730000Y-125940000D03*
%TO.P,U1,16,GPIO23/GPIO_GEN4_16*%
%TO.N,Net-(U1-GPIO23{slash}GPIO_GEN4)*%
X62270000Y-125940000D03*
%TO.P,U1,17,3V3_17_17*%
%TO.N,unconnected-(U1-3V3_17-Pad17)*%
X59730000Y-128480000D03*
%TO.P,U1,18,GPIO24/GPIO_GEN5_18*%
%TO.N,Net-(OLED1-DC)*%
X62270000Y-128480000D03*
%TO.P,U1,19,GPIO10/SPI_MOSI_19*%
%TO.N,Net-(OLED1-MOSI)*%
X59730000Y-131020000D03*
%TO.P,U1,20,GND_20_20*%
%TO.N,unconnected-(U1-GND_20-Pad20)*%
X62270000Y-131020000D03*
%TO.P,U1,21,GPIO9/SPI_MISO_21*%
%TO.N,Net-(U1-GPIO9{slash}SPI_MISO)*%
X59730000Y-133560000D03*
%TO.P,U1,22,GPIO25/GPIO_GEN6_22*%
%TO.N,Net-(OLED1-RST)*%
X62270000Y-133560000D03*
%TO.P,U1,23,GPIO11/SPI_SCLK_23*%
%TO.N,Net-(OLED1-CLK)*%
X59730000Y-136100000D03*
%TO.P,U1,24,GPIO8/SPI_~{CE0}_24*%
%TO.N,Net-(OLED1-CS)*%
X62270000Y-136100000D03*
%TO.P,U1,25,GND_25_25*%
%TO.N,unconnected-(U1-GND_25-Pad25)*%
X59730000Y-138640000D03*
%TO.P,U1,26,GPIO7/SPI_~{CE1}_26*%
%TO.N,Net-(U1-GPIO7{slash}SPI_~{CE1})*%
X62270000Y-138640000D03*
%TO.P,U1,27,ID_SD_27*%
%TO.N,unconnected-(U1-ID_SD-Pad27)*%
X59730000Y-141180000D03*
%TO.P,U1,28,ID_SC_28*%
%TO.N,unconnected-(U1-ID_SC-Pad28)*%
X62270000Y-141180000D03*
%TO.P,U1,29,GPIO5_29*%
%TO.N,Net-(U1-GPIO5)*%
X59730000Y-143720000D03*
%TO.P,U1,30,GND_30_30*%
%TO.N,unconnected-(U1-GND_30-Pad30)*%
X62270000Y-143720000D03*
%TO.P,U1,31,GPIO6_31*%
%TO.N,Net-(U1-GPIO6)*%
X59730000Y-146260000D03*
%TO.P,U1,32,GPIO12_32*%
%TO.N,Net-(U1-GPIO12)*%
X62270000Y-146260000D03*
%TO.P,U1,33,GPIO13_33*%
%TO.N,Net-(U1-GPIO13)*%
X59730000Y-148800000D03*
%TO.P,U1,34,GND_34_34*%
%TO.N,unconnected-(U1-GND_34-Pad34)*%
X62270000Y-148800000D03*
%TO.P,U1,35,GPIO19_35*%
%TO.N,Net-(GY-PCM5102-LRCK)*%
X59730000Y-151340000D03*
%TO.P,U1,36,GPIO16_36*%
%TO.N,Net-(U1-GPIO16)*%
X62270000Y-151340000D03*
%TO.P,U1,37,GPIO26_37*%
%TO.N,Net-(U1-GPIO26)*%
X59730000Y-153880000D03*
%TO.P,U1,38,GPIO20_38*%
%TO.N,Net-(U1-GPIO20)*%
X62270000Y-153880000D03*
%TO.P,U1,39,GND_39_39*%
%TO.N,unconnected-(U1-GND_39-Pad39)*%
X59730000Y-156420000D03*
%TO.P,U1,40,GPIO21_40*%
%TO.N,Net-(GY-PCM5102-DIN)*%
X62270000Y-156420000D03*
%TD*%
D14*
%TO.P,SW2,A,A_A*%
%TO.N,Net-(U1-GPIO13)*%
X38000000Y-68750000D03*
D15*
%TO.P,SW2,B,B_B*%
%TO.N,Net-(U1-GPIO16)*%
X43000000Y-68750000D03*
%TO.P,SW2,C,C_C*%
%TO.N,GND*%
X40500000Y-68750000D03*
D16*
%TO.P,SW2,MP*%
%TO.N,N/C*%
X34900000Y-61250000D03*
X46100000Y-61250000D03*
D15*
%TO.P,SW2,S1,S1_S1*%
%TO.N,Net-(U1-GPIO17{slash}GPIO_GEN0)*%
X43000000Y-54250000D03*
%TO.P,SW2,S2,S2_S2*%
%TO.N,GND*%
X38000000Y-54250000D03*
%TD*%
D17*
%TO.P,ADA6250,1,VIN_1*%
%TO.N,+5V*%
X77500000Y-125460000D03*
D18*
%TO.P,ADA6250,2,GND_2*%
%TO.N,GND*%
X77500000Y-128000000D03*
%TO.P,ADA6250,3,BCK_3*%
%TO.N,Net-(GY-PCM5102-BCK)*%
X77500000Y-130540000D03*
%TO.P,ADA6250,4,LRCK_4*%
%TO.N,Net-(GY-PCM5102-LRCK)*%
X77500000Y-133080000D03*
%TO.P,ADA6250,5,DIN_5*%
%TO.N,Net-(GY-PCM5102-DIN)*%
X77500000Y-135620000D03*
%TO.P,ADA6250,6,FMT_6*%
%TO.N,unconnected-(GY-PCM5102-FMT-Pad6)*%
X77500000Y-138160000D03*
%TD*%
D17*
%TO.P,NeoKey,1,VIN_1*%
%TO.N,+5V*%
X77500000Y-98500000D03*
D18*
%TO.P,NeoKey,2,GND_2*%
%TO.N,GND*%
X77500000Y-101040000D03*
%TO.P,NeoKey,3,SDA_3*%
%TO.N,Net-(NeoKey1-SDA)*%
X77500000Y-103580000D03*
%TO.P,NeoKey,4,SCL_4*%
%TO.N,Net-(NeoKey1-SCL)*%
X77500000Y-106120000D03*
%TD*%
D17*
%TO.P,Neotrellis,1,VIN_1*%
%TO.N,+5V*%
X77500000Y-111920000D03*
D18*
%TO.P,Neotrellis,2,GND_2*%
%TO.N,GND*%
X77500000Y-114460000D03*
%TO.P,Neotrellis,3,SDA_3*%
%TO.N,Net-(NeoKey1-SDA)*%
X77500000Y-117000000D03*
%TO.P,Neotrellis,4,SCL_4*%
%TO.N,Net-(NeoKey1-SCL)*%
X77500000Y-119540000D03*
%TD*%
D17*
%TO.P,ADA4090,1,VBUS_1*%
%TO.N,+5V*%
X77500000Y-145960000D03*
D18*
%TO.P,ADA4090,2,GND_2*%
%TO.N,GND*%
X77500000Y-148500000D03*
%TO.P,ADA4090,3,CC1_3*%
%TO.N,unconnected-(USB-C_Breakout1-CC1-Pad3)*%
X77500000Y-151040000D03*
%TO.P,ADA4090,4,CC2_4*%
%TO.N,unconnected-(USB-C_Breakout1-CC2-Pad4)*%
X77500000Y-153580000D03*
%TD*%
D14*
%TO.P,SW4,A,A_A*%
%TO.N,Net-(U1-GPIO26)*%
X38000000Y-91790000D03*
D15*
%TO.P,SW4,B,B_B*%
%TO.N,Net-(U1-GPIO23{slash}GPIO_GEN4)*%
X43000000Y-91790000D03*
%TO.P,SW4,C,C_C*%
%TO.N,GND*%
X40500000Y-91790000D03*
D16*
%TO.P,SW4,MP*%
%TO.N,N/C*%
X34900000Y-84290000D03*
X46100000Y-84290000D03*
D15*
%TO.P,SW4,S1,S1_S1*%
%TO.N,Net-(U1-GPIO22{slash}GPIO_GEN3)*%
X43000000Y-77290000D03*
%TO.P,SW4,S2,S2_S2*%
%TO.N,GND*%
X38000000Y-77290000D03*
%TD*%
D14*
%TO.P,SW3,A,A_A*%
%TO.N,Net-(U1-GPIO27{slash}GPIO_GEN2)*%
X60500000Y-68750000D03*
D15*
%TO.P,SW3,B,B_B*%
%TO.N,Net-(U1-GPIO4{slash}GPIO_GCLK)*%
X65500000Y-68750000D03*
%TO.P,SW3,C,C_C*%
%TO.N,GND*%
X63000000Y-68750000D03*
D16*
%TO.P,SW3,MP*%
%TO.N,N/C*%
X57400000Y-61250000D03*
X68600000Y-61250000D03*
D15*
%TO.P,SW3,S1,S1_S1*%
%TO.N,Net-(U1-GPIO20)*%
X65500000Y-54250000D03*
%TO.P,SW3,S2,S2_S2*%
%TO.N,GND*%
X60500000Y-54250000D03*
%TD*%
D14*
%TO.P,SW5,A,A_A*%
%TO.N,Net-(U1-GPIO14{slash}TXD0)*%
X60500000Y-91790000D03*
D15*
%TO.P,SW5,B,B_B*%
%TO.N,Net-(U1-GPIO9{slash}SPI_MISO)*%
X65500000Y-91790000D03*
%TO.P,SW5,C,C_C*%
%TO.N,GND*%
X63000000Y-91790000D03*
D16*
%TO.P,SW5,MP*%
%TO.N,N/C*%
X57400000Y-84290000D03*
X68600000Y-84290000D03*
D15*
%TO.P,SW5,S1,S1_S1*%
%TO.N,Net-(U1-GPIO7{slash}SPI_~{CE1})*%
X65500000Y-77290000D03*
%TO.P,SW5,S2,S2_S2*%
%TO.N,GND*%
X60500000Y-77290000D03*
%TD*%
D14*
%TO.P,SW1,A,A_A*%
%TO.N,Net-(U1-GPIO5)*%
X38000000Y-45500000D03*
D15*
%TO.P,SW1,B,B_B*%
%TO.N,Net-(U1-GPIO6)*%
X43000000Y-45500000D03*
%TO.P,SW1,C,C_C*%
%TO.N,GND*%
X40500000Y-45500000D03*
D16*
%TO.P,SW1,MP*%
%TO.N,N/C*%
X34900000Y-38000000D03*
X46100000Y-38000000D03*
D15*
%TO.P,SW1,S1,S1_S1*%
%TO.N,Net-(U1-GPIO12)*%
X43000000Y-31000000D03*
%TO.P,SW1,S2,S2_S2*%
%TO.N,GND*%
X38000000Y-31000000D03*
%TD*%
D17*
%TO.P,OLED,1,VIN_1*%
%TO.N,Net-(OLED1-VIN)*%
X77500000Y-31210000D03*
D18*
%TO.P,OLED,2,GND_2*%
%TO.N,GND*%
X77500000Y-33750000D03*
%TO.P,OLED,3,MOSI_3*%
%TO.N,Net-(OLED1-MOSI)*%
X77500000Y-36290000D03*
%TO.P,OLED,4,CLK_4*%
%TO.N,Net-(OLED1-CLK)*%
X77500000Y-38830000D03*
%TO.P,OLED,5,CS_5*%
%TO.N,Net-(OLED1-CS)*%
X77500000Y-41370000D03*
%TO.P,OLED,6,DC_6*%
%TO.N,Net-(OLED1-DC)*%
X77500000Y-43910000D03*
%TO.P,OLED,7,RST_7*%
%TO.N,Net-(OLED1-RST)*%
X77500000Y-46450000D03*
%TD*%
D19*
%TO.N,Net-(U1-GPIO20)*%
X55379900Y-86176600D03*
%TO.N,Net-(U1-GPIO16)*%
X44468700Y-137597800D03*
%TO.N,Net-(U1-GPIO13)*%
X43026100Y-133611800D03*
%TO.N,Net-(U1-GPIO5)*%
X42065100Y-127682400D03*
%TO.N,Net-(U1-GPIO7{slash}SPI_~{CE1})*%
X64743600Y-124263700D03*
%TO.N,Net-(OLED1-CLK)*%
X73831900Y-128011800D03*
%TD*%
%TO.N,Net-(U1-GPIO20)*%
D20*
X61000000Y-152610000D02*
X62270000Y-153880000D01*
X61000000Y-145970000D02*
X61000000Y-152610000D01*
X60020000Y-144990000D02*
X61000000Y-145970000D01*
X59476400Y-144990000D02*
X60020000Y-144990000D01*
X55379900Y-140893500D02*
X59476400Y-144990000D01*
X55379900Y-86176600D02*
X55379900Y-140893500D01*
%TO.N,Net-(U1-GPIO16)*%
X44468700Y-70218700D02*
X44468700Y-137597800D01*
X43000000Y-68750000D02*
X44468700Y-70218700D01*
%TO.N,Net-(U1-GPIO13)*%
X43026100Y-99242800D02*
X43026100Y-133611800D01*
X36698300Y-92915000D02*
X43026100Y-99242800D01*
X36698300Y-71353400D02*
X36698300Y-92915000D01*
X38000000Y-70051700D02*
X36698300Y-71353400D01*
X38000000Y-68750000D02*
X38000000Y-70051700D01*
%TO.N,Net-(U1-GPIO12)*%
X56098300Y-44098300D02*
X43000000Y-31000000D01*
X56098300Y-139042100D02*
X56098300Y-44098300D01*
X59506200Y-142450000D02*
X56098300Y-139042100D01*
X60025900Y-142450000D02*
X59506200Y-142450000D01*
X60800000Y-143224100D02*
X60025900Y-142450000D01*
X60800000Y-144790000D02*
X60800000Y-143224100D01*
X62270000Y-146260000D02*
X60800000Y-144790000D01*
%TO.N,Net-(U1-GPIO6)*%
X50966100Y-137496100D02*
X59730000Y-146260000D01*
X50966100Y-53466100D02*
X50966100Y-137496100D01*
X43000000Y-45500000D02*
X50966100Y-53466100D01*
%TO.N,Net-(U1-GPIO5)*%
X38000000Y-45500000D02*
X38000000Y-46801700D01*
X36041400Y-121658700D02*
X42065100Y-127682400D01*
X36041400Y-102094800D02*
X36041400Y-121658700D01*
X36296600Y-101839600D02*
X36041400Y-102094800D01*
X36296600Y-48505100D02*
X36296600Y-101839600D01*
X38000000Y-46801700D02*
X36296600Y-48505100D01*
%TO.N,Net-(U1-GPIO7{slash}SPI_~{CE1})*%
X66827100Y-78617100D02*
X65500000Y-77290000D01*
X66827100Y-122180200D02*
X66827100Y-78617100D01*
X64743600Y-124263700D02*
X66827100Y-122180200D01*
%TO.N,Net-(OLED1-CS)*%
X75544900Y-122825100D02*
X62270000Y-136100000D01*
X75544900Y-97760400D02*
X75544900Y-122825100D01*
X78678300Y-94627000D02*
X75544900Y-97760400D01*
X78678300Y-42548300D02*
X78678300Y-94627000D01*
X77500000Y-41370000D02*
X78678300Y-42548300D01*
%TO.N,Net-(OLED1-CLK)*%
X75946600Y-125897100D02*
X73831900Y-128011800D01*
X75946600Y-103090100D02*
X75946600Y-125897100D01*
X76348300Y-102688400D02*
X75946600Y-103090100D01*
X76348300Y-97525000D02*
X76348300Y-102688400D01*
X78679900Y-95193400D02*
X76348300Y-97525000D01*
X78779900Y-95193400D02*
X78679900Y-95193400D01*
X79080100Y-94893200D02*
X78779900Y-95193400D01*
X79080100Y-40410100D02*
X79080100Y-94893200D01*
X77500000Y-38830000D02*
X79080100Y-40410100D01*
%TO.N,Net-(OLED1-RST)*%
X71852600Y-52097400D02*
X77500000Y-46450000D01*
X71852600Y-123977400D02*
X71852600Y-52097400D01*
X62270000Y-133560000D02*
X71852600Y-123977400D01*
%TO.N,Net-(U1-GPIO9{slash}SPI_MISO)*%
X58660400Y-132490400D02*
X59730000Y-133560000D01*
X58660400Y-128011300D02*
X58660400Y-132490400D01*
X59461700Y-127210000D02*
X58660400Y-128011300D01*
X59969300Y-127210000D02*
X59461700Y-127210000D01*
X61000000Y-126179300D02*
X59969300Y-127210000D01*
X61000000Y-125694200D02*
X61000000Y-126179300D01*
X62024200Y-124670000D02*
X61000000Y-125694200D01*
X62511700Y-124670000D02*
X62024200Y-124670000D01*
X65500000Y-121681700D02*
X62511700Y-124670000D01*
X65500000Y-91790000D02*
X65500000Y-121681700D01*
%TO.N,Net-(OLED1-MOSI)*%
X69903300Y-43886700D02*
X77500000Y-36290000D01*
X69903300Y-119954900D02*
X69903300Y-43886700D01*
X62648200Y-127210000D02*
X69903300Y-119954900D01*
X62043000Y-127210000D02*
X62648200Y-127210000D01*
X61167600Y-128085400D02*
X62043000Y-127210000D01*
X61167600Y-129582400D02*
X61167600Y-128085400D01*
X59730000Y-131020000D02*
X61167600Y-129582400D01*
%TO.N,Net-(OLED1-DC)*%
X71049200Y-50360800D02*
X77500000Y-43910000D01*
X71049200Y-119700800D02*
X71049200Y-50360800D01*
X62270000Y-128480000D02*
X71049200Y-119700800D01*
%TO.N,Net-(U1-GPIO27{slash}GPIO_GEN2)*%
X60500000Y-68750000D02*
X60500000Y-70051700D01*
X58263900Y-121933900D02*
X59730000Y-123400000D01*
X58263900Y-99570700D02*
X58263900Y-121933900D01*
X58796600Y-99038000D02*
X58263900Y-99570700D01*
X58796600Y-71755100D02*
X58796600Y-99038000D01*
X60500000Y-70051700D02*
X58796600Y-71755100D01*
%TO.N,Net-(U1-GPIO4{slash}GPIO_GCLK)*%
X59198300Y-75051700D02*
X65500000Y-68750000D01*
X59198300Y-99286900D02*
X59198300Y-75051700D01*
X58665600Y-99819600D02*
X59198300Y-99286900D01*
X58665600Y-114715600D02*
X58665600Y-99819600D01*
X59730000Y-115780000D02*
X58665600Y-114715600D01*
%TO.N,Net-(NeoKey1-SDA)*%
X76348300Y-104731700D02*
X77500000Y-103580000D01*
X76348300Y-115848300D02*
X76348300Y-104731700D01*
X77500000Y-117000000D02*
X76348300Y-115848300D01*
%TO.N,+5V*%
X77500000Y-145960000D02*
X77500000Y-144808300D01*
X77500000Y-125460000D02*
X77500000Y-126611700D01*
X77500000Y-111920000D02*
X77500000Y-113071700D01*
X78651700Y-126611700D02*
X77500000Y-126611700D01*
X78651700Y-143656600D02*
X78651700Y-126611700D01*
X77500000Y-144808300D02*
X78651700Y-143656600D01*
X77788000Y-113071700D02*
X77500000Y-113071700D01*
X78651700Y-113935400D02*
X77788000Y-113071700D01*
X78651700Y-126611700D02*
X78651700Y-113935400D01*
%TD*%
M02*
