%TF.GenerationSoftware,KiCad,Pcbnew,10.0.1*%
%TF.CreationDate,2026-05-03T00:17:08+02:00*%
%TF.ProjectId,cellSymphony,63656c6c-5379-46d7-9068-6f6e792e6b69,rev?*%
%TF.SameCoordinates,Original*%
%TF.FileFunction,Copper,L2,Bot*%
%TF.FilePolarity,Positive*%
%FSLAX46Y46*%
G04 Gerber Fmt 4.6, Leading zero omitted, Abs format (unit mm)*
G04 Created by KiCad (PCBNEW 10.0.1) date 2026-05-03 00:17:08*
%MOMM*%
%LPD*%
G01*
G04 APERTURE LIST*
%TA.AperFunction,ComponentPad*%
%ADD10R,1.508000X1.508000*%
%TD*%
%TA.AperFunction,ComponentPad*%
%ADD11C,1.508000*%
%TD*%
%TA.AperFunction,ComponentPad*%
%ADD12R,2.000000X2.000000*%
%TD*%
%TA.AperFunction,ComponentPad*%
%ADD13C,2.000000*%
%TD*%
%TA.AperFunction,ComponentPad*%
%ADD14R,2.000000X3.200000*%
%TD*%
%TA.AperFunction,ComponentPad*%
%ADD15R,1.700000X1.700000*%
%TD*%
%TA.AperFunction,ComponentPad*%
%ADD16C,1.700000*%
%TD*%
%TA.AperFunction,ViaPad*%
%ADD17C,0.600000*%
%TD*%
%TA.AperFunction,Conductor*%
%ADD18C,0.200000*%
%TD*%
G04 APERTURE END LIST*
D10*
%TO.P,U1,1,3V3_1_1*%
%TO.N,Net-(OLED1-VIN)*%
X59730000Y-108160000D03*
D11*
%TO.P,U1,2,5V_2_2*%
%TO.N,+5V*%
X62270000Y-108160000D03*
%TO.P,U1,3,GPIO2/SDA1_3*%
%TO.N,Net-(NeoKey1-SDA)*%
X59730000Y-110700000D03*
%TO.P,U1,4,5V_4_4*%
%TO.N,unconnected-(U1-5V_4-Pad4)*%
X62270000Y-110700000D03*
%TO.P,U1,5,GPIO3/SCL_5*%
%TO.N,Net-(NeoKey1-SCL)*%
X59730000Y-113240000D03*
%TO.P,U1,6,GND_6_6*%
%TO.N,GND*%
X62270000Y-113240000D03*
%TO.P,U1,7,GPIO4/GPIO_GCLK_7*%
%TO.N,Net-(U1-GPIO4{slash}GPIO_GCLK)*%
X59730000Y-115780000D03*
%TO.P,U1,8,GPIO14/TXD0_8*%
%TO.N,Net-(U1-GPIO14{slash}TXD0)*%
X62270000Y-115780000D03*
%TO.P,U1,9,GND_9_9*%
%TO.N,unconnected-(U1-GND_9-Pad9)*%
X59730000Y-118320000D03*
%TO.P,U1,10,GPIO15/RXD0_10*%
%TO.N,unconnected-(U1-GPIO15{slash}RXD0-Pad10)*%
X62270000Y-118320000D03*
%TO.P,U1,11,GPIO17/GPIO_GEN0_11*%
%TO.N,Net-(U1-GPIO17{slash}GPIO_GEN0)*%
X59730000Y-120860000D03*
%TO.P,U1,12,GPIO18/GPIO_GEN1_12*%
%TO.N,Net-(GY-PCM5102-BCK)*%
X62270000Y-120860000D03*
%TO.P,U1,13,GPIO27/GPIO_GEN2_13*%
%TO.N,Net-(U1-GPIO27{slash}GPIO_GEN2)*%
X59730000Y-123400000D03*
%TO.P,U1,14,GND_14_14*%
%TO.N,unconnected-(U1-GND_14-Pad14)*%
X62270000Y-123400000D03*
%TO.P,U1,15,GPIO22/GPIO_GEN3_15*%
%TO.N,Net-(U1-GPIO22{slash}GPIO_GEN3)*%
X59730000Y-125940000D03*
%TO.P,U1,16,GPIO23/GPIO_GEN4_16*%
%TO.N,Net-(U1-GPIO23{slash}GPIO_GEN4)*%
X62270000Y-125940000D03*
%TO.P,U1,17,3V3_17_17*%
%TO.N,unconnected-(U1-3V3_17-Pad17)*%
X59730000Y-128480000D03*
%TO.P,U1,18,GPIO24/GPIO_GEN5_18*%
%TO.N,Net-(OLED1-DC)*%
X62270000Y-128480000D03*
%TO.P,U1,19,GPIO10/SPI_MOSI_19*%
%TO.N,Net-(OLED1-MOSI)*%
X59730000Y-131020000D03*
%TO.P,U1,20,GND_20_20*%
%TO.N,unconnected-(U1-GND_20-Pad20)*%
X62270000Y-131020000D03*
%TO.P,U1,21,GPIO9/SPI_MISO_21*%
%TO.N,Net-(U1-GPIO9{slash}SPI_MISO)*%
X59730000Y-133560000D03*
%TO.P,U1,22,GPIO25/GPIO_GEN6_22*%
%TO.N,Net-(OLED1-RST)*%
X62270000Y-133560000D03*
%TO.P,U1,23,GPIO11/SPI_SCLK_23*%
%TO.N,Net-(OLED1-CLK)*%
X59730000Y-136100000D03*
%TO.P,U1,24,GPIO8/SPI_~{CE0}_24*%
%TO.N,Net-(OLED1-CS)*%
X62270000Y-136100000D03*
%TO.P,U1,25,GND_25_25*%
%TO.N,unconnected-(U1-GND_25-Pad25)*%
X59730000Y-138640000D03*
%TO.P,U1,26,GPIO7/SPI_~{CE1}_26*%
%TO.N,Net-(U1-GPIO7{slash}SPI_~{CE1})*%
X62270000Y-138640000D03*
%TO.P,U1,27,ID_SD_27*%
%TO.N,unconnected-(U1-ID_SD-Pad27)*%
X59730000Y-141180000D03*
%TO.P,U1,28,ID_SC_28*%
%TO.N,unconnected-(U1-ID_SC-Pad28)*%
X62270000Y-141180000D03*
%TO.P,U1,29,GPIO5_29*%
%TO.N,Net-(U1-GPIO5)*%
X59730000Y-143720000D03*
%TO.P,U1,30,GND_30_30*%
%TO.N,unconnected-(U1-GND_30-Pad30)*%
X62270000Y-143720000D03*
%TO.P,U1,31,GPIO6_31*%
%TO.N,Net-(U1-GPIO6)*%
X59730000Y-146260000D03*
%TO.P,U1,32,GPIO12_32*%
%TO.N,Net-(U1-GPIO12)*%
X62270000Y-146260000D03*
%TO.P,U1,33,GPIO13_33*%
%TO.N,Net-(U1-GPIO13)*%
X59730000Y-148800000D03*
%TO.P,U1,34,GND_34_34*%
%TO.N,unconnected-(U1-GND_34-Pad34)*%
X62270000Y-148800000D03*
%TO.P,U1,35,GPIO19_35*%
%TO.N,Net-(GY-PCM5102-LRCK)*%
X59730000Y-151340000D03*
%TO.P,U1,36,GPIO16_36*%
%TO.N,Net-(U1-GPIO16)*%
X62270000Y-151340000D03*
%TO.P,U1,37,GPIO26_37*%
%TO.N,Net-(U1-GPIO26)*%
X59730000Y-153880000D03*
%TO.P,U1,38,GPIO20_38*%
%TO.N,Net-(U1-GPIO20)*%
X62270000Y-153880000D03*
%TO.P,U1,39,GND_39_39*%
%TO.N,unconnected-(U1-GND_39-Pad39)*%
X59730000Y-156420000D03*
%TO.P,U1,40,GPIO21_40*%
%TO.N,Net-(GY-PCM5102-DIN)*%
X62270000Y-156420000D03*
%TD*%
D12*
%TO.P,SW2,A,A_A*%
%TO.N,Net-(U1-GPIO13)*%
X38000000Y-68750000D03*
D13*
%TO.P,SW2,B,B_B*%
%TO.N,Net-(U1-GPIO16)*%
X43000000Y-68750000D03*
%TO.P,SW2,C,C_C*%
%TO.N,GND*%
X40500000Y-68750000D03*
D14*
%TO.P,SW2,MP*%
%TO.N,N/C*%
X34900000Y-61250000D03*
X46100000Y-61250000D03*
D13*
%TO.P,SW2,S1,S1_S1*%
%TO.N,Net-(U1-GPIO17{slash}GPIO_GEN0)*%
X43000000Y-54250000D03*
%TO.P,SW2,S2,S2_S2*%
%TO.N,GND*%
X38000000Y-54250000D03*
%TD*%
D15*
%TO.P,ADA6250,1,VIN_1*%
%TO.N,+5V*%
X77500000Y-125460000D03*
D16*
%TO.P,ADA6250,2,GND_2*%
%TO.N,GND*%
X77500000Y-128000000D03*
%TO.P,ADA6250,3,BCK_3*%
%TO.N,Net-(GY-PCM5102-BCK)*%
X77500000Y-130540000D03*
%TO.P,ADA6250,4,LRCK_4*%
%TO.N,Net-(GY-PCM5102-LRCK)*%
X77500000Y-133080000D03*
%TO.P,ADA6250,5,DIN_5*%
%TO.N,Net-(GY-PCM5102-DIN)*%
X77500000Y-135620000D03*
%TO.P,ADA6250,6,FMT_6*%
%TO.N,unconnected-(GY-PCM5102-FMT-Pad6)*%
X77500000Y-138160000D03*
%TD*%
D15*
%TO.P,NeoKey,1,VIN_1*%
%TO.N,+5V*%
X77500000Y-98500000D03*
D16*
%TO.P,NeoKey,2,GND_2*%
%TO.N,GND*%
X77500000Y-101040000D03*
%TO.P,NeoKey,3,SDA_3*%
%TO.N,Net-(NeoKey1-SDA)*%
X77500000Y-103580000D03*
%TO.P,NeoKey,4,SCL_4*%
%TO.N,Net-(NeoKey1-SCL)*%
X77500000Y-106120000D03*
%TD*%
D15*
%TO.P,Neotrellis,1,VIN_1*%
%TO.N,+5V*%
X77500000Y-111920000D03*
D16*
%TO.P,Neotrellis,2,GND_2*%
%TO.N,GND*%
X77500000Y-114460000D03*
%TO.P,Neotrellis,3,SDA_3*%
%TO.N,Net-(NeoKey1-SDA)*%
X77500000Y-117000000D03*
%TO.P,Neotrellis,4,SCL_4*%
%TO.N,Net-(NeoKey1-SCL)*%
X77500000Y-119540000D03*
%TD*%
D15*
%TO.P,ADA4090,1,VBUS_1*%
%TO.N,+5V*%
X77500000Y-145960000D03*
D16*
%TO.P,ADA4090,2,GND_2*%
%TO.N,GND*%
X77500000Y-148500000D03*
%TO.P,ADA4090,3,CC1_3*%
%TO.N,unconnected-(USB-C_Breakout1-CC1-Pad3)*%
X77500000Y-151040000D03*
%TO.P,ADA4090,4,CC2_4*%
%TO.N,unconnected-(USB-C_Breakout1-CC2-Pad4)*%
X77500000Y-153580000D03*
%TD*%
D12*
%TO.P,SW4,A,A_A*%
%TO.N,Net-(U1-GPIO26)*%
X38000000Y-91790000D03*
D13*
%TO.P,SW4,B,B_B*%
%TO.N,Net-(U1-GPIO23{slash}GPIO_GEN4)*%
X43000000Y-91790000D03*
%TO.P,SW4,C,C_C*%
%TO.N,GND*%
X40500000Y-91790000D03*
D14*
%TO.P,SW4,MP*%
%TO.N,N/C*%
X34900000Y-84290000D03*
X46100000Y-84290000D03*
D13*
%TO.P,SW4,S1,S1_S1*%
%TO.N,Net-(U1-GPIO22{slash}GPIO_GEN3)*%
X43000000Y-77290000D03*
%TO.P,SW4,S2,S2_S2*%
%TO.N,GND*%
X38000000Y-77290000D03*
%TD*%
D12*
%TO.P,SW3,A,A_A*%
%TO.N,Net-(U1-GPIO27{slash}GPIO_GEN2)*%
X60500000Y-68750000D03*
D13*
%TO.P,SW3,B,B_B*%
%TO.N,Net-(U1-GPIO4{slash}GPIO_GCLK)*%
X65500000Y-68750000D03*
%TO.P,SW3,C,C_C*%
%TO.N,GND*%
X63000000Y-68750000D03*
D14*
%TO.P,SW3,MP*%
%TO.N,N/C*%
X57400000Y-61250000D03*
X68600000Y-61250000D03*
D13*
%TO.P,SW3,S1,S1_S1*%
%TO.N,Net-(U1-GPIO20)*%
X65500000Y-54250000D03*
%TO.P,SW3,S2,S2_S2*%
%TO.N,GND*%
X60500000Y-54250000D03*
%TD*%
D12*
%TO.P,SW5,A,A_A*%
%TO.N,Net-(U1-GPIO14{slash}TXD0)*%
X60500000Y-91790000D03*
D13*
%TO.P,SW5,B,B_B*%
%TO.N,Net-(U1-GPIO9{slash}SPI_MISO)*%
X65500000Y-91790000D03*
%TO.P,SW5,C,C_C*%
%TO.N,GND*%
X63000000Y-91790000D03*
D14*
%TO.P,SW5,MP*%
%TO.N,N/C*%
X57400000Y-84290000D03*
X68600000Y-84290000D03*
D13*
%TO.P,SW5,S1,S1_S1*%
%TO.N,Net-(U1-GPIO7{slash}SPI_~{CE1})*%
X65500000Y-77290000D03*
%TO.P,SW5,S2,S2_S2*%
%TO.N,GND*%
X60500000Y-77290000D03*
%TD*%
D12*
%TO.P,SW1,A,A_A*%
%TO.N,Net-(U1-GPIO5)*%
X38000000Y-45500000D03*
D13*
%TO.P,SW1,B,B_B*%
%TO.N,Net-(U1-GPIO6)*%
X43000000Y-45500000D03*
%TO.P,SW1,C,C_C*%
%TO.N,GND*%
X40500000Y-45500000D03*
D14*
%TO.P,SW1,MP*%
%TO.N,N/C*%
X34900000Y-38000000D03*
X46100000Y-38000000D03*
D13*
%TO.P,SW1,S1,S1_S1*%
%TO.N,Net-(U1-GPIO12)*%
X43000000Y-31000000D03*
%TO.P,SW1,S2,S2_S2*%
%TO.N,GND*%
X38000000Y-31000000D03*
%TD*%
D15*
%TO.P,OLED,1,VIN_1*%
%TO.N,Net-(OLED1-VIN)*%
X77500000Y-31210000D03*
D16*
%TO.P,OLED,2,GND_2*%
%TO.N,GND*%
X77500000Y-33750000D03*
%TO.P,OLED,3,MOSI_3*%
%TO.N,Net-(OLED1-MOSI)*%
X77500000Y-36290000D03*
%TO.P,OLED,4,CLK_4*%
%TO.N,Net-(OLED1-CLK)*%
X77500000Y-38830000D03*
%TO.P,OLED,5,CS_5*%
%TO.N,Net-(OLED1-CS)*%
X77500000Y-41370000D03*
%TO.P,OLED,6,DC_6*%
%TO.N,Net-(OLED1-DC)*%
X77500000Y-43910000D03*
%TO.P,OLED,7,RST_7*%
%TO.N,Net-(OLED1-RST)*%
X77500000Y-46450000D03*
%TD*%
D17*
%TO.N,Net-(U1-GPIO20)*%
X55379900Y-86176600D03*
%TO.N,Net-(U1-GPIO16)*%
X44468700Y-137597800D03*
%TO.N,Net-(U1-GPIO13)*%
X43026100Y-133611800D03*
%TO.N,Net-(U1-GPIO5)*%
X42065100Y-127682400D03*
%TO.N,Net-(U1-GPIO7{slash}SPI_~{CE1})*%
X64743600Y-124263700D03*
%TO.N,Net-(OLED1-CLK)*%
X73831900Y-128011800D03*
%TD*%
%TO.N,Net-(GY-PCM5102-DIN)*%
D18*
X63757300Y-149362700D02*
X77500000Y-135620000D01*
X63757300Y-154932700D02*
X63757300Y-149362700D01*
X62270000Y-156420000D02*
X63757300Y-154932700D01*
%TO.N,Net-(U1-GPIO20)*%
X55380000Y-86176600D02*
X55379900Y-86176600D01*
X55380000Y-81185600D02*
X55380000Y-86176600D01*
X59198300Y-77367300D02*
X55380000Y-81185600D01*
X59198300Y-60551700D02*
X59198300Y-77367300D01*
X65500000Y-54250000D02*
X59198300Y-60551700D01*
%TO.N,Net-(U1-GPIO26)*%
X41207200Y-135357200D02*
X59730000Y-153880000D01*
X41207200Y-96298900D02*
X41207200Y-135357200D01*
X38000000Y-93091700D02*
X41207200Y-96298900D01*
X38000000Y-91790000D02*
X38000000Y-93091700D01*
%TO.N,Net-(U1-GPIO16)*%
X61158800Y-152451200D02*
X62270000Y-151340000D01*
X59322100Y-152451200D02*
X61158800Y-152451200D01*
X44468700Y-137597800D02*
X59322100Y-152451200D01*
%TO.N,Net-(GY-PCM5102-LRCK)*%
X61000000Y-150070000D02*
X59730000Y-151340000D01*
X62494700Y-150070000D02*
X61000000Y-150070000D01*
X63355600Y-149209100D02*
X62494700Y-150070000D01*
X63355600Y-147224400D02*
X63355600Y-149209100D01*
X77500000Y-133080000D02*
X63355600Y-147224400D01*
%TO.N,Net-(U1-GPIO13)*%
X44541800Y-133611800D02*
X59730000Y-148800000D01*
X43026100Y-133611800D02*
X44541800Y-133611800D01*
%TO.N,Net-(U1-GPIO5)*%
X58102700Y-143720000D02*
X59730000Y-143720000D01*
X42065100Y-127682400D02*
X58102700Y-143720000D01*
%TO.N,Net-(U1-GPIO7{slash}SPI_~{CE1})*%
X64743600Y-130043300D02*
X64743600Y-124263700D01*
X62496900Y-132290000D02*
X64743600Y-130043300D01*
X59438100Y-132290000D02*
X62496900Y-132290000D01*
X58653600Y-133074500D02*
X59438100Y-132290000D01*
X58653600Y-136604700D02*
X58653600Y-133074500D01*
X59418900Y-137370000D02*
X58653600Y-136604700D01*
X61000000Y-137370000D02*
X59418900Y-137370000D01*
X62270000Y-138640000D02*
X61000000Y-137370000D01*
%TO.N,Net-(OLED1-CLK)*%
X61000000Y-134830000D02*
X59730000Y-136100000D01*
X67013700Y-134830000D02*
X61000000Y-134830000D01*
X73831900Y-128011800D02*
X67013700Y-134830000D01*
%TO.N,Net-(U1-GPIO23{slash}GPIO_GEN4)*%
X43000000Y-110705900D02*
X43000000Y-91790000D01*
X59349500Y-127055400D02*
X43000000Y-110705900D01*
X61154600Y-127055400D02*
X59349500Y-127055400D01*
X62270000Y-125940000D02*
X61154600Y-127055400D01*
%TO.N,Net-(U1-GPIO22{slash}GPIO_GEN3)*%
X57637800Y-123847800D02*
X59730000Y-125940000D01*
X57637800Y-91927800D02*
X57637800Y-123847800D01*
X43000000Y-77290000D02*
X57637800Y-91927800D01*
%TO.N,Net-(GY-PCM5102-BCK)*%
X67820000Y-120860000D02*
X62270000Y-120860000D01*
X77500000Y-130540000D02*
X67820000Y-120860000D01*
%TO.N,Net-(U1-GPIO17{slash}GPIO_GEN0)*%
X58244200Y-119374200D02*
X59730000Y-120860000D01*
X58244200Y-90227800D02*
X58244200Y-119374200D01*
X53891900Y-85875500D02*
X58244200Y-90227800D01*
X53891900Y-65141900D02*
X53891900Y-85875500D01*
X43000000Y-54250000D02*
X53891900Y-65141900D01*
%TO.N,Net-(U1-GPIO14{slash}TXD0)*%
X60500000Y-91790000D02*
X60500000Y-93091700D01*
X58674300Y-94917400D02*
X60500000Y-93091700D01*
X58674300Y-113681400D02*
X58674300Y-94917400D01*
X59361300Y-114368400D02*
X58674300Y-113681400D01*
X60173700Y-114368400D02*
X59361300Y-114368400D01*
X61585300Y-115780000D02*
X60173700Y-114368400D01*
X62270000Y-115780000D02*
X61585300Y-115780000D01*
%TO.N,Net-(NeoKey1-SCL)*%
X60975200Y-114485200D02*
X59730000Y-113240000D01*
X69355400Y-114485200D02*
X60975200Y-114485200D01*
X70522400Y-115652200D02*
X69355400Y-114485200D01*
X78651700Y-115652200D02*
X70522400Y-115652200D01*
X78651700Y-118388300D02*
X78651700Y-115652200D01*
X77500000Y-119540000D02*
X78651700Y-118388300D01*
X78651700Y-107271700D02*
X77500000Y-106120000D01*
X78651700Y-115652200D02*
X78651700Y-107271700D01*
%TO.N,Net-(NeoKey1-SDA)*%
X60858500Y-109571500D02*
X59730000Y-110700000D01*
X60858500Y-108078500D02*
X60858500Y-109571500D01*
X65357000Y-103580000D02*
X60858500Y-108078500D01*
X77500000Y-103580000D02*
X65357000Y-103580000D01*
%TO.N,+5V*%
X77500000Y-111920000D02*
X76348300Y-111920000D01*
X62495700Y-108385700D02*
X62270000Y-108160000D01*
X73587600Y-108385700D02*
X62495700Y-108385700D01*
X77123300Y-104850000D02*
X73587600Y-108385700D01*
X77909500Y-104850000D02*
X77123300Y-104850000D01*
X78704500Y-104055000D02*
X77909500Y-104850000D01*
X78704500Y-100568300D02*
X78704500Y-104055000D01*
X77787900Y-99651700D02*
X78704500Y-100568300D01*
X77500000Y-99651700D02*
X77787900Y-99651700D01*
X73587600Y-109159300D02*
X76348300Y-111920000D01*
X73587600Y-108385700D02*
X73587600Y-109159300D01*
X77500000Y-98500000D02*
X77500000Y-99651700D01*
%TO.N,Net-(OLED1-VIN)*%
X77500000Y-31210000D02*
X77500000Y-32361700D01*
X59730000Y-108160000D02*
X59730000Y-107104300D01*
X59932200Y-107104300D02*
X59730000Y-107104300D01*
X66849200Y-100187300D02*
X59932200Y-107104300D01*
X66849200Y-42724600D02*
X66849200Y-100187300D01*
X77212100Y-32361700D02*
X66849200Y-42724600D01*
X77500000Y-32361700D02*
X77212100Y-32361700D01*
%TD*%
%TA.AperFunction,Conductor*%
%TO.N,GND*%
G36*
X72930138Y-109005885D02*
G01*
X72975893Y-109058689D01*
X72987099Y-109110200D01*
X72987099Y-109238354D01*
X72987098Y-109238354D01*
X73028023Y-109391086D01*
X73041540Y-109414496D01*
X73041541Y-109414501D01*
X73041542Y-109414501D01*
X73107075Y-109528009D01*
X73107081Y-109528017D01*
X73225949Y-109646885D01*
X73225955Y-109646890D01*
X75863439Y-112284374D01*
X75863449Y-112284385D01*
X75867779Y-112288715D01*
X75867780Y-112288716D01*
X75979584Y-112400520D01*
X75979586Y-112400521D01*
X75979590Y-112400524D01*
X76087499Y-112462825D01*
X76135715Y-112513391D01*
X76149500Y-112570212D01*
X76149500Y-112817869D01*
X76149501Y-112817876D01*
X76155908Y-112877483D01*
X76206202Y-113012328D01*
X76206206Y-113012335D01*
X76292452Y-113127544D01*
X76292455Y-113127547D01*
X76407664Y-113213793D01*
X76407671Y-113213797D01*
X76542517Y-113264091D01*
X76542516Y-113264091D01*
X76549444Y-113264835D01*
X76602127Y-113270500D01*
X77927200Y-113270499D01*
X77994239Y-113290184D01*
X78039994Y-113342987D01*
X78051200Y-113394499D01*
X78051200Y-114927700D01*
X78031515Y-114994739D01*
X77978711Y-115040494D01*
X77927200Y-115051700D01*
X70822497Y-115051700D01*
X70755458Y-115032015D01*
X70734816Y-115015381D01*
X69842990Y-114123555D01*
X69842988Y-114123552D01*
X69724117Y-114004681D01*
X69724116Y-114004680D01*
X69637304Y-113954560D01*
X69637304Y-113954559D01*
X69637300Y-113954558D01*
X69587185Y-113925623D01*
X69434457Y-113884699D01*
X69276343Y-113884699D01*
X69268747Y-113884699D01*
X69268731Y-113884700D01*
X61275298Y-113884700D01*
X61208259Y-113865015D01*
X61187617Y-113848381D01*
X60987107Y-113647871D01*
X60953622Y-113586548D01*
X60954140Y-113538779D01*
X60952848Y-113538575D01*
X60984500Y-113338736D01*
X60984500Y-113141263D01*
X60953610Y-112946236D01*
X60911901Y-112817869D01*
X60892591Y-112758439D01*
X60802944Y-112582499D01*
X60794017Y-112570212D01*
X60686884Y-112422753D01*
X60547246Y-112283115D01*
X60387505Y-112167058D01*
X60381119Y-112163804D01*
X60217593Y-112080482D01*
X60166800Y-112032510D01*
X60150005Y-111964689D01*
X60172542Y-111898554D01*
X60217593Y-111859517D01*
X60387501Y-111772944D01*
X60407912Y-111758114D01*
X60547246Y-111656884D01*
X60547248Y-111656881D01*
X60547252Y-111656879D01*
X60686879Y-111517252D01*
X60686881Y-111517248D01*
X60686884Y-111517246D01*
X60802941Y-111357505D01*
X60802942Y-111357504D01*
X60802944Y-111357501D01*
X60889517Y-111187593D01*
X60937490Y-111136800D01*
X61005311Y-111120005D01*
X61071446Y-111142542D01*
X61110482Y-111187593D01*
X61193804Y-111351119D01*
X61197058Y-111357505D01*
X61313115Y-111517246D01*
X61452753Y-111656884D01*
X61602234Y-111765486D01*
X61612499Y-111772944D01*
X61788439Y-111862591D01*
X61899122Y-111898554D01*
X61976236Y-111923610D01*
X62171264Y-111954500D01*
X62171269Y-111954500D01*
X62368736Y-111954500D01*
X62563763Y-111923610D01*
X62751561Y-111862591D01*
X62927501Y-111772944D01*
X63017192Y-111707779D01*
X63087246Y-111656884D01*
X63087248Y-111656881D01*
X63087252Y-111656879D01*
X63226879Y-111517252D01*
X63226881Y-111517248D01*
X63226884Y-111517246D01*
X63277779Y-111447192D01*
X63342944Y-111357501D01*
X63432591Y-111181561D01*
X63493610Y-110993763D01*
X63499282Y-110957952D01*
X63524500Y-110798736D01*
X63524500Y-110601263D01*
X63493610Y-110406236D01*
X63473270Y-110343637D01*
X63432591Y-110218439D01*
X63342944Y-110042499D01*
X63335486Y-110032234D01*
X63226884Y-109882753D01*
X63087246Y-109743115D01*
X62927505Y-109627058D01*
X62921119Y-109623804D01*
X62757593Y-109540482D01*
X62706800Y-109492510D01*
X62690005Y-109424689D01*
X62712542Y-109358554D01*
X62757593Y-109319517D01*
X62927501Y-109232944D01*
X62947912Y-109218114D01*
X63087246Y-109116884D01*
X63087248Y-109116881D01*
X63087252Y-109116879D01*
X63181612Y-109022519D01*
X63242935Y-108989034D01*
X63269293Y-108986200D01*
X72863099Y-108986200D01*
X72930138Y-109005885D01*
G37*
%TD.AperFunction*%
%TA.AperFunction,Conductor*%
G36*
X66209185Y-55663843D02*
G01*
X66244845Y-55723928D01*
X66248700Y-55754608D01*
X66248700Y-67245390D01*
X66229015Y-67312429D01*
X66176211Y-67358184D01*
X66107053Y-67368128D01*
X66080642Y-67360885D01*
X66080625Y-67360938D01*
X66079492Y-67360570D01*
X66077268Y-67359960D01*
X66076001Y-67359435D01*
X65851368Y-67286446D01*
X65618097Y-67249500D01*
X65618092Y-67249500D01*
X65381908Y-67249500D01*
X65381903Y-67249500D01*
X65148631Y-67286446D01*
X64924003Y-67359433D01*
X64713566Y-67466657D01*
X64657119Y-67507669D01*
X64522490Y-67605483D01*
X64522488Y-67605485D01*
X64522487Y-67605485D01*
X64355485Y-67772487D01*
X64355485Y-67772488D01*
X64355483Y-67772490D01*
X64295862Y-67854550D01*
X64216657Y-67963566D01*
X64109433Y-68174003D01*
X64036446Y-68398631D01*
X63999500Y-68631902D01*
X63999500Y-68868097D01*
X64036446Y-69101368D01*
X64109433Y-69325996D01*
X64216657Y-69536433D01*
X64355483Y-69727510D01*
X64522490Y-69894517D01*
X64713567Y-70033343D01*
X64812991Y-70084002D01*
X64924003Y-70140566D01*
X64924005Y-70140566D01*
X64924008Y-70140568D01*
X64995641Y-70163843D01*
X65148631Y-70213553D01*
X65381903Y-70250500D01*
X65381908Y-70250500D01*
X65618097Y-70250500D01*
X65851368Y-70213553D01*
X66075992Y-70140568D01*
X66076010Y-70140558D01*
X66077234Y-70140052D01*
X66077748Y-70139996D01*
X66080625Y-70139062D01*
X66080821Y-70139665D01*
X66146702Y-70132576D01*
X66209185Y-70163843D01*
X66244845Y-70223928D01*
X66248700Y-70254608D01*
X66248700Y-75785390D01*
X66229015Y-75852429D01*
X66176211Y-75898184D01*
X66107053Y-75908128D01*
X66080642Y-75900885D01*
X66080625Y-75900938D01*
X66079492Y-75900570D01*
X66077268Y-75899960D01*
X66076001Y-75899435D01*
X65851368Y-75826446D01*
X65618097Y-75789500D01*
X65618092Y-75789500D01*
X65381908Y-75789500D01*
X65381903Y-75789500D01*
X65148631Y-75826446D01*
X64924003Y-75899433D01*
X64713566Y-76006657D01*
X64604550Y-76085862D01*
X64522490Y-76145483D01*
X64522488Y-76145485D01*
X64522487Y-76145485D01*
X64355485Y-76312487D01*
X64355485Y-76312488D01*
X64355483Y-76312490D01*
X64295862Y-76394550D01*
X64216657Y-76503566D01*
X64109433Y-76714003D01*
X64036446Y-76938631D01*
X63999500Y-77171902D01*
X63999500Y-77408097D01*
X64036446Y-77641368D01*
X64109433Y-77865996D01*
X64216657Y-78076433D01*
X64355483Y-78267510D01*
X64522490Y-78434517D01*
X64713567Y-78573343D01*
X64812991Y-78624002D01*
X64924003Y-78680566D01*
X64924005Y-78680566D01*
X64924008Y-78680568D01*
X64995641Y-78703843D01*
X65148631Y-78753553D01*
X65381903Y-78790500D01*
X65381908Y-78790500D01*
X65618097Y-78790500D01*
X65851368Y-78753553D01*
X65884468Y-78742798D01*
X66075992Y-78680568D01*
X66076010Y-78680558D01*
X66077234Y-78680052D01*
X66077748Y-78679996D01*
X66080625Y-78679062D01*
X66080821Y-78679665D01*
X66146702Y-78672576D01*
X66209185Y-78703843D01*
X66244845Y-78763928D01*
X66248700Y-78794608D01*
X66248700Y-90285390D01*
X66229015Y-90352429D01*
X66176211Y-90398184D01*
X66107053Y-90408128D01*
X66080642Y-90400885D01*
X66080625Y-90400938D01*
X66079492Y-90400570D01*
X66077268Y-90399960D01*
X66076001Y-90399435D01*
X65851368Y-90326446D01*
X65618097Y-90289500D01*
X65618092Y-90289500D01*
X65381908Y-90289500D01*
X65381903Y-90289500D01*
X65148631Y-90326446D01*
X64924003Y-90399433D01*
X64713566Y-90506657D01*
X64604550Y-90585862D01*
X64522490Y-90645483D01*
X64522488Y-90645485D01*
X64522487Y-90645485D01*
X64355485Y-90812487D01*
X64355485Y-90812488D01*
X64355483Y-90812490D01*
X64326674Y-90852142D01*
X64216657Y-91003566D01*
X64109433Y-91214003D01*
X64036446Y-91438631D01*
X63999500Y-91671902D01*
X63999500Y-91908097D01*
X64036446Y-92141368D01*
X64109433Y-92365996D01*
X64216657Y-92576433D01*
X64355483Y-92767510D01*
X64522490Y-92934517D01*
X64713567Y-93073343D01*
X64809759Y-93122355D01*
X64924003Y-93180566D01*
X64924005Y-93180566D01*
X64924008Y-93180568D01*
X64995641Y-93203843D01*
X65148631Y-93253553D01*
X65381903Y-93290500D01*
X65381908Y-93290500D01*
X65618097Y-93290500D01*
X65851368Y-93253553D01*
X65857785Y-93251468D01*
X66075992Y-93180568D01*
X66076010Y-93180558D01*
X66077234Y-93180052D01*
X66077748Y-93179996D01*
X66080625Y-93179062D01*
X66080821Y-93179665D01*
X66146702Y-93172576D01*
X66209185Y-93203843D01*
X66244845Y-93263928D01*
X66248700Y-93294608D01*
X66248700Y-99887202D01*
X66229015Y-99954241D01*
X66212381Y-99974883D01*
X62837181Y-103350083D01*
X62775858Y-103383568D01*
X62706166Y-103378584D01*
X62650233Y-103336712D01*
X62625816Y-103271248D01*
X62625500Y-103262402D01*
X62625500Y-103162070D01*
X62585474Y-102909361D01*
X62518363Y-102702812D01*
X62506411Y-102666027D01*
X62506410Y-102666024D01*
X62447236Y-102549890D01*
X62390252Y-102438053D01*
X62310616Y-102328443D01*
X62239867Y-102231064D01*
X62239863Y-102231059D01*
X62058940Y-102050136D01*
X62058935Y-102050132D01*
X61851950Y-101899750D01*
X61851949Y-101899749D01*
X61851947Y-101899748D01*
X61778910Y-101862533D01*
X61623975Y-101783589D01*
X61623972Y-101783588D01*
X61380640Y-101704526D01*
X61254284Y-101684513D01*
X61127930Y-101664500D01*
X60872070Y-101664500D01*
X60787833Y-101677842D01*
X60619359Y-101704526D01*
X60376027Y-101783588D01*
X60376024Y-101783589D01*
X60148049Y-101899750D01*
X59941064Y-102050132D01*
X59941059Y-102050136D01*
X59760136Y-102231059D01*
X59760132Y-102231064D01*
X59609750Y-102438049D01*
X59509285Y-102635221D01*
X59461310Y-102686017D01*
X59393489Y-102702812D01*
X59327354Y-102680274D01*
X59283903Y-102625559D01*
X59274800Y-102578926D01*
X59274800Y-95217497D01*
X59294485Y-95150458D01*
X59311119Y-95129816D01*
X60980520Y-93460416D01*
X61042825Y-93352498D01*
X61093391Y-93304284D01*
X61150212Y-93290499D01*
X61547871Y-93290499D01*
X61547872Y-93290499D01*
X61607483Y-93284091D01*
X61742331Y-93233796D01*
X61857546Y-93147546D01*
X61943796Y-93032331D01*
X61994091Y-92897483D01*
X62000500Y-92837873D01*
X62000499Y-90742128D01*
X61994091Y-90682517D01*
X61980278Y-90645483D01*
X61943797Y-90547671D01*
X61943793Y-90547664D01*
X61857547Y-90432455D01*
X61857544Y-90432452D01*
X61742335Y-90346206D01*
X61742328Y-90346202D01*
X61607482Y-90295908D01*
X61607483Y-90295908D01*
X61547883Y-90289501D01*
X61547881Y-90289500D01*
X61547873Y-90289500D01*
X61547864Y-90289500D01*
X59452129Y-90289500D01*
X59452123Y-90289501D01*
X59392516Y-90295908D01*
X59257671Y-90346202D01*
X59257664Y-90346206D01*
X59142455Y-90432452D01*
X59067966Y-90531956D01*
X59043395Y-90550348D01*
X59020211Y-90570438D01*
X59015689Y-90571088D01*
X59012032Y-90573826D01*
X58981425Y-90576014D01*
X58951053Y-90580382D01*
X58946897Y-90578484D01*
X58942340Y-90578810D01*
X58915410Y-90564104D01*
X58887497Y-90551357D01*
X58885026Y-90547512D01*
X58881018Y-90545324D01*
X58866314Y-90518395D01*
X58849723Y-90492579D01*
X58848831Y-90486377D01*
X58847533Y-90484000D01*
X58844700Y-90457644D01*
X58844700Y-90316860D01*
X58844701Y-90316847D01*
X58844701Y-90148744D01*
X58803776Y-89996014D01*
X58803773Y-89996009D01*
X58724724Y-89859090D01*
X58724718Y-89859082D01*
X55861453Y-86995817D01*
X55827968Y-86934494D01*
X55832952Y-86864802D01*
X55874824Y-86808869D01*
X55880238Y-86805037D01*
X55890189Y-86798389D01*
X56001689Y-86686889D01*
X56089294Y-86555779D01*
X56132300Y-86451950D01*
X56176139Y-86397551D01*
X56242433Y-86375485D01*
X56284945Y-86382375D01*
X56284962Y-86382306D01*
X56285931Y-86382534D01*
X56290200Y-86383226D01*
X56292517Y-86384091D01*
X56352127Y-86390500D01*
X58447872Y-86390499D01*
X58507483Y-86384091D01*
X58642331Y-86333796D01*
X58757546Y-86247546D01*
X58843796Y-86132331D01*
X58894091Y-85997483D01*
X58900500Y-85937873D01*
X58900499Y-82642128D01*
X58894091Y-82582517D01*
X58843796Y-82447669D01*
X58843795Y-82447668D01*
X58843793Y-82447664D01*
X58757547Y-82332455D01*
X58757544Y-82332452D01*
X58642335Y-82246206D01*
X58642328Y-82246202D01*
X58507482Y-82195908D01*
X58507483Y-82195908D01*
X58447883Y-82189501D01*
X58447881Y-82189500D01*
X58447873Y-82189500D01*
X58447864Y-82189500D01*
X56352129Y-82189500D01*
X56352123Y-82189501D01*
X56292516Y-82195908D01*
X56149359Y-82249303D01*
X56148204Y-82246208D01*
X56095638Y-82257637D01*
X56030177Y-82233211D01*
X55988313Y-82177272D01*
X55980500Y-82133954D01*
X55980500Y-81485697D01*
X56000185Y-81418658D01*
X56016819Y-81398016D01*
X56709757Y-80705078D01*
X59678820Y-77736016D01*
X59757877Y-77599084D01*
X59798801Y-77446357D01*
X59798801Y-77288242D01*
X59798801Y-77280647D01*
X59798800Y-77280629D01*
X59798800Y-70374499D01*
X59818485Y-70307460D01*
X59871289Y-70261705D01*
X59922800Y-70250499D01*
X61547871Y-70250499D01*
X61547872Y-70250499D01*
X61607483Y-70244091D01*
X61742331Y-70193796D01*
X61857546Y-70107546D01*
X61943796Y-69992331D01*
X61994091Y-69857483D01*
X62000500Y-69797873D01*
X62000499Y-67702128D01*
X61994091Y-67642517D01*
X61980278Y-67605483D01*
X61943797Y-67507671D01*
X61943793Y-67507664D01*
X61857547Y-67392455D01*
X61857544Y-67392452D01*
X61742335Y-67306206D01*
X61742328Y-67306202D01*
X61607482Y-67255908D01*
X61607483Y-67255908D01*
X61547883Y-67249501D01*
X61547881Y-67249500D01*
X61547873Y-67249500D01*
X61547865Y-67249500D01*
X59922800Y-67249500D01*
X59855761Y-67229815D01*
X59810006Y-67177011D01*
X59798800Y-67125500D01*
X59798800Y-60851796D01*
X59818485Y-60784757D01*
X59835114Y-60764120D01*
X64896437Y-55702796D01*
X64957758Y-55669313D01*
X65022433Y-55672547D01*
X65148632Y-55713553D01*
X65214138Y-55723928D01*
X65381903Y-55750500D01*
X65381908Y-55750500D01*
X65618097Y-55750500D01*
X65851368Y-55713553D01*
X65884468Y-55702798D01*
X66075992Y-55640568D01*
X66076010Y-55640558D01*
X66077234Y-55640052D01*
X66077748Y-55639996D01*
X66080625Y-55639062D01*
X66080821Y-55639665D01*
X66146702Y-55632576D01*
X66209185Y-55663843D01*
G37*
%TD.AperFunction*%
%TA.AperFunction,Conductor*%
G36*
X83949246Y-26022984D02*
G01*
X83995001Y-26075788D01*
X84006207Y-26127299D01*
X84006207Y-175875500D01*
X83986522Y-175942539D01*
X83933718Y-175988294D01*
X83882207Y-175999500D01*
X28624500Y-175999500D01*
X28557461Y-175979815D01*
X28511706Y-175927011D01*
X28500500Y-175875500D01*
X28500500Y-161162070D01*
X36374500Y-161162070D01*
X36374500Y-161417929D01*
X36414526Y-161670640D01*
X36493588Y-161913972D01*
X36493589Y-161913975D01*
X36609750Y-162141950D01*
X36760132Y-162348935D01*
X36760136Y-162348940D01*
X36941059Y-162529863D01*
X36941064Y-162529867D01*
X37121607Y-162661038D01*
X37148053Y-162680252D01*
X37297080Y-162756185D01*
X37376024Y-162796410D01*
X37376027Y-162796411D01*
X37497693Y-162835942D01*
X37619361Y-162875474D01*
X37872070Y-162915500D01*
X37872071Y-162915500D01*
X38127929Y-162915500D01*
X38127930Y-162915500D01*
X38380639Y-162875474D01*
X38623975Y-162796410D01*
X38851947Y-162680252D01*
X39058942Y-162529862D01*
X39239862Y-162348942D01*
X39390252Y-162141947D01*
X39506410Y-161913975D01*
X39585474Y-161670639D01*
X39625500Y-161417930D01*
X39625500Y-161162070D01*
X59374500Y-161162070D01*
X59374500Y-161417929D01*
X59414526Y-161670640D01*
X59493588Y-161913972D01*
X59493589Y-161913975D01*
X59609750Y-162141950D01*
X59760132Y-162348935D01*
X59760136Y-162348940D01*
X59941059Y-162529863D01*
X59941064Y-162529867D01*
X60121607Y-162661038D01*
X60148053Y-162680252D01*
X60297080Y-162756185D01*
X60376024Y-162796410D01*
X60376027Y-162796411D01*
X60497693Y-162835942D01*
X60619361Y-162875474D01*
X60872070Y-162915500D01*
X60872071Y-162915500D01*
X61127929Y-162915500D01*
X61127930Y-162915500D01*
X61380639Y-162875474D01*
X61623975Y-162796410D01*
X61851947Y-162680252D01*
X62058942Y-162529862D01*
X62239862Y-162348942D01*
X62390252Y-162141947D01*
X62506410Y-161913975D01*
X62585474Y-161670639D01*
X62625500Y-161417930D01*
X62625500Y-161162070D01*
X62585474Y-160909361D01*
X62506410Y-160666025D01*
X62506410Y-160666024D01*
X62466185Y-160587080D01*
X62390252Y-160438053D01*
X62371038Y-160411607D01*
X62239867Y-160231064D01*
X62239863Y-160231059D01*
X62058940Y-160050136D01*
X62058935Y-160050132D01*
X61851950Y-159899750D01*
X61851949Y-159899749D01*
X61851947Y-159899748D01*
X61778910Y-159862533D01*
X61623975Y-159783589D01*
X61623972Y-159783588D01*
X61380640Y-159704526D01*
X61254284Y-159684513D01*
X61127930Y-159664500D01*
X60872070Y-159664500D01*
X60787833Y-159677842D01*
X60619359Y-159704526D01*
X60376027Y-159783588D01*
X60376024Y-159783589D01*
X60148049Y-159899750D01*
X59941064Y-160050132D01*
X59941059Y-160050136D01*
X59760136Y-160231059D01*
X59760132Y-160231064D01*
X59609750Y-160438049D01*
X59493589Y-160666024D01*
X59493588Y-160666027D01*
X59414526Y-160909359D01*
X59374500Y-161162070D01*
X39625500Y-161162070D01*
X39585474Y-160909361D01*
X39506410Y-160666025D01*
X39506410Y-160666024D01*
X39466185Y-160587080D01*
X39390252Y-160438053D01*
X39371038Y-160411607D01*
X39239867Y-160231064D01*
X39239863Y-160231059D01*
X39058940Y-160050136D01*
X39058935Y-160050132D01*
X38851950Y-159899750D01*
X38851949Y-159899749D01*
X38851947Y-159899748D01*
X38778910Y-159862533D01*
X38623975Y-159783589D01*
X38623972Y-159783588D01*
X38380640Y-159704526D01*
X38254284Y-159684513D01*
X38127930Y-159664500D01*
X37872070Y-159664500D01*
X37787833Y-159677842D01*
X37619359Y-159704526D01*
X37376027Y-159783588D01*
X37376024Y-159783589D01*
X37148049Y-159899750D01*
X36941064Y-160050132D01*
X36941059Y-160050136D01*
X36760136Y-160231059D01*
X36760132Y-160231064D01*
X36609750Y-160438049D01*
X36493589Y-160666024D01*
X36493588Y-160666027D01*
X36414526Y-160909359D01*
X36374500Y-161162070D01*
X28500500Y-161162070D01*
X28500500Y-103162070D01*
X36374500Y-103162070D01*
X36374500Y-103417929D01*
X36414526Y-103670640D01*
X36493588Y-103913972D01*
X36493589Y-103913975D01*
X36609750Y-104141950D01*
X36760132Y-104348935D01*
X36760136Y-104348940D01*
X36941059Y-104529863D01*
X36941064Y-104529867D01*
X37038027Y-104600314D01*
X37148053Y-104680252D01*
X37297080Y-104756185D01*
X37376024Y-104796410D01*
X37376027Y-104796411D01*
X37497693Y-104835942D01*
X37619361Y-104875474D01*
X37872070Y-104915500D01*
X37872071Y-104915500D01*
X38127929Y-104915500D01*
X38127930Y-104915500D01*
X38380639Y-104875474D01*
X38623975Y-104796410D01*
X38851947Y-104680252D01*
X39058942Y-104529862D01*
X39239862Y-104348942D01*
X39390252Y-104141947D01*
X39506410Y-103913975D01*
X39585474Y-103670639D01*
X39625500Y-103417930D01*
X39625500Y-103162070D01*
X39585474Y-102909361D01*
X39518363Y-102702812D01*
X39506411Y-102666027D01*
X39506410Y-102666024D01*
X39447236Y-102549890D01*
X39390252Y-102438053D01*
X39310616Y-102328443D01*
X39239867Y-102231064D01*
X39239863Y-102231059D01*
X39058940Y-102050136D01*
X39058935Y-102050132D01*
X38851950Y-101899750D01*
X38851949Y-101899749D01*
X38851947Y-101899748D01*
X38778910Y-101862533D01*
X38623975Y-101783589D01*
X38623972Y-101783588D01*
X38380640Y-101704526D01*
X38254284Y-101684513D01*
X38127930Y-101664500D01*
X37872070Y-101664500D01*
X37787833Y-101677842D01*
X37619359Y-101704526D01*
X37376027Y-101783588D01*
X37376024Y-101783589D01*
X37148049Y-101899750D01*
X36941064Y-102050132D01*
X36941059Y-102050136D01*
X36760136Y-102231059D01*
X36760132Y-102231064D01*
X36609750Y-102438049D01*
X36493589Y-102666024D01*
X36493588Y-102666027D01*
X36414526Y-102909359D01*
X36374500Y-103162070D01*
X28500500Y-103162070D01*
X28500500Y-90742135D01*
X36499500Y-90742135D01*
X36499500Y-92837870D01*
X36499501Y-92837876D01*
X36505908Y-92897483D01*
X36556202Y-93032328D01*
X36556206Y-93032335D01*
X36642452Y-93147544D01*
X36642455Y-93147547D01*
X36757664Y-93233793D01*
X36757671Y-93233797D01*
X36785207Y-93244067D01*
X36892517Y-93284091D01*
X36952127Y-93290500D01*
X37349788Y-93290499D01*
X37361306Y-93293880D01*
X37373254Y-93292740D01*
X37394205Y-93303540D01*
X37416827Y-93310183D01*
X37426240Y-93320055D01*
X37435357Y-93324755D01*
X37457171Y-93352493D01*
X37469360Y-93373604D01*
X37519479Y-93460414D01*
X37519481Y-93460417D01*
X37638349Y-93579285D01*
X37638355Y-93579290D01*
X40570381Y-96511316D01*
X40603866Y-96572639D01*
X40606700Y-96598997D01*
X40606700Y-135270530D01*
X40606699Y-135270548D01*
X40606699Y-135436254D01*
X40606698Y-135436254D01*
X40647623Y-135588985D01*
X40669042Y-135626082D01*
X40669043Y-135626086D01*
X40669044Y-135626086D01*
X40726679Y-135725914D01*
X40726681Y-135725917D01*
X40845549Y-135844785D01*
X40845555Y-135844790D01*
X58472892Y-153472127D01*
X58506377Y-153533450D01*
X58505873Y-153581222D01*
X58507152Y-153581425D01*
X58475500Y-153781263D01*
X58475500Y-153978736D01*
X58506389Y-154173763D01*
X58543449Y-154287820D01*
X58567409Y-154361561D01*
X58617458Y-154459786D01*
X58657058Y-154537504D01*
X58773115Y-154697246D01*
X58912753Y-154836884D01*
X59041607Y-154930500D01*
X59072499Y-154952944D01*
X59242404Y-155039516D01*
X59293199Y-155087490D01*
X59309994Y-155155311D01*
X59287456Y-155221446D01*
X59242404Y-155260483D01*
X59085321Y-155340522D01*
X59072495Y-155347058D01*
X58912753Y-155463115D01*
X58773115Y-155602753D01*
X58657058Y-155762495D01*
X58567408Y-155938441D01*
X58506389Y-156126236D01*
X58475500Y-156321263D01*
X58475500Y-156518736D01*
X58506389Y-156713763D01*
X58547408Y-156840005D01*
X58567409Y-156901561D01*
X58657056Y-157077501D01*
X58657058Y-157077504D01*
X58773115Y-157237246D01*
X58912753Y-157376884D01*
X59062234Y-157485486D01*
X59072499Y-157492944D01*
X59248439Y-157582591D01*
X59373637Y-157623270D01*
X59436236Y-157643610D01*
X59631264Y-157674500D01*
X59631269Y-157674500D01*
X59828736Y-157674500D01*
X60023763Y-157643610D01*
X60211561Y-157582591D01*
X60387501Y-157492944D01*
X60477192Y-157427779D01*
X60547246Y-157376884D01*
X60547248Y-157376881D01*
X60547252Y-157376879D01*
X60686879Y-157237252D01*
X60686881Y-157237248D01*
X60686884Y-157237246D01*
X60802941Y-157077505D01*
X60802942Y-157077504D01*
X60802944Y-157077501D01*
X60889517Y-156907593D01*
X60937490Y-156856800D01*
X61005311Y-156840005D01*
X61071446Y-156862542D01*
X61110482Y-156907593D01*
X61193804Y-157071119D01*
X61197058Y-157077505D01*
X61313115Y-157237246D01*
X61452753Y-157376884D01*
X61602234Y-157485486D01*
X61612499Y-157492944D01*
X61788439Y-157582591D01*
X61913637Y-157623270D01*
X61976236Y-157643610D01*
X62171264Y-157674500D01*
X62171269Y-157674500D01*
X62368736Y-157674500D01*
X62563763Y-157643610D01*
X62751561Y-157582591D01*
X62927501Y-157492944D01*
X63017192Y-157427779D01*
X63087246Y-157376884D01*
X63087248Y-157376881D01*
X63087252Y-157376879D01*
X63226879Y-157237252D01*
X63226881Y-157237248D01*
X63226884Y-157237246D01*
X63277779Y-157167192D01*
X63342944Y-157077501D01*
X63432591Y-156901561D01*
X63493610Y-156713763D01*
X63524500Y-156518736D01*
X63524500Y-156321263D01*
X63492848Y-156121425D01*
X63494594Y-156121148D01*
X63497704Y-156058973D01*
X63527105Y-156012128D01*
X64115806Y-155423428D01*
X64115811Y-155423424D01*
X64126014Y-155413220D01*
X64126016Y-155413220D01*
X64237820Y-155301416D01*
X64298456Y-155196390D01*
X64316877Y-155164485D01*
X64357801Y-155011757D01*
X64357801Y-154853643D01*
X64357801Y-154846048D01*
X64357800Y-154846030D01*
X64357800Y-150933713D01*
X76149500Y-150933713D01*
X76149500Y-151146286D01*
X76182753Y-151356239D01*
X76248444Y-151558414D01*
X76344951Y-151747820D01*
X76469890Y-151919786D01*
X76620213Y-152070109D01*
X76792182Y-152195050D01*
X76800946Y-152199516D01*
X76851742Y-152247491D01*
X76868536Y-152315312D01*
X76845998Y-152381447D01*
X76800946Y-152420484D01*
X76792182Y-152424949D01*
X76620213Y-152549890D01*
X76469890Y-152700213D01*
X76344951Y-152872179D01*
X76248444Y-153061585D01*
X76182753Y-153263760D01*
X76149500Y-153473713D01*
X76149500Y-153686286D01*
X76182753Y-153896239D01*
X76248444Y-154098414D01*
X76344951Y-154287820D01*
X76469890Y-154459786D01*
X76620213Y-154610109D01*
X76792179Y-154735048D01*
X76792181Y-154735049D01*
X76792184Y-154735051D01*
X76981588Y-154831557D01*
X77183757Y-154897246D01*
X77393713Y-154930500D01*
X77393714Y-154930500D01*
X77606286Y-154930500D01*
X77606287Y-154930500D01*
X77816243Y-154897246D01*
X78018412Y-154831557D01*
X78207816Y-154735051D01*
X78259842Y-154697252D01*
X78379786Y-154610109D01*
X78379788Y-154610106D01*
X78379792Y-154610104D01*
X78530104Y-154459792D01*
X78530106Y-154459788D01*
X78530109Y-154459786D01*
X78655048Y-154287820D01*
X78655047Y-154287820D01*
X78655051Y-154287816D01*
X78751557Y-154098412D01*
X78817246Y-153896243D01*
X78850500Y-153686287D01*
X78850500Y-153473713D01*
X78817246Y-153263757D01*
X78751557Y-153061588D01*
X78655051Y-152872184D01*
X78655049Y-152872181D01*
X78655048Y-152872179D01*
X78530109Y-152700213D01*
X78379786Y-152549890D01*
X78207820Y-152424951D01*
X78207115Y-152424591D01*
X78199054Y-152420485D01*
X78148259Y-152372512D01*
X78131463Y-152304692D01*
X78153999Y-152238556D01*
X78199054Y-152199515D01*
X78207816Y-152195051D01*
X78229789Y-152179086D01*
X78379786Y-152070109D01*
X78379788Y-152070106D01*
X78379792Y-152070104D01*
X78530104Y-151919792D01*
X78530106Y-151919788D01*
X78530109Y-151919786D01*
X78655048Y-151747820D01*
X78655047Y-151747820D01*
X78655051Y-151747816D01*
X78751557Y-151558412D01*
X78817246Y-151356243D01*
X78850500Y-151146287D01*
X78850500Y-150933713D01*
X78817246Y-150723757D01*
X78751557Y-150521588D01*
X78655051Y-150332184D01*
X78655049Y-150332181D01*
X78655048Y-150332179D01*
X78530109Y-150160213D01*
X78379786Y-150009890D01*
X78207820Y-149884951D01*
X78018414Y-149788444D01*
X78018413Y-149788443D01*
X78018412Y-149788443D01*
X77816243Y-149722754D01*
X77816241Y-149722753D01*
X77816240Y-149722753D01*
X77654957Y-149697208D01*
X77606287Y-149689500D01*
X77393713Y-149689500D01*
X77345042Y-149697208D01*
X77183760Y-149722753D01*
X76981585Y-149788444D01*
X76792179Y-149884951D01*
X76620213Y-150009890D01*
X76469890Y-150160213D01*
X76344951Y-150332179D01*
X76248444Y-150521585D01*
X76182753Y-150723760D01*
X76149500Y-150933713D01*
X64357800Y-150933713D01*
X64357800Y-149662797D01*
X64377485Y-149595758D01*
X64394119Y-149575116D01*
X68907100Y-145062135D01*
X76149500Y-145062135D01*
X76149500Y-146857870D01*
X76149501Y-146857876D01*
X76155908Y-146917483D01*
X76206202Y-147052328D01*
X76206206Y-147052335D01*
X76292452Y-147167544D01*
X76292455Y-147167547D01*
X76407664Y-147253793D01*
X76407671Y-147253797D01*
X76542517Y-147304091D01*
X76542516Y-147304091D01*
X76549444Y-147304835D01*
X76602127Y-147310500D01*
X78397872Y-147310499D01*
X78457483Y-147304091D01*
X78592331Y-147253796D01*
X78707546Y-147167546D01*
X78793796Y-147052331D01*
X78844091Y-146917483D01*
X78850500Y-146857873D01*
X78850499Y-145062128D01*
X78844091Y-145002517D01*
X78841403Y-144995311D01*
X78793797Y-144867671D01*
X78793793Y-144867664D01*
X78707547Y-144752455D01*
X78707544Y-144752452D01*
X78592335Y-144666206D01*
X78592328Y-144666202D01*
X78457482Y-144615908D01*
X78457483Y-144615908D01*
X78397883Y-144609501D01*
X78397881Y-144609500D01*
X78397873Y-144609500D01*
X78397864Y-144609500D01*
X76602129Y-144609500D01*
X76602123Y-144609501D01*
X76542516Y-144615908D01*
X76407671Y-144666202D01*
X76407664Y-144666206D01*
X76292455Y-144752452D01*
X76292452Y-144752455D01*
X76206206Y-144867664D01*
X76206202Y-144867671D01*
X76155908Y-145002517D01*
X76152267Y-145036390D01*
X76149501Y-145062123D01*
X76149500Y-145062135D01*
X68907100Y-145062135D01*
X75937819Y-138031416D01*
X75999142Y-137997931D01*
X76068834Y-138002915D01*
X76124767Y-138044787D01*
X76149184Y-138110251D01*
X76149500Y-138119097D01*
X76149500Y-138266287D01*
X76182754Y-138476243D01*
X76203882Y-138541269D01*
X76248444Y-138678414D01*
X76344951Y-138867820D01*
X76469890Y-139039786D01*
X76620213Y-139190109D01*
X76792179Y-139315048D01*
X76792181Y-139315049D01*
X76792184Y-139315051D01*
X76981588Y-139411557D01*
X77183757Y-139477246D01*
X77393713Y-139510500D01*
X77393714Y-139510500D01*
X77606286Y-139510500D01*
X77606287Y-139510500D01*
X77816243Y-139477246D01*
X78018412Y-139411557D01*
X78207816Y-139315051D01*
X78231972Y-139297501D01*
X78379786Y-139190109D01*
X78379788Y-139190106D01*
X78379792Y-139190104D01*
X78530104Y-139039792D01*
X78530106Y-139039788D01*
X78530109Y-139039786D01*
X78655048Y-138867820D01*
X78655047Y-138867820D01*
X78655051Y-138867816D01*
X78751557Y-138678412D01*
X78817246Y-138476243D01*
X78850500Y-138266287D01*
X78850500Y-138053713D01*
X78817246Y-137843757D01*
X78751557Y-137641588D01*
X78655051Y-137452184D01*
X78655049Y-137452181D01*
X78655048Y-137452179D01*
X78530109Y-137280213D01*
X78379786Y-137129890D01*
X78207820Y-137004951D01*
X78207115Y-137004591D01*
X78199054Y-137000485D01*
X78148259Y-136952512D01*
X78131463Y-136884692D01*
X78153999Y-136818556D01*
X78199054Y-136779515D01*
X78207816Y-136775051D01*
X78231972Y-136757501D01*
X78379786Y-136650109D01*
X78379788Y-136650106D01*
X78379792Y-136650104D01*
X78530104Y-136499792D01*
X78530106Y-136499788D01*
X78530109Y-136499786D01*
X78655048Y-136327820D01*
X78655047Y-136327820D01*
X78655051Y-136327816D01*
X78751557Y-136138412D01*
X78817246Y-135936243D01*
X78850500Y-135726287D01*
X78850500Y-135513713D01*
X78817246Y-135303757D01*
X78751557Y-135101588D01*
X78655051Y-134912184D01*
X78655049Y-134912181D01*
X78655048Y-134912179D01*
X78530109Y-134740213D01*
X78379786Y-134589890D01*
X78207820Y-134464951D01*
X78207115Y-134464591D01*
X78199054Y-134460485D01*
X78148259Y-134412512D01*
X78131463Y-134344692D01*
X78153999Y-134278556D01*
X78199054Y-134239515D01*
X78207816Y-134235051D01*
X78315230Y-134157011D01*
X78379786Y-134110109D01*
X78379788Y-134110106D01*
X78379792Y-134110104D01*
X78530104Y-133959792D01*
X78530106Y-133959788D01*
X78530109Y-133959786D01*
X78655048Y-133787820D01*
X78655047Y-133787820D01*
X78655051Y-133787816D01*
X78751557Y-133598412D01*
X78817246Y-133396243D01*
X78850500Y-133186287D01*
X78850500Y-132973713D01*
X78817246Y-132763757D01*
X78751557Y-132561588D01*
X78655051Y-132372184D01*
X78655049Y-132372181D01*
X78655048Y-132372179D01*
X78530109Y-132200213D01*
X78379786Y-132049890D01*
X78207820Y-131924951D01*
X78207115Y-131924591D01*
X78199054Y-131920485D01*
X78148259Y-131872512D01*
X78131463Y-131804692D01*
X78153999Y-131738556D01*
X78199054Y-131699515D01*
X78207816Y-131695051D01*
X78231972Y-131677501D01*
X78379786Y-131570109D01*
X78379788Y-131570106D01*
X78379792Y-131570104D01*
X78530104Y-131419792D01*
X78530106Y-131419788D01*
X78530109Y-131419786D01*
X78655048Y-131247820D01*
X78655047Y-131247820D01*
X78655051Y-131247816D01*
X78751557Y-131058412D01*
X78817246Y-130856243D01*
X78850500Y-130646287D01*
X78850500Y-130433713D01*
X78817246Y-130223757D01*
X78751557Y-130021588D01*
X78655051Y-129832184D01*
X78655049Y-129832181D01*
X78655048Y-129832179D01*
X78530109Y-129660213D01*
X78379786Y-129509890D01*
X78207820Y-129384951D01*
X78018414Y-129288444D01*
X78018413Y-129288443D01*
X78018412Y-129288443D01*
X77816243Y-129222754D01*
X77816241Y-129222753D01*
X77816240Y-129222753D01*
X77654957Y-129197208D01*
X77606287Y-129189500D01*
X77393713Y-129189500D01*
X77365006Y-129194046D01*
X77183757Y-129222753D01*
X77141473Y-129236492D01*
X77071632Y-129238486D01*
X77015476Y-129206241D01*
X72371370Y-124562135D01*
X76149500Y-124562135D01*
X76149500Y-126357870D01*
X76149501Y-126357876D01*
X76155908Y-126417483D01*
X76206202Y-126552328D01*
X76206206Y-126552335D01*
X76292452Y-126667544D01*
X76292455Y-126667547D01*
X76407664Y-126753793D01*
X76407671Y-126753797D01*
X76542517Y-126804091D01*
X76542516Y-126804091D01*
X76549444Y-126804835D01*
X76602127Y-126810500D01*
X78397872Y-126810499D01*
X78457483Y-126804091D01*
X78592331Y-126753796D01*
X78707546Y-126667546D01*
X78793796Y-126552331D01*
X78844091Y-126417483D01*
X78850500Y-126357873D01*
X78850499Y-124562128D01*
X78844091Y-124502517D01*
X78842108Y-124497201D01*
X78793797Y-124367671D01*
X78793793Y-124367664D01*
X78707547Y-124252455D01*
X78707544Y-124252452D01*
X78592335Y-124166206D01*
X78592328Y-124166202D01*
X78457482Y-124115908D01*
X78457483Y-124115908D01*
X78397883Y-124109501D01*
X78397881Y-124109500D01*
X78397873Y-124109500D01*
X78397864Y-124109500D01*
X76602129Y-124109500D01*
X76602123Y-124109501D01*
X76542516Y-124115908D01*
X76407671Y-124166202D01*
X76407664Y-124166206D01*
X76292455Y-124252452D01*
X76292452Y-124252455D01*
X76206206Y-124367664D01*
X76206202Y-124367671D01*
X76155908Y-124502517D01*
X76149781Y-124559515D01*
X76149501Y-124562123D01*
X76149500Y-124562135D01*
X72371370Y-124562135D01*
X68307590Y-120498355D01*
X68307588Y-120498352D01*
X68188717Y-120379481D01*
X68188716Y-120379480D01*
X68101904Y-120329360D01*
X68101904Y-120329359D01*
X68101900Y-120329358D01*
X68051785Y-120300423D01*
X67899057Y-120259499D01*
X67740943Y-120259499D01*
X67733347Y-120259499D01*
X67733331Y-120259500D01*
X63447318Y-120259500D01*
X63380279Y-120239815D01*
X63346860Y-120205675D01*
X63345808Y-120206440D01*
X63226884Y-120042753D01*
X63087246Y-119903115D01*
X62927505Y-119787058D01*
X62921119Y-119783804D01*
X62757593Y-119700482D01*
X62706800Y-119652510D01*
X62690005Y-119584689D01*
X62712542Y-119518554D01*
X62757593Y-119479517D01*
X62927501Y-119392944D01*
X62947912Y-119378114D01*
X63087246Y-119276884D01*
X63087248Y-119276881D01*
X63087252Y-119276879D01*
X63226879Y-119137252D01*
X63226881Y-119137248D01*
X63226884Y-119137246D01*
X63310915Y-119021585D01*
X63342944Y-118977501D01*
X63432591Y-118801561D01*
X63493610Y-118613763D01*
X63510062Y-118509890D01*
X63524500Y-118418736D01*
X63524500Y-118221263D01*
X63493610Y-118026236D01*
X63445268Y-117877456D01*
X63432591Y-117838439D01*
X63342944Y-117662499D01*
X63335486Y-117652234D01*
X63226884Y-117502753D01*
X63087246Y-117363115D01*
X62927505Y-117247058D01*
X62921119Y-117243804D01*
X62757593Y-117160482D01*
X62706800Y-117112510D01*
X62690005Y-117044689D01*
X62712542Y-116978554D01*
X62757593Y-116939517D01*
X62927501Y-116852944D01*
X62947912Y-116838114D01*
X63087246Y-116736884D01*
X63087248Y-116736881D01*
X63087252Y-116736879D01*
X63226879Y-116597252D01*
X63226881Y-116597248D01*
X63226884Y-116597246D01*
X63310913Y-116481588D01*
X63342944Y-116437501D01*
X63432591Y-116261561D01*
X63493610Y-116073763D01*
X63504031Y-116007966D01*
X63524500Y-115878736D01*
X63524500Y-115681263D01*
X63493610Y-115486236D01*
X63473270Y-115423637D01*
X63432591Y-115298439D01*
X63416058Y-115265992D01*
X63403163Y-115197326D01*
X63429439Y-115132585D01*
X63486546Y-115092328D01*
X63526544Y-115085700D01*
X69055303Y-115085700D01*
X69122342Y-115105385D01*
X69142984Y-115122019D01*
X70037539Y-116016574D01*
X70037549Y-116016585D01*
X70041879Y-116020915D01*
X70041880Y-116020916D01*
X70153684Y-116132720D01*
X70240495Y-116182839D01*
X70240497Y-116182841D01*
X70281508Y-116206519D01*
X70290615Y-116211777D01*
X70443342Y-116252700D01*
X70443343Y-116252700D01*
X76162717Y-116252700D01*
X76229756Y-116272385D01*
X76275511Y-116325189D01*
X76285455Y-116394347D01*
X76273202Y-116432994D01*
X76248445Y-116481582D01*
X76182753Y-116683760D01*
X76174340Y-116736879D01*
X76149500Y-116893713D01*
X76149500Y-117106287D01*
X76182754Y-117316243D01*
X76243353Y-117502748D01*
X76248444Y-117518414D01*
X76344951Y-117707820D01*
X76469890Y-117879786D01*
X76620213Y-118030109D01*
X76792182Y-118155050D01*
X76800946Y-118159516D01*
X76851742Y-118207491D01*
X76868536Y-118275312D01*
X76845998Y-118341447D01*
X76800946Y-118380484D01*
X76792182Y-118384949D01*
X76620213Y-118509890D01*
X76469890Y-118660213D01*
X76344951Y-118832179D01*
X76248444Y-119021585D01*
X76182753Y-119223760D01*
X76182753Y-119223762D01*
X76149500Y-119433713D01*
X76149500Y-119646287D01*
X76182754Y-119856243D01*
X76243353Y-120042748D01*
X76248444Y-120058414D01*
X76344951Y-120247820D01*
X76469890Y-120419786D01*
X76620213Y-120570109D01*
X76792179Y-120695048D01*
X76792181Y-120695049D01*
X76792184Y-120695051D01*
X76981588Y-120791557D01*
X77183757Y-120857246D01*
X77393713Y-120890500D01*
X77393714Y-120890500D01*
X77606286Y-120890500D01*
X77606287Y-120890500D01*
X77816243Y-120857246D01*
X78018412Y-120791557D01*
X78207816Y-120695051D01*
X78229789Y-120679086D01*
X78379786Y-120570109D01*
X78379788Y-120570106D01*
X78379792Y-120570104D01*
X78530104Y-120419792D01*
X78530106Y-120419788D01*
X78530109Y-120419786D01*
X78655048Y-120247820D01*
X78655047Y-120247820D01*
X78655051Y-120247816D01*
X78751557Y-120058412D01*
X78817246Y-119856243D01*
X78850500Y-119646287D01*
X78850500Y-119433713D01*
X78817246Y-119223757D01*
X78803506Y-119181473D01*
X78801512Y-119111635D01*
X78833753Y-119055480D01*
X79132220Y-118757016D01*
X79211277Y-118620084D01*
X79252201Y-118467357D01*
X79252201Y-118309242D01*
X79252201Y-118301647D01*
X79252200Y-118301629D01*
X79252200Y-107360760D01*
X79252201Y-107360747D01*
X79252201Y-107192644D01*
X79243870Y-107161552D01*
X79211277Y-107039916D01*
X79188108Y-106999786D01*
X79132224Y-106902990D01*
X79132218Y-106902982D01*
X79057052Y-106827816D01*
X78833756Y-106604521D01*
X78800272Y-106543199D01*
X78803507Y-106478523D01*
X78817246Y-106436243D01*
X78850500Y-106226287D01*
X78850500Y-106013713D01*
X78817246Y-105803757D01*
X78751557Y-105601588D01*
X78655051Y-105412184D01*
X78655049Y-105412181D01*
X78655048Y-105412179D01*
X78527241Y-105236266D01*
X78528074Y-105235660D01*
X78501547Y-105176472D01*
X78511977Y-105107385D01*
X78536725Y-105072009D01*
X78620745Y-104987989D01*
X79185020Y-104423716D01*
X79264077Y-104286784D01*
X79305001Y-104134057D01*
X79305001Y-103975942D01*
X79305001Y-103968347D01*
X79305000Y-103968329D01*
X79305000Y-100489245D01*
X79305000Y-100489243D01*
X79264077Y-100336516D01*
X79264077Y-100336515D01*
X79264077Y-100336514D01*
X79235139Y-100286395D01*
X79235137Y-100286392D01*
X79223570Y-100266357D01*
X79185020Y-100199584D01*
X79073216Y-100087780D01*
X79073215Y-100087779D01*
X79068885Y-100083449D01*
X79068874Y-100083439D01*
X78777287Y-99791852D01*
X78743802Y-99730529D01*
X78748786Y-99660837D01*
X78765700Y-99629861D01*
X78793796Y-99592331D01*
X78844091Y-99457483D01*
X78850500Y-99397873D01*
X78850499Y-97602128D01*
X78844091Y-97542517D01*
X78793796Y-97407669D01*
X78793795Y-97407668D01*
X78793793Y-97407664D01*
X78707547Y-97292455D01*
X78707544Y-97292452D01*
X78592335Y-97206206D01*
X78592328Y-97206202D01*
X78457482Y-97155908D01*
X78457483Y-97155908D01*
X78397883Y-97149501D01*
X78397881Y-97149500D01*
X78397873Y-97149500D01*
X78397864Y-97149500D01*
X76602129Y-97149500D01*
X76602123Y-97149501D01*
X76542516Y-97155908D01*
X76407671Y-97206202D01*
X76407664Y-97206206D01*
X76292455Y-97292452D01*
X76292452Y-97292455D01*
X76206206Y-97407664D01*
X76206202Y-97407671D01*
X76155908Y-97542517D01*
X76149501Y-97602116D01*
X76149501Y-97602123D01*
X76149500Y-97602135D01*
X76149500Y-99397870D01*
X76149501Y-99397876D01*
X76155908Y-99457483D01*
X76206202Y-99592328D01*
X76206206Y-99592335D01*
X76292452Y-99707544D01*
X76292455Y-99707547D01*
X76407664Y-99793793D01*
X76407671Y-99793797D01*
X76452618Y-99810561D01*
X76542517Y-99844091D01*
X76602127Y-99850500D01*
X76849787Y-99850499D01*
X76916826Y-99870183D01*
X76957174Y-99912499D01*
X77019477Y-100020412D01*
X77019479Y-100020415D01*
X77019480Y-100020416D01*
X77131284Y-100132220D01*
X77131286Y-100132221D01*
X77131290Y-100132224D01*
X77268209Y-100211273D01*
X77268216Y-100211277D01*
X77420943Y-100252200D01*
X77487803Y-100252200D01*
X77554842Y-100271885D01*
X77575484Y-100288519D01*
X78067681Y-100780716D01*
X78101166Y-100842039D01*
X78104000Y-100868397D01*
X78104000Y-102185581D01*
X78084315Y-102252620D01*
X78031511Y-102298375D01*
X77962353Y-102308319D01*
X77941684Y-102303512D01*
X77816243Y-102262754D01*
X77816240Y-102262753D01*
X77654957Y-102237208D01*
X77606287Y-102229500D01*
X77393713Y-102229500D01*
X77345042Y-102237208D01*
X77183760Y-102262753D01*
X76981585Y-102328444D01*
X76792179Y-102424951D01*
X76620213Y-102549890D01*
X76469890Y-102700213D01*
X76344948Y-102872184D01*
X76344947Y-102872185D01*
X76324765Y-102911795D01*
X76276791Y-102962591D01*
X76214281Y-102979500D01*
X65443670Y-102979500D01*
X65443654Y-102979499D01*
X65436058Y-102979499D01*
X65277943Y-102979499D01*
X65277942Y-102979499D01*
X65217184Y-102995779D01*
X65147334Y-102994116D01*
X65089472Y-102954953D01*
X65061968Y-102890724D01*
X65073555Y-102821822D01*
X65097407Y-102788326D01*
X67217913Y-100667821D01*
X67217916Y-100667820D01*
X67329720Y-100556016D01*
X67379839Y-100469204D01*
X67408777Y-100419085D01*
X67449700Y-100266358D01*
X67449700Y-100108243D01*
X67449700Y-86514499D01*
X67469385Y-86447460D01*
X67522189Y-86401705D01*
X67573695Y-86390499D01*
X69647872Y-86390499D01*
X69707483Y-86384091D01*
X69842331Y-86333796D01*
X69957546Y-86247546D01*
X70043796Y-86132331D01*
X70094091Y-85997483D01*
X70100500Y-85937873D01*
X70100499Y-82642128D01*
X70094091Y-82582517D01*
X70043796Y-82447669D01*
X70043795Y-82447668D01*
X70043793Y-82447664D01*
X69957547Y-82332455D01*
X69957544Y-82332452D01*
X69842335Y-82246206D01*
X69842328Y-82246202D01*
X69707482Y-82195908D01*
X69707483Y-82195908D01*
X69647883Y-82189501D01*
X69647881Y-82189500D01*
X69647873Y-82189500D01*
X69647865Y-82189500D01*
X67573700Y-82189500D01*
X67506661Y-82169815D01*
X67460906Y-82117011D01*
X67449700Y-82065500D01*
X67449700Y-63474499D01*
X67469385Y-63407460D01*
X67522189Y-63361705D01*
X67573695Y-63350499D01*
X69647872Y-63350499D01*
X69707483Y-63344091D01*
X69842331Y-63293796D01*
X69957546Y-63207546D01*
X70043796Y-63092331D01*
X70094091Y-62957483D01*
X70100500Y-62897873D01*
X70100499Y-59602128D01*
X70094091Y-59542517D01*
X70043796Y-59407669D01*
X70043795Y-59407668D01*
X70043793Y-59407664D01*
X69957547Y-59292455D01*
X69957544Y-59292452D01*
X69842335Y-59206206D01*
X69842328Y-59206202D01*
X69707482Y-59155908D01*
X69707483Y-59155908D01*
X69647883Y-59149501D01*
X69647881Y-59149500D01*
X69647873Y-59149500D01*
X69647865Y-59149500D01*
X67573700Y-59149500D01*
X67506661Y-59129815D01*
X67460906Y-59077011D01*
X67449700Y-59025500D01*
X67449700Y-43024697D01*
X67469385Y-42957658D01*
X67486019Y-42937016D01*
X74239323Y-36183713D01*
X76149500Y-36183713D01*
X76149500Y-36396286D01*
X76182753Y-36606239D01*
X76248444Y-36808414D01*
X76344951Y-36997820D01*
X76469890Y-37169786D01*
X76620213Y-37320109D01*
X76792182Y-37445050D01*
X76800946Y-37449516D01*
X76851742Y-37497491D01*
X76868536Y-37565312D01*
X76845998Y-37631447D01*
X76800946Y-37670484D01*
X76792182Y-37674949D01*
X76620213Y-37799890D01*
X76469890Y-37950213D01*
X76344951Y-38122179D01*
X76248444Y-38311585D01*
X76182753Y-38513760D01*
X76149500Y-38723713D01*
X76149500Y-38936286D01*
X76182753Y-39146239D01*
X76248444Y-39348414D01*
X76344951Y-39537820D01*
X76469890Y-39709786D01*
X76620213Y-39860109D01*
X76792182Y-39985050D01*
X76800946Y-39989516D01*
X76851742Y-40037491D01*
X76868536Y-40105312D01*
X76845998Y-40171447D01*
X76800946Y-40210484D01*
X76792182Y-40214949D01*
X76620213Y-40339890D01*
X76469890Y-40490213D01*
X76344951Y-40662179D01*
X76248444Y-40851585D01*
X76182753Y-41053760D01*
X76149500Y-41263713D01*
X76149500Y-41476286D01*
X76182753Y-41686239D01*
X76248444Y-41888414D01*
X76344951Y-42077820D01*
X76469890Y-42249786D01*
X76620213Y-42400109D01*
X76792182Y-42525050D01*
X76800946Y-42529516D01*
X76851742Y-42577491D01*
X76868536Y-42645312D01*
X76845998Y-42711447D01*
X76800946Y-42750484D01*
X76792182Y-42754949D01*
X76620213Y-42879890D01*
X76469890Y-43030213D01*
X76344951Y-43202179D01*
X76248444Y-43391585D01*
X76182753Y-43593760D01*
X76149500Y-43803713D01*
X76149500Y-44016286D01*
X76181235Y-44216657D01*
X76182754Y-44226243D01*
X76224747Y-44355485D01*
X76248444Y-44428414D01*
X76344951Y-44617820D01*
X76469890Y-44789786D01*
X76620213Y-44940109D01*
X76792182Y-45065050D01*
X76800946Y-45069516D01*
X76851742Y-45117491D01*
X76868536Y-45185312D01*
X76845998Y-45251447D01*
X76800946Y-45290484D01*
X76792182Y-45294949D01*
X76620213Y-45419890D01*
X76469890Y-45570213D01*
X76344951Y-45742179D01*
X76248444Y-45931585D01*
X76182753Y-46133760D01*
X76149500Y-46343713D01*
X76149500Y-46556286D01*
X76178966Y-46742331D01*
X76182754Y-46766243D01*
X76246864Y-46963553D01*
X76248444Y-46968414D01*
X76344951Y-47157820D01*
X76469890Y-47329786D01*
X76620213Y-47480109D01*
X76792179Y-47605048D01*
X76792181Y-47605049D01*
X76792184Y-47605051D01*
X76981588Y-47701557D01*
X77183757Y-47767246D01*
X77393713Y-47800500D01*
X77393714Y-47800500D01*
X77606286Y-47800500D01*
X77606287Y-47800500D01*
X77816243Y-47767246D01*
X78018412Y-47701557D01*
X78207816Y-47605051D01*
X78229789Y-47589086D01*
X78379786Y-47480109D01*
X78379788Y-47480106D01*
X78379792Y-47480104D01*
X78530104Y-47329792D01*
X78530106Y-47329788D01*
X78530109Y-47329786D01*
X78655048Y-47157820D01*
X78655047Y-47157820D01*
X78655051Y-47157816D01*
X78751557Y-46968412D01*
X78817246Y-46766243D01*
X78850500Y-46556287D01*
X78850500Y-46343713D01*
X78817246Y-46133757D01*
X78751557Y-45931588D01*
X78655051Y-45742184D01*
X78655049Y-45742181D01*
X78655048Y-45742179D01*
X78530109Y-45570213D01*
X78379786Y-45419890D01*
X78207820Y-45294951D01*
X78207115Y-45294591D01*
X78199054Y-45290485D01*
X78148259Y-45242512D01*
X78131463Y-45174692D01*
X78153999Y-45108556D01*
X78199054Y-45069515D01*
X78207816Y-45065051D01*
X78229789Y-45049086D01*
X78379786Y-44940109D01*
X78379788Y-44940106D01*
X78379792Y-44940104D01*
X78530104Y-44789792D01*
X78530106Y-44789788D01*
X78530109Y-44789786D01*
X78655048Y-44617820D01*
X78655047Y-44617820D01*
X78655051Y-44617816D01*
X78751557Y-44428412D01*
X78817246Y-44226243D01*
X78850500Y-44016287D01*
X78850500Y-43803713D01*
X78817246Y-43593757D01*
X78751557Y-43391588D01*
X78655051Y-43202184D01*
X78655049Y-43202181D01*
X78655048Y-43202179D01*
X78530109Y-43030213D01*
X78379786Y-42879890D01*
X78207820Y-42754951D01*
X78207115Y-42754591D01*
X78199054Y-42750485D01*
X78148259Y-42702512D01*
X78131463Y-42634692D01*
X78153999Y-42568556D01*
X78199054Y-42529515D01*
X78207816Y-42525051D01*
X78252188Y-42492813D01*
X78379786Y-42400109D01*
X78379788Y-42400106D01*
X78379792Y-42400104D01*
X78530104Y-42249792D01*
X78530106Y-42249788D01*
X78530109Y-42249786D01*
X78655048Y-42077820D01*
X78655047Y-42077820D01*
X78655051Y-42077816D01*
X78751557Y-41888412D01*
X78817246Y-41686243D01*
X78850500Y-41476287D01*
X78850500Y-41263713D01*
X78817246Y-41053757D01*
X78751557Y-40851588D01*
X78655051Y-40662184D01*
X78655049Y-40662181D01*
X78655048Y-40662179D01*
X78530109Y-40490213D01*
X78379786Y-40339890D01*
X78207820Y-40214951D01*
X78207115Y-40214591D01*
X78199054Y-40210485D01*
X78148259Y-40162512D01*
X78131463Y-40094692D01*
X78153999Y-40028556D01*
X78199054Y-39989515D01*
X78207816Y-39985051D01*
X78245676Y-39957544D01*
X78379786Y-39860109D01*
X78379788Y-39860106D01*
X78379792Y-39860104D01*
X78530104Y-39709792D01*
X78530106Y-39709788D01*
X78530109Y-39709786D01*
X78655048Y-39537820D01*
X78655047Y-39537820D01*
X78655051Y-39537816D01*
X78751557Y-39348412D01*
X78817246Y-39146243D01*
X78850500Y-38936287D01*
X78850500Y-38723713D01*
X78817246Y-38513757D01*
X78751557Y-38311588D01*
X78655051Y-38122184D01*
X78655049Y-38122181D01*
X78655048Y-38122179D01*
X78530109Y-37950213D01*
X78379786Y-37799890D01*
X78207820Y-37674951D01*
X78207115Y-37674591D01*
X78199054Y-37670485D01*
X78148259Y-37622512D01*
X78131463Y-37554692D01*
X78153999Y-37488556D01*
X78199054Y-37449515D01*
X78207816Y-37445051D01*
X78229789Y-37429086D01*
X78379786Y-37320109D01*
X78379788Y-37320106D01*
X78379792Y-37320104D01*
X78530104Y-37169792D01*
X78530106Y-37169788D01*
X78530109Y-37169786D01*
X78655048Y-36997820D01*
X78655047Y-36997820D01*
X78655051Y-36997816D01*
X78751557Y-36808412D01*
X78817246Y-36606243D01*
X78850500Y-36396287D01*
X78850500Y-36183713D01*
X78817246Y-35973757D01*
X78751557Y-35771588D01*
X78655051Y-35582184D01*
X78655049Y-35582181D01*
X78655048Y-35582179D01*
X78530109Y-35410213D01*
X78379786Y-35259890D01*
X78207820Y-35134951D01*
X78018414Y-35038444D01*
X78018413Y-35038443D01*
X78018412Y-35038443D01*
X77816243Y-34972754D01*
X77816241Y-34972753D01*
X77816240Y-34972753D01*
X77654957Y-34947208D01*
X77606287Y-34939500D01*
X77393713Y-34939500D01*
X77345042Y-34947208D01*
X77183760Y-34972753D01*
X76981585Y-35038444D01*
X76792179Y-35134951D01*
X76620213Y-35259890D01*
X76469890Y-35410213D01*
X76344951Y-35582179D01*
X76248444Y-35771585D01*
X76182753Y-35973760D01*
X76149500Y-36183713D01*
X74239323Y-36183713D01*
X74331876Y-36091160D01*
X77424517Y-32998519D01*
X77485840Y-32965034D01*
X77512198Y-32962200D01*
X77579055Y-32962200D01*
X77579057Y-32962200D01*
X77731784Y-32921277D01*
X77868716Y-32842220D01*
X77980520Y-32730416D01*
X78042825Y-32622498D01*
X78093391Y-32574284D01*
X78150212Y-32560499D01*
X78397871Y-32560499D01*
X78397872Y-32560499D01*
X78457483Y-32554091D01*
X78592331Y-32503796D01*
X78707546Y-32417546D01*
X78793796Y-32302331D01*
X78844091Y-32167483D01*
X78850500Y-32107873D01*
X78850499Y-30312128D01*
X78844091Y-30252517D01*
X78829563Y-30213566D01*
X78793797Y-30117671D01*
X78793793Y-30117664D01*
X78707547Y-30002455D01*
X78707544Y-30002452D01*
X78592335Y-29916206D01*
X78592328Y-29916202D01*
X78457482Y-29865908D01*
X78457483Y-29865908D01*
X78397883Y-29859501D01*
X78397881Y-29859500D01*
X78397873Y-29859500D01*
X78397864Y-29859500D01*
X76602129Y-29859500D01*
X76602123Y-29859501D01*
X76542516Y-29865908D01*
X76407671Y-29916202D01*
X76407664Y-29916206D01*
X76292455Y-30002452D01*
X76292452Y-30002455D01*
X76206206Y-30117664D01*
X76206202Y-30117671D01*
X76155908Y-30252517D01*
X76149501Y-30312116D01*
X76149501Y-30312123D01*
X76149500Y-30312135D01*
X76149500Y-32107870D01*
X76149501Y-32107876D01*
X76155908Y-32167483D01*
X76206202Y-32302328D01*
X76206206Y-32302335D01*
X76234297Y-32339860D01*
X76258714Y-32405324D01*
X76243862Y-32473597D01*
X76222711Y-32501851D01*
X68882236Y-39842328D01*
X66480486Y-42244078D01*
X66480484Y-42244080D01*
X66424582Y-42299982D01*
X66368680Y-42355883D01*
X66362918Y-42365863D01*
X66360242Y-42370500D01*
X66289623Y-42492815D01*
X66248699Y-42645543D01*
X66248699Y-42645545D01*
X66248699Y-42813646D01*
X66248700Y-42813659D01*
X66248700Y-52745390D01*
X66229015Y-52812429D01*
X66176211Y-52858184D01*
X66107053Y-52868128D01*
X66080642Y-52860885D01*
X66080625Y-52860938D01*
X66079492Y-52860570D01*
X66077268Y-52859960D01*
X66076001Y-52859435D01*
X65851368Y-52786446D01*
X65618097Y-52749500D01*
X65618092Y-52749500D01*
X65381908Y-52749500D01*
X65381903Y-52749500D01*
X65148631Y-52786446D01*
X64924003Y-52859433D01*
X64713566Y-52966657D01*
X64604550Y-53045862D01*
X64522490Y-53105483D01*
X64522488Y-53105485D01*
X64522487Y-53105485D01*
X64355485Y-53272487D01*
X64355485Y-53272488D01*
X64355483Y-53272490D01*
X64295862Y-53354550D01*
X64216657Y-53463566D01*
X64109433Y-53674003D01*
X64036446Y-53898631D01*
X63999500Y-54131902D01*
X63999500Y-54368097D01*
X64036447Y-54601369D01*
X64036447Y-54601372D01*
X64077450Y-54727564D01*
X64079445Y-54797405D01*
X64047200Y-54853563D01*
X59112180Y-59788584D01*
X59050857Y-59822069D01*
X58981165Y-59817085D01*
X58925232Y-59775213D01*
X58900815Y-59709749D01*
X58900499Y-59700903D01*
X58900499Y-59602129D01*
X58900498Y-59602123D01*
X58900497Y-59602116D01*
X58894091Y-59542517D01*
X58843796Y-59407669D01*
X58843795Y-59407668D01*
X58843793Y-59407664D01*
X58757547Y-59292455D01*
X58757544Y-59292452D01*
X58642335Y-59206206D01*
X58642328Y-59206202D01*
X58507482Y-59155908D01*
X58507483Y-59155908D01*
X58447883Y-59149501D01*
X58447881Y-59149500D01*
X58447873Y-59149500D01*
X58447864Y-59149500D01*
X56352129Y-59149500D01*
X56352123Y-59149501D01*
X56292516Y-59155908D01*
X56157671Y-59206202D01*
X56157664Y-59206206D01*
X56042455Y-59292452D01*
X56042452Y-59292455D01*
X55956206Y-59407664D01*
X55956202Y-59407671D01*
X55905908Y-59542517D01*
X55899501Y-59602116D01*
X55899501Y-59602123D01*
X55899500Y-59602135D01*
X55899500Y-62897870D01*
X55899501Y-62897876D01*
X55905908Y-62957483D01*
X55956202Y-63092328D01*
X55956206Y-63092335D01*
X56042452Y-63207544D01*
X56042455Y-63207547D01*
X56157664Y-63293793D01*
X56157671Y-63293797D01*
X56292517Y-63344091D01*
X56292516Y-63344091D01*
X56299444Y-63344835D01*
X56352127Y-63350500D01*
X58447872Y-63350499D01*
X58447878Y-63350498D01*
X58447882Y-63350498D01*
X58460542Y-63349137D01*
X58529302Y-63361541D01*
X58580440Y-63409150D01*
X58597800Y-63472426D01*
X58597800Y-77067202D01*
X58578115Y-77134241D01*
X58561481Y-77154883D01*
X54899481Y-80816882D01*
X54899479Y-80816885D01*
X54849361Y-80903694D01*
X54849359Y-80903696D01*
X54820425Y-80953809D01*
X54820424Y-80953810D01*
X54820423Y-80953815D01*
X54779499Y-81106543D01*
X54779499Y-81106545D01*
X54779499Y-81274646D01*
X54779500Y-81274659D01*
X54779500Y-85596684D01*
X54774171Y-85614829D01*
X54773834Y-85633738D01*
X54760335Y-85661951D01*
X54759815Y-85663723D01*
X54758601Y-85665576D01*
X54751464Y-85676257D01*
X54697852Y-85721061D01*
X54628527Y-85729768D01*
X54565499Y-85699613D01*
X54560682Y-85695046D01*
X54528719Y-85663083D01*
X54495234Y-85601760D01*
X54492400Y-85575402D01*
X54492400Y-65230960D01*
X54492401Y-65230947D01*
X54492401Y-65062844D01*
X54451476Y-64910114D01*
X54451473Y-64910109D01*
X54372424Y-64773190D01*
X54372418Y-64773182D01*
X49416321Y-59817085D01*
X44452797Y-54853562D01*
X44419313Y-54792240D01*
X44422547Y-54727566D01*
X44463553Y-54601368D01*
X44483705Y-54474126D01*
X44500500Y-54368097D01*
X44500500Y-54131902D01*
X44463553Y-53898631D01*
X44390566Y-53674003D01*
X44283342Y-53463566D01*
X44144517Y-53272490D01*
X43977510Y-53105483D01*
X43786433Y-52966657D01*
X43748700Y-52947431D01*
X43575996Y-52859433D01*
X43351368Y-52786446D01*
X43118097Y-52749500D01*
X43118092Y-52749500D01*
X42881908Y-52749500D01*
X42881903Y-52749500D01*
X42648631Y-52786446D01*
X42424003Y-52859433D01*
X42213566Y-52966657D01*
X42104550Y-53045862D01*
X42022490Y-53105483D01*
X42022488Y-53105485D01*
X42022487Y-53105485D01*
X41855485Y-53272487D01*
X41855485Y-53272488D01*
X41855483Y-53272490D01*
X41795862Y-53354550D01*
X41716657Y-53463566D01*
X41609433Y-53674003D01*
X41536446Y-53898631D01*
X41499500Y-54131902D01*
X41499500Y-54368097D01*
X41536446Y-54601368D01*
X41609433Y-54825996D01*
X41716657Y-55036433D01*
X41855483Y-55227510D01*
X42022490Y-55394517D01*
X42213567Y-55533343D01*
X42312991Y-55584002D01*
X42424003Y-55640566D01*
X42424005Y-55640566D01*
X42424008Y-55640568D01*
X42495641Y-55663843D01*
X42648631Y-55713553D01*
X42881903Y-55750500D01*
X42881908Y-55750500D01*
X43118097Y-55750500D01*
X43224126Y-55733705D01*
X43351368Y-55713553D01*
X43477566Y-55672547D01*
X43547404Y-55670553D01*
X43603563Y-55702798D01*
X46838583Y-58937819D01*
X46872068Y-58999142D01*
X46867084Y-59068834D01*
X46825212Y-59124767D01*
X46759748Y-59149184D01*
X46750902Y-59149500D01*
X45052129Y-59149500D01*
X45052123Y-59149501D01*
X44992516Y-59155908D01*
X44857671Y-59206202D01*
X44857664Y-59206206D01*
X44742455Y-59292452D01*
X44742452Y-59292455D01*
X44656206Y-59407664D01*
X44656202Y-59407671D01*
X44605908Y-59542517D01*
X44599501Y-59602116D01*
X44599501Y-59602123D01*
X44599500Y-59602135D01*
X44599500Y-62897870D01*
X44599501Y-62897876D01*
X44605908Y-62957483D01*
X44656202Y-63092328D01*
X44656206Y-63092335D01*
X44742452Y-63207544D01*
X44742455Y-63207547D01*
X44857664Y-63293793D01*
X44857671Y-63293797D01*
X44992517Y-63344091D01*
X44992516Y-63344091D01*
X44999444Y-63344835D01*
X45052127Y-63350500D01*
X47147872Y-63350499D01*
X47207483Y-63344091D01*
X47342331Y-63293796D01*
X47457546Y-63207546D01*
X47543796Y-63092331D01*
X47594091Y-62957483D01*
X47600500Y-62897873D01*
X47600499Y-59999095D01*
X47620184Y-59932057D01*
X47672987Y-59886302D01*
X47742146Y-59876358D01*
X47805702Y-59905383D01*
X47812180Y-59911415D01*
X53255081Y-65354316D01*
X53288566Y-65415639D01*
X53291400Y-65441997D01*
X53291400Y-85788830D01*
X53291399Y-85788848D01*
X53291399Y-85954554D01*
X53291398Y-85954554D01*
X53332323Y-86107285D01*
X53361258Y-86157400D01*
X53361259Y-86157404D01*
X53361260Y-86157404D01*
X53411379Y-86244214D01*
X53411381Y-86244217D01*
X53530249Y-86363085D01*
X53530255Y-86363090D01*
X57607381Y-90440216D01*
X57640866Y-90501539D01*
X57643700Y-90527897D01*
X57643700Y-90785103D01*
X57624015Y-90852142D01*
X57571211Y-90897897D01*
X57502053Y-90907841D01*
X57438497Y-90878816D01*
X57432019Y-90872784D01*
X44452798Y-77893563D01*
X44419313Y-77832240D01*
X44422547Y-77767566D01*
X44463553Y-77641368D01*
X44483705Y-77514126D01*
X44500500Y-77408097D01*
X44500500Y-77171902D01*
X44463553Y-76938631D01*
X44390566Y-76714003D01*
X44283342Y-76503566D01*
X44144517Y-76312490D01*
X43977510Y-76145483D01*
X43786433Y-76006657D01*
X43748700Y-75987431D01*
X43575996Y-75899433D01*
X43351368Y-75826446D01*
X43118097Y-75789500D01*
X43118092Y-75789500D01*
X42881908Y-75789500D01*
X42881903Y-75789500D01*
X42648631Y-75826446D01*
X42424003Y-75899433D01*
X42213566Y-76006657D01*
X42104550Y-76085862D01*
X42022490Y-76145483D01*
X42022488Y-76145485D01*
X42022487Y-76145485D01*
X41855485Y-76312487D01*
X41855485Y-76312488D01*
X41855483Y-76312490D01*
X41795862Y-76394550D01*
X41716657Y-76503566D01*
X41609433Y-76714003D01*
X41536446Y-76938631D01*
X41499500Y-77171902D01*
X41499500Y-77408097D01*
X41536446Y-77641368D01*
X41609433Y-77865996D01*
X41716657Y-78076433D01*
X41855483Y-78267510D01*
X42022490Y-78434517D01*
X42213567Y-78573343D01*
X42312991Y-78624002D01*
X42424003Y-78680566D01*
X42424005Y-78680566D01*
X42424008Y-78680568D01*
X42495641Y-78703843D01*
X42648631Y-78753553D01*
X42881903Y-78790500D01*
X42881908Y-78790500D01*
X43118097Y-78790500D01*
X43224126Y-78773705D01*
X43351368Y-78753553D01*
X43477566Y-78712547D01*
X43547404Y-78710553D01*
X43603563Y-78742798D01*
X46838584Y-81977819D01*
X46872069Y-82039142D01*
X46867085Y-82108834D01*
X46825213Y-82164767D01*
X46759749Y-82189184D01*
X46750903Y-82189500D01*
X45052129Y-82189500D01*
X45052123Y-82189501D01*
X44992516Y-82195908D01*
X44857671Y-82246202D01*
X44857664Y-82246206D01*
X44742455Y-82332452D01*
X44742452Y-82332455D01*
X44656206Y-82447664D01*
X44656202Y-82447671D01*
X44605908Y-82582517D01*
X44599501Y-82642116D01*
X44599501Y-82642123D01*
X44599500Y-82642135D01*
X44599500Y-85937870D01*
X44599501Y-85937876D01*
X44605908Y-85997483D01*
X44656202Y-86132328D01*
X44656206Y-86132335D01*
X44742452Y-86247544D01*
X44742455Y-86247547D01*
X44857664Y-86333793D01*
X44857671Y-86333797D01*
X44992517Y-86384091D01*
X44992516Y-86384091D01*
X44999444Y-86384835D01*
X45052127Y-86390500D01*
X47147872Y-86390499D01*
X47207483Y-86384091D01*
X47342331Y-86333796D01*
X47457546Y-86247546D01*
X47543796Y-86132331D01*
X47594091Y-85997483D01*
X47600500Y-85937873D01*
X47600499Y-83039095D01*
X47620184Y-82972057D01*
X47672987Y-82926302D01*
X47742146Y-82916358D01*
X47805702Y-82945383D01*
X47812180Y-82951415D01*
X57000981Y-92140216D01*
X57034466Y-92201539D01*
X57037300Y-92227897D01*
X57037300Y-123594602D01*
X57017615Y-123661641D01*
X56964811Y-123707396D01*
X56895653Y-123717340D01*
X56832097Y-123688315D01*
X56825619Y-123682283D01*
X43636819Y-110493483D01*
X43603334Y-110432160D01*
X43600500Y-110405802D01*
X43600500Y-93244067D01*
X43620185Y-93177028D01*
X43668205Y-93133582D01*
X43786433Y-93073343D01*
X43977510Y-92934517D01*
X44144517Y-92767510D01*
X44283343Y-92576433D01*
X44390568Y-92365992D01*
X44463553Y-92141368D01*
X44463735Y-92140216D01*
X44500500Y-91908097D01*
X44500500Y-91671902D01*
X44463553Y-91438631D01*
X44390566Y-91214003D01*
X44334002Y-91102991D01*
X44283343Y-91003567D01*
X44144517Y-90812490D01*
X43977510Y-90645483D01*
X43786433Y-90506657D01*
X43776388Y-90501539D01*
X43575996Y-90399433D01*
X43351368Y-90326446D01*
X43118097Y-90289500D01*
X43118092Y-90289500D01*
X42881908Y-90289500D01*
X42881903Y-90289500D01*
X42648631Y-90326446D01*
X42424003Y-90399433D01*
X42213566Y-90506657D01*
X42104550Y-90585862D01*
X42022490Y-90645483D01*
X42022488Y-90645485D01*
X42022487Y-90645485D01*
X41855485Y-90812487D01*
X41855485Y-90812488D01*
X41855483Y-90812490D01*
X41826674Y-90852142D01*
X41716657Y-91003566D01*
X41609433Y-91214003D01*
X41536446Y-91438631D01*
X41499500Y-91671902D01*
X41499500Y-91908097D01*
X41536446Y-92141368D01*
X41609433Y-92365996D01*
X41716657Y-92576433D01*
X41855483Y-92767510D01*
X42022490Y-92934517D01*
X42125779Y-93009561D01*
X42213568Y-93073344D01*
X42251298Y-93092568D01*
X42331794Y-93133582D01*
X42382590Y-93181556D01*
X42399500Y-93244067D01*
X42399500Y-110619230D01*
X42399499Y-110619248D01*
X42399499Y-110784954D01*
X42399498Y-110784954D01*
X42440423Y-110937685D01*
X42452123Y-110957949D01*
X42452125Y-110957952D01*
X42519479Y-111074614D01*
X42519481Y-111074617D01*
X42638349Y-111193485D01*
X42638355Y-111193490D01*
X58852685Y-127407821D01*
X58886170Y-127469144D01*
X58881186Y-127538836D01*
X58852686Y-127583183D01*
X58773114Y-127662755D01*
X58657058Y-127822495D01*
X58567408Y-127998441D01*
X58506389Y-128186236D01*
X58475500Y-128381263D01*
X58475500Y-128578736D01*
X58506389Y-128773763D01*
X58547408Y-128900005D01*
X58567409Y-128961561D01*
X58657056Y-129137501D01*
X58657058Y-129137504D01*
X58773115Y-129297246D01*
X58912753Y-129436884D01*
X59062234Y-129545486D01*
X59072499Y-129552944D01*
X59242404Y-129639516D01*
X59293199Y-129687490D01*
X59309994Y-129755311D01*
X59287456Y-129821446D01*
X59242404Y-129860483D01*
X59085321Y-129940522D01*
X59072495Y-129947058D01*
X58912753Y-130063115D01*
X58773115Y-130202753D01*
X58657058Y-130362495D01*
X58567408Y-130538441D01*
X58506389Y-130726236D01*
X58475500Y-130921263D01*
X58475500Y-131118736D01*
X58506389Y-131313763D01*
X58567408Y-131501558D01*
X58567409Y-131501561D01*
X58657056Y-131677501D01*
X58657058Y-131677504D01*
X58773115Y-131837246D01*
X58819685Y-131883816D01*
X58853170Y-131945139D01*
X58848186Y-132014831D01*
X58819685Y-132059178D01*
X58284886Y-132593978D01*
X58173081Y-132705782D01*
X58173079Y-132705785D01*
X58139611Y-132763755D01*
X58139610Y-132763757D01*
X58094023Y-132842714D01*
X58094023Y-132842715D01*
X58053099Y-132995443D01*
X58053099Y-132995445D01*
X58053099Y-133163546D01*
X58053100Y-133163559D01*
X58053100Y-136518030D01*
X58053099Y-136518048D01*
X58053099Y-136683754D01*
X58053098Y-136683754D01*
X58094024Y-136836489D01*
X58094025Y-136836490D01*
X58114271Y-136871556D01*
X58114272Y-136871558D01*
X58173075Y-136973409D01*
X58173081Y-136973417D01*
X58291949Y-137092285D01*
X58291955Y-137092290D01*
X58810084Y-137610420D01*
X58843569Y-137671743D01*
X58838585Y-137741435D01*
X58810086Y-137785780D01*
X58773123Y-137822743D01*
X58773117Y-137822751D01*
X58657058Y-137982495D01*
X58567408Y-138158441D01*
X58506389Y-138346236D01*
X58475500Y-138541263D01*
X58475500Y-138738736D01*
X58506389Y-138933763D01*
X58547408Y-139060005D01*
X58567409Y-139121561D01*
X58657056Y-139297501D01*
X58657058Y-139297504D01*
X58773115Y-139457246D01*
X58912753Y-139596884D01*
X59062234Y-139705486D01*
X59072499Y-139712944D01*
X59242404Y-139799516D01*
X59293199Y-139847490D01*
X59309994Y-139915311D01*
X59287456Y-139981446D01*
X59242404Y-140020483D01*
X59085321Y-140100522D01*
X59072495Y-140107058D01*
X58912753Y-140223115D01*
X58773115Y-140362753D01*
X58657058Y-140522495D01*
X58567408Y-140698441D01*
X58506389Y-140886236D01*
X58475500Y-141081263D01*
X58475500Y-141278736D01*
X58506389Y-141473763D01*
X58558298Y-141633521D01*
X58567409Y-141661561D01*
X58657056Y-141837501D01*
X58657058Y-141837504D01*
X58773115Y-141997246D01*
X58912753Y-142136884D01*
X59062234Y-142245486D01*
X59072499Y-142252944D01*
X59242404Y-142339516D01*
X59293199Y-142387490D01*
X59309994Y-142455311D01*
X59287456Y-142521446D01*
X59242404Y-142560483D01*
X59085321Y-142640522D01*
X59072495Y-142647058D01*
X58912753Y-142763115D01*
X58773115Y-142902753D01*
X58654192Y-143066440D01*
X58652761Y-143065400D01*
X58650708Y-143067258D01*
X58646395Y-143076703D01*
X58625239Y-143090298D01*
X58606593Y-143107167D01*
X58594790Y-143109867D01*
X58587617Y-143114477D01*
X58552682Y-143119500D01*
X58402797Y-143119500D01*
X58335758Y-143099815D01*
X58315116Y-143083181D01*
X42899674Y-127667739D01*
X42866189Y-127606416D01*
X42865738Y-127604249D01*
X42834838Y-127448910D01*
X42834837Y-127448903D01*
X42834835Y-127448898D01*
X42774497Y-127303227D01*
X42774490Y-127303214D01*
X42686889Y-127172111D01*
X42686886Y-127172107D01*
X42575392Y-127060613D01*
X42575388Y-127060610D01*
X42444285Y-126973009D01*
X42444272Y-126973002D01*
X42298601Y-126912664D01*
X42298589Y-126912661D01*
X42143945Y-126881900D01*
X42143942Y-126881900D01*
X41986258Y-126881900D01*
X41986257Y-126881900D01*
X41955889Y-126887940D01*
X41886298Y-126881711D01*
X41831121Y-126838847D01*
X41807878Y-126772957D01*
X41807700Y-126766322D01*
X41807700Y-96387960D01*
X41807701Y-96387947D01*
X41807701Y-96219844D01*
X41766776Y-96067114D01*
X41766773Y-96067109D01*
X41687724Y-95930190D01*
X41687718Y-95930182D01*
X39195951Y-93438416D01*
X39162466Y-93377093D01*
X39167450Y-93307401D01*
X39209322Y-93251468D01*
X39240306Y-93234551D01*
X39242331Y-93233796D01*
X39357546Y-93147546D01*
X39443796Y-93032331D01*
X39494091Y-92897483D01*
X39500500Y-92837873D01*
X39500499Y-90742128D01*
X39494091Y-90682517D01*
X39480278Y-90645483D01*
X39443797Y-90547671D01*
X39443793Y-90547664D01*
X39357547Y-90432455D01*
X39357544Y-90432452D01*
X39242335Y-90346206D01*
X39242328Y-90346202D01*
X39107482Y-90295908D01*
X39107483Y-90295908D01*
X39047883Y-90289501D01*
X39047881Y-90289500D01*
X39047873Y-90289500D01*
X39047864Y-90289500D01*
X36952129Y-90289500D01*
X36952123Y-90289501D01*
X36892516Y-90295908D01*
X36757671Y-90346202D01*
X36757664Y-90346206D01*
X36642455Y-90432452D01*
X36642452Y-90432455D01*
X36556206Y-90547664D01*
X36556202Y-90547671D01*
X36505908Y-90682517D01*
X36499501Y-90742116D01*
X36499501Y-90742123D01*
X36499500Y-90742135D01*
X28500500Y-90742135D01*
X28500500Y-82642135D01*
X33399500Y-82642135D01*
X33399500Y-85937870D01*
X33399501Y-85937876D01*
X33405908Y-85997483D01*
X33456202Y-86132328D01*
X33456206Y-86132335D01*
X33542452Y-86247544D01*
X33542455Y-86247547D01*
X33657664Y-86333793D01*
X33657671Y-86333797D01*
X33792517Y-86384091D01*
X33792516Y-86384091D01*
X33799444Y-86384835D01*
X33852127Y-86390500D01*
X35947872Y-86390499D01*
X36007483Y-86384091D01*
X36142331Y-86333796D01*
X36257546Y-86247546D01*
X36343796Y-86132331D01*
X36394091Y-85997483D01*
X36400500Y-85937873D01*
X36400499Y-82642128D01*
X36394091Y-82582517D01*
X36343796Y-82447669D01*
X36343795Y-82447668D01*
X36343793Y-82447664D01*
X36257547Y-82332455D01*
X36257544Y-82332452D01*
X36142335Y-82246206D01*
X36142328Y-82246202D01*
X36007482Y-82195908D01*
X36007483Y-82195908D01*
X35947883Y-82189501D01*
X35947881Y-82189500D01*
X35947873Y-82189500D01*
X35947864Y-82189500D01*
X33852129Y-82189500D01*
X33852123Y-82189501D01*
X33792516Y-82195908D01*
X33657671Y-82246202D01*
X33657664Y-82246206D01*
X33542455Y-82332452D01*
X33542452Y-82332455D01*
X33456206Y-82447664D01*
X33456202Y-82447671D01*
X33405908Y-82582517D01*
X33399501Y-82642116D01*
X33399501Y-82642123D01*
X33399500Y-82642135D01*
X28500500Y-82642135D01*
X28500500Y-67702135D01*
X36499500Y-67702135D01*
X36499500Y-69797870D01*
X36499501Y-69797876D01*
X36505908Y-69857483D01*
X36556202Y-69992328D01*
X36556206Y-69992335D01*
X36642452Y-70107544D01*
X36642455Y-70107547D01*
X36757664Y-70193793D01*
X36757671Y-70193797D01*
X36892517Y-70244091D01*
X36892516Y-70244091D01*
X36899444Y-70244835D01*
X36952127Y-70250500D01*
X39047872Y-70250499D01*
X39107483Y-70244091D01*
X39242331Y-70193796D01*
X39357546Y-70107546D01*
X39443796Y-69992331D01*
X39494091Y-69857483D01*
X39500500Y-69797873D01*
X39500499Y-68631902D01*
X41499500Y-68631902D01*
X41499500Y-68868097D01*
X41536446Y-69101368D01*
X41609433Y-69325996D01*
X41716657Y-69536433D01*
X41855483Y-69727510D01*
X42022490Y-69894517D01*
X42213567Y-70033343D01*
X42312991Y-70084002D01*
X42424003Y-70140566D01*
X42424005Y-70140566D01*
X42424008Y-70140568D01*
X42495641Y-70163843D01*
X42648631Y-70213553D01*
X42881903Y-70250500D01*
X42881908Y-70250500D01*
X43118097Y-70250500D01*
X43351368Y-70213553D01*
X43575992Y-70140568D01*
X43786433Y-70033343D01*
X43977510Y-69894517D01*
X44144517Y-69727510D01*
X44283343Y-69536433D01*
X44390568Y-69325992D01*
X44463553Y-69101368D01*
X44500500Y-68868097D01*
X44500500Y-68631902D01*
X44463553Y-68398631D01*
X44390566Y-68174003D01*
X44283342Y-67963566D01*
X44144517Y-67772490D01*
X43977510Y-67605483D01*
X43786433Y-67466657D01*
X43748700Y-67447431D01*
X43575996Y-67359433D01*
X43351368Y-67286446D01*
X43118097Y-67249500D01*
X43118092Y-67249500D01*
X42881908Y-67249500D01*
X42881903Y-67249500D01*
X42648631Y-67286446D01*
X42424003Y-67359433D01*
X42213566Y-67466657D01*
X42157119Y-67507669D01*
X42022490Y-67605483D01*
X42022488Y-67605485D01*
X42022487Y-67605485D01*
X41855485Y-67772487D01*
X41855485Y-67772488D01*
X41855483Y-67772490D01*
X41795862Y-67854550D01*
X41716657Y-67963566D01*
X41609433Y-68174003D01*
X41536446Y-68398631D01*
X41499500Y-68631902D01*
X39500499Y-68631902D01*
X39500499Y-67702128D01*
X39494091Y-67642517D01*
X39480278Y-67605483D01*
X39443797Y-67507671D01*
X39443793Y-67507664D01*
X39357547Y-67392455D01*
X39357544Y-67392452D01*
X39242335Y-67306206D01*
X39242328Y-67306202D01*
X39107482Y-67255908D01*
X39107483Y-67255908D01*
X39047883Y-67249501D01*
X39047881Y-67249500D01*
X39047873Y-67249500D01*
X39047864Y-67249500D01*
X36952129Y-67249500D01*
X36952123Y-67249501D01*
X36892516Y-67255908D01*
X36757671Y-67306202D01*
X36757664Y-67306206D01*
X36642455Y-67392452D01*
X36642452Y-67392455D01*
X36556206Y-67507664D01*
X36556202Y-67507671D01*
X36505908Y-67642517D01*
X36499501Y-67702116D01*
X36499501Y-67702123D01*
X36499500Y-67702135D01*
X28500500Y-67702135D01*
X28500500Y-59602135D01*
X33399500Y-59602135D01*
X33399500Y-62897870D01*
X33399501Y-62897876D01*
X33405908Y-62957483D01*
X33456202Y-63092328D01*
X33456206Y-63092335D01*
X33542452Y-63207544D01*
X33542455Y-63207547D01*
X33657664Y-63293793D01*
X33657671Y-63293797D01*
X33792517Y-63344091D01*
X33792516Y-63344091D01*
X33799444Y-63344835D01*
X33852127Y-63350500D01*
X35947872Y-63350499D01*
X36007483Y-63344091D01*
X36142331Y-63293796D01*
X36257546Y-63207546D01*
X36343796Y-63092331D01*
X36394091Y-62957483D01*
X36400500Y-62897873D01*
X36400499Y-59602128D01*
X36394091Y-59542517D01*
X36343796Y-59407669D01*
X36343795Y-59407668D01*
X36343793Y-59407664D01*
X36257547Y-59292455D01*
X36257544Y-59292452D01*
X36142335Y-59206206D01*
X36142328Y-59206202D01*
X36007482Y-59155908D01*
X36007483Y-59155908D01*
X35947883Y-59149501D01*
X35947881Y-59149500D01*
X35947873Y-59149500D01*
X35947864Y-59149500D01*
X33852129Y-59149500D01*
X33852123Y-59149501D01*
X33792516Y-59155908D01*
X33657671Y-59206202D01*
X33657664Y-59206206D01*
X33542455Y-59292452D01*
X33542452Y-59292455D01*
X33456206Y-59407664D01*
X33456202Y-59407671D01*
X33405908Y-59542517D01*
X33399501Y-59602116D01*
X33399501Y-59602123D01*
X33399500Y-59602135D01*
X28500500Y-59602135D01*
X28500500Y-44452135D01*
X36499500Y-44452135D01*
X36499500Y-46547870D01*
X36499501Y-46547876D01*
X36505908Y-46607483D01*
X36556202Y-46742328D01*
X36556206Y-46742335D01*
X36642452Y-46857544D01*
X36642455Y-46857547D01*
X36757664Y-46943793D01*
X36757671Y-46943797D01*
X36892517Y-46994091D01*
X36892516Y-46994091D01*
X36899444Y-46994835D01*
X36952127Y-47000500D01*
X39047872Y-47000499D01*
X39107483Y-46994091D01*
X39242331Y-46943796D01*
X39357546Y-46857546D01*
X39443796Y-46742331D01*
X39494091Y-46607483D01*
X39500500Y-46547873D01*
X39500499Y-45381902D01*
X41499500Y-45381902D01*
X41499500Y-45618097D01*
X41536446Y-45851368D01*
X41609433Y-46075996D01*
X41638866Y-46133760D01*
X41716657Y-46286433D01*
X41855483Y-46477510D01*
X42022490Y-46644517D01*
X42213567Y-46783343D01*
X42312991Y-46834002D01*
X42424003Y-46890566D01*
X42424005Y-46890566D01*
X42424008Y-46890568D01*
X42544412Y-46929689D01*
X42648631Y-46963553D01*
X42881903Y-47000500D01*
X42881908Y-47000500D01*
X43118097Y-47000500D01*
X43351368Y-46963553D01*
X43575992Y-46890568D01*
X43786433Y-46783343D01*
X43977510Y-46644517D01*
X44144517Y-46477510D01*
X44283343Y-46286433D01*
X44390568Y-46075992D01*
X44463553Y-45851368D01*
X44480847Y-45742179D01*
X44500500Y-45618097D01*
X44500500Y-45381902D01*
X44463553Y-45148631D01*
X44429689Y-45044412D01*
X44390568Y-44924008D01*
X44390566Y-44924005D01*
X44390566Y-44924003D01*
X44334002Y-44812991D01*
X44283343Y-44713567D01*
X44144517Y-44522490D01*
X43977510Y-44355483D01*
X43786433Y-44216657D01*
X43575996Y-44109433D01*
X43351368Y-44036446D01*
X43118097Y-43999500D01*
X43118092Y-43999500D01*
X42881908Y-43999500D01*
X42881903Y-43999500D01*
X42648631Y-44036446D01*
X42424003Y-44109433D01*
X42213566Y-44216657D01*
X42157119Y-44257669D01*
X42022490Y-44355483D01*
X42022488Y-44355485D01*
X42022487Y-44355485D01*
X41855485Y-44522487D01*
X41855485Y-44522488D01*
X41855483Y-44522490D01*
X41795862Y-44604550D01*
X41716657Y-44713566D01*
X41609433Y-44924003D01*
X41536446Y-45148631D01*
X41499500Y-45381902D01*
X39500499Y-45381902D01*
X39500499Y-44452128D01*
X39494091Y-44392517D01*
X39480278Y-44355483D01*
X39443797Y-44257671D01*
X39443793Y-44257664D01*
X39357547Y-44142455D01*
X39357544Y-44142452D01*
X39242335Y-44056206D01*
X39242328Y-44056202D01*
X39107482Y-44005908D01*
X39107483Y-44005908D01*
X39047883Y-43999501D01*
X39047881Y-43999500D01*
X39047873Y-43999500D01*
X39047864Y-43999500D01*
X36952129Y-43999500D01*
X36952123Y-43999501D01*
X36892516Y-44005908D01*
X36757671Y-44056202D01*
X36757664Y-44056206D01*
X36642455Y-44142452D01*
X36642452Y-44142455D01*
X36556206Y-44257664D01*
X36556202Y-44257671D01*
X36505908Y-44392517D01*
X36499501Y-44452116D01*
X36499501Y-44452123D01*
X36499500Y-44452135D01*
X28500500Y-44452135D01*
X28500500Y-36352135D01*
X33399500Y-36352135D01*
X33399500Y-39647870D01*
X33399501Y-39647876D01*
X33405908Y-39707483D01*
X33456202Y-39842328D01*
X33456206Y-39842335D01*
X33542452Y-39957544D01*
X33542455Y-39957547D01*
X33657664Y-40043793D01*
X33657671Y-40043797D01*
X33792517Y-40094091D01*
X33792516Y-40094091D01*
X33798107Y-40094692D01*
X33852127Y-40100500D01*
X35947872Y-40100499D01*
X36007483Y-40094091D01*
X36142331Y-40043796D01*
X36257546Y-39957546D01*
X36343796Y-39842331D01*
X36394091Y-39707483D01*
X36400500Y-39647873D01*
X36400499Y-36352135D01*
X44599500Y-36352135D01*
X44599500Y-39647870D01*
X44599501Y-39647876D01*
X44605908Y-39707483D01*
X44656202Y-39842328D01*
X44656206Y-39842335D01*
X44742452Y-39957544D01*
X44742455Y-39957547D01*
X44857664Y-40043793D01*
X44857671Y-40043797D01*
X44992517Y-40094091D01*
X44992516Y-40094091D01*
X44998107Y-40094692D01*
X45052127Y-40100500D01*
X47147872Y-40100499D01*
X47207483Y-40094091D01*
X47342331Y-40043796D01*
X47457546Y-39957546D01*
X47543796Y-39842331D01*
X47594091Y-39707483D01*
X47600500Y-39647873D01*
X47600499Y-36352128D01*
X47594091Y-36292517D01*
X47543796Y-36157669D01*
X47543795Y-36157668D01*
X47543793Y-36157664D01*
X47457547Y-36042455D01*
X47457544Y-36042452D01*
X47342335Y-35956206D01*
X47342328Y-35956202D01*
X47207482Y-35905908D01*
X47207483Y-35905908D01*
X47147883Y-35899501D01*
X47147881Y-35899500D01*
X47147873Y-35899500D01*
X47147864Y-35899500D01*
X45052129Y-35899500D01*
X45052123Y-35899501D01*
X44992516Y-35905908D01*
X44857671Y-35956202D01*
X44857664Y-35956206D01*
X44742455Y-36042452D01*
X44742452Y-36042455D01*
X44656206Y-36157664D01*
X44656202Y-36157671D01*
X44605908Y-36292517D01*
X44599501Y-36352116D01*
X44599501Y-36352123D01*
X44599500Y-36352135D01*
X36400499Y-36352135D01*
X36400499Y-36352128D01*
X36394091Y-36292517D01*
X36343796Y-36157669D01*
X36343795Y-36157668D01*
X36343793Y-36157664D01*
X36257547Y-36042455D01*
X36257544Y-36042452D01*
X36142335Y-35956206D01*
X36142328Y-35956202D01*
X36007482Y-35905908D01*
X36007483Y-35905908D01*
X35947883Y-35899501D01*
X35947881Y-35899500D01*
X35947873Y-35899500D01*
X35947864Y-35899500D01*
X33852129Y-35899500D01*
X33852123Y-35899501D01*
X33792516Y-35905908D01*
X33657671Y-35956202D01*
X33657664Y-35956206D01*
X33542455Y-36042452D01*
X33542452Y-36042455D01*
X33456206Y-36157664D01*
X33456202Y-36157671D01*
X33405908Y-36292517D01*
X33399501Y-36352116D01*
X33399501Y-36352123D01*
X33399500Y-36352135D01*
X28500500Y-36352135D01*
X28500500Y-30881902D01*
X41499500Y-30881902D01*
X41499500Y-31118097D01*
X41536446Y-31351368D01*
X41609433Y-31575996D01*
X41716657Y-31786433D01*
X41855483Y-31977510D01*
X42022490Y-32144517D01*
X42213567Y-32283343D01*
X42312991Y-32334002D01*
X42424003Y-32390566D01*
X42424005Y-32390566D01*
X42424008Y-32390568D01*
X42507041Y-32417547D01*
X42648631Y-32463553D01*
X42881903Y-32500500D01*
X42881908Y-32500500D01*
X43118097Y-32500500D01*
X43351368Y-32463553D01*
X43575992Y-32390568D01*
X43786433Y-32283343D01*
X43977510Y-32144517D01*
X44144517Y-31977510D01*
X44283343Y-31786433D01*
X44390568Y-31575992D01*
X44463553Y-31351368D01*
X44500500Y-31118097D01*
X44500500Y-30881902D01*
X44463553Y-30648631D01*
X44390566Y-30424003D01*
X44283342Y-30213566D01*
X44144517Y-30022490D01*
X43977510Y-29855483D01*
X43786433Y-29716657D01*
X43575996Y-29609433D01*
X43351368Y-29536446D01*
X43118097Y-29499500D01*
X43118092Y-29499500D01*
X42881908Y-29499500D01*
X42881903Y-29499500D01*
X42648631Y-29536446D01*
X42424003Y-29609433D01*
X42213566Y-29716657D01*
X42104550Y-29795862D01*
X42022490Y-29855483D01*
X42022488Y-29855485D01*
X42022487Y-29855485D01*
X41855485Y-30022487D01*
X41855485Y-30022488D01*
X41855483Y-30022490D01*
X41795862Y-30104550D01*
X41716657Y-30213566D01*
X41609433Y-30424003D01*
X41536446Y-30648631D01*
X41499500Y-30881902D01*
X28500500Y-30881902D01*
X28500500Y-26127299D01*
X28520185Y-26060260D01*
X28572989Y-26014505D01*
X28624500Y-26003299D01*
X83882207Y-26003299D01*
X83949246Y-26022984D01*
G37*
%TD.AperFunction*%
%TD*%
M02*
