%TF.GenerationSoftware,KiCad,Pcbnew,10.0.1*%
%TF.CreationDate,2026-05-03T00:17:08+02:00*%
%TF.ProjectId,cellSymphony,63656c6c-5379-46d7-9068-6f6e792e6b69,rev?*%
%TF.SameCoordinates,Original*%
%TF.FileFunction,Soldermask,Bot*%
%TF.FilePolarity,Negative*%
%FSLAX46Y46*%
G04 Gerber Fmt 4.6, Leading zero omitted, Abs format (unit mm)*
G04 Created by KiCad (PCBNEW 10.0.1) date 2026-05-03 00:17:08*
%MOMM*%
%LPD*%
G01*
G04 APERTURE LIST*
G04 Aperture macros list*
%AMRoundRect*
0 Rectangle with rounded corners*
0 $1 Rounding radius*
0 $2 $3 $4 $5 $6 $7 $8 $9 X,Y pos of 4 corners*
0 Add a 4 corners polygon primitive as box body*
4,1,4,$2,$3,$4,$5,$6,$7,$8,$9,$2,$3,0*
0 Add four circle primitives for the rounded corners*
1,1,$1+$1,$2,$3*
1,1,$1+$1,$4,$5*
1,1,$1+$1,$6,$7*
1,1,$1+$1,$8,$9*
0 Add four rect primitives between the rounded corners*
20,1,$1+$1,$2,$3,$4,$5,0*
20,1,$1+$1,$4,$5,$6,$7,0*
20,1,$1+$1,$6,$7,$8,$9,0*
20,1,$1+$1,$8,$9,$2,$3,0*%
G04 Aperture macros list end*
%ADD10C,2.750000*%
%ADD11RoundRect,0.102000X-0.754000X0.754000X-0.754000X-0.754000X0.754000X-0.754000X0.754000X0.754000X0*%
%ADD12C,1.712000*%
%ADD13R,2.000000X2.000000*%
%ADD14C,2.000000*%
%ADD15R,2.000000X3.200000*%
%ADD16R,1.700000X1.700000*%
%ADD17C,1.700000*%
G04 APERTURE END LIST*
D10*
%TO.C,U1*%
X61000000Y-103290000D03*
X38000000Y-103290000D03*
X61000000Y-161290000D03*
X38000000Y-161290000D03*
D11*
X59730000Y-108160000D03*
D12*
X62270000Y-108160000D03*
X59730000Y-110700000D03*
X62270000Y-110700000D03*
X59730000Y-113240000D03*
X62270000Y-113240000D03*
X59730000Y-115780000D03*
X62270000Y-115780000D03*
X59730000Y-118320000D03*
X62270000Y-118320000D03*
X59730000Y-120860000D03*
X62270000Y-120860000D03*
X59730000Y-123400000D03*
X62270000Y-123400000D03*
X59730000Y-125940000D03*
X62270000Y-125940000D03*
X59730000Y-128480000D03*
X62270000Y-128480000D03*
X59730000Y-131020000D03*
X62270000Y-131020000D03*
X59730000Y-133560000D03*
X62270000Y-133560000D03*
X59730000Y-136100000D03*
X62270000Y-136100000D03*
X59730000Y-138640000D03*
X62270000Y-138640000D03*
X59730000Y-141180000D03*
X62270000Y-141180000D03*
X59730000Y-143720000D03*
X62270000Y-143720000D03*
X59730000Y-146260000D03*
X62270000Y-146260000D03*
X59730000Y-148800000D03*
X62270000Y-148800000D03*
X59730000Y-151340000D03*
X62270000Y-151340000D03*
X59730000Y-153880000D03*
X62270000Y-153880000D03*
X59730000Y-156420000D03*
X62270000Y-156420000D03*
%TD*%
D13*
%TO.C,SW2*%
X38000000Y-68750000D03*
D14*
X43000000Y-68750000D03*
X40500000Y-68750000D03*
D15*
X34900000Y-61250000D03*
X46100000Y-61250000D03*
D14*
X43000000Y-54250000D03*
X38000000Y-54250000D03*
%TD*%
D16*
%TO.C,ADA6250*%
X77500000Y-125460000D03*
D17*
X77500000Y-128000000D03*
X77500000Y-130540000D03*
X77500000Y-133080000D03*
X77500000Y-135620000D03*
X77500000Y-138160000D03*
%TD*%
D16*
%TO.C,NeoKey*%
X77500000Y-98500000D03*
D17*
X77500000Y-101040000D03*
X77500000Y-103580000D03*
X77500000Y-106120000D03*
%TD*%
D16*
%TO.C,Neotrellis*%
X77500000Y-111920000D03*
D17*
X77500000Y-114460000D03*
X77500000Y-117000000D03*
X77500000Y-119540000D03*
%TD*%
D16*
%TO.C,ADA4090*%
X77500000Y-145960000D03*
D17*
X77500000Y-148500000D03*
X77500000Y-151040000D03*
X77500000Y-153580000D03*
%TD*%
D13*
%TO.C,SW4*%
X38000000Y-91790000D03*
D14*
X43000000Y-91790000D03*
X40500000Y-91790000D03*
D15*
X34900000Y-84290000D03*
X46100000Y-84290000D03*
D14*
X43000000Y-77290000D03*
X38000000Y-77290000D03*
%TD*%
D13*
%TO.C,SW3*%
X60500000Y-68750000D03*
D14*
X65500000Y-68750000D03*
X63000000Y-68750000D03*
D15*
X57400000Y-61250000D03*
X68600000Y-61250000D03*
D14*
X65500000Y-54250000D03*
X60500000Y-54250000D03*
%TD*%
D13*
%TO.C,SW5*%
X60500000Y-91790000D03*
D14*
X65500000Y-91790000D03*
X63000000Y-91790000D03*
D15*
X57400000Y-84290000D03*
X68600000Y-84290000D03*
D14*
X65500000Y-77290000D03*
X60500000Y-77290000D03*
%TD*%
D13*
%TO.C,SW1*%
X38000000Y-45500000D03*
D14*
X43000000Y-45500000D03*
X40500000Y-45500000D03*
D15*
X34900000Y-38000000D03*
X46100000Y-38000000D03*
D14*
X43000000Y-31000000D03*
X38000000Y-31000000D03*
%TD*%
D16*
%TO.C,OLED*%
X77500000Y-31210000D03*
D17*
X77500000Y-33750000D03*
X77500000Y-36290000D03*
X77500000Y-38830000D03*
X77500000Y-41370000D03*
X77500000Y-43910000D03*
X77500000Y-46450000D03*
%TD*%
M02*
