<svg xmlns="http://www.w3.org/2000/svg" width="1542" height="900" viewBox="0 0 1542 900">
<rect width="100%" height="100%" fill="white"/>
<rect x="30.00" y="30.00" width="1482.00" height="840.00" fill="none" stroke="#777" stroke-width="2.0" />
<polygon points="1512.00,870.00 1512.00,30.00 720.00,30.00 651.00,30.00 651.00,47.62 651.00,65.24 651.00,82.86 651.00,100.48 651.00,118.10 651.00,135.71 651.00,153.33 651.00,170.95 651.00,188.57 651.00,206.19 651.00,223.81 651.00,241.43 651.00,259.05 651.00,276.67 651.00,294.29 651.00,311.90 651.00,329.52 651.00,347.14 651.00,364.76 651.00,382.38 651.00,400.04 650.97,422.10 650.76,445.14 650.18,468.94 649.04,493.26 647.11,517.89 644.18,542.62 639.99,567.28 634.23,591.70 626.53,615.71 616.47,639.08 603.52,661.47 587.20,682.34 567.19,700.85 543.55,716.05 516.80,727.11 487.59,733.64 456.39,735.65 423.32,733.32 388.20,726.79 350.74,716.10 313.52,702.26 300.93,698.82 286.86,696.16 272.18,694.60 257.07,694.17 241.72,694.91 226.31,696.83 211.01,699.95 195.99,704.24 181.43,709.70 167.45,716.31 154.20,724.04 141.79,732.86 130.30,742.78 119.82,753.80 110.39,765.97 102.09,779.35 94.97,794.06 89.16,810.23 84.77,828.01 81.98,847.54 80.95,871.33 1512.00,870.00" fill="rgba(70,120,255,0.18)" stroke="#4678ff" stroke-width="1"/>
<polygon points="660.00,870.00 720.00,870.00 720.00,613.36 660.00,613.36" fill="rgba(70,120,255,0.10)" stroke="#4678ff" stroke-width="1"/>
<polygon points="660.00,870.00 660.00,613.36 627.29,613.36 616.47,639.08 603.52,661.47 587.20,682.34 567.19,700.85 543.55,716.05 516.80,727.11 487.59,733.64 456.39,735.65 423.32,733.32 388.20,726.79 350.74,716.10 313.52,702.26 300.93,698.82 286.86,696.16 272.18,694.60 257.07,694.17 241.72,694.91 226.31,696.83 211.01,699.95 195.99,704.24 181.43,709.70 167.45,716.31 154.20,724.04 141.79,732.86 130.30,742.78 119.82,753.80 110.39,765.97 102.09,779.35 94.97,794.06 89.16,810.23 84.77,828.01 81.98,847.54 81.05,869.00" fill="rgba(70,120,255,0.18)" stroke="#4678ff" stroke-width="1"/>
<polygon points="651.00,329.55 651.00,329.52 651.00,311.90 651.00,294.29 651.00,276.67 651.00,259.05 651.00,241.43 651.00,223.81 651.00,206.19 651.00,188.57 651.00,170.95 651.00,153.33 651.00,135.71 651.00,118.10 651.00,100.48 651.00,82.86 651.00,65.24 651.00,47.62 651.00,30.00 600.00,30.00 600.00,47.62 600.00,65.24 600.00,82.86 600.00,100.48 600.00,118.10 600.00,135.71 600.00,153.33 600.00,170.95 600.00,188.57 600.00,206.19 600.00,223.81 600.00,241.43 600.00,259.05 600.00,276.67 600.00,294.29 600.00,311.90 600.00,329.52 600.00,329.55" fill="rgba(0,0,0,0.65)" stroke="black" stroke-width="2"/>
<polygon points="81.05,869.00 81.98,847.54 84.77,828.01 89.16,810.23 94.97,794.06 102.09,779.35 110.39,765.97 119.82,753.80 130.30,742.78 141.79,732.86 154.20,724.04 167.45,716.31 181.43,709.70 195.99,704.24 211.01,699.95 226.31,696.83 241.72,694.91 257.07,694.17 272.18,694.60 286.86,696.16 300.93,698.82 313.52,702.26 350.74,716.10 388.20,726.79 423.32,733.32 456.39,735.65 487.59,733.64 516.80,727.11 543.55,716.05 567.19,700.85 587.20,682.34 603.52,661.47 616.47,639.08 627.29,613.36 572.10,613.36 570.85,616.28 561.20,633.02 549.62,647.86 535.95,660.54 520.00,670.81 501.60,678.43 480.58,683.12 456.76,684.65 429.97,682.75 400.03,677.18 366.76,667.68 330.00,654.00 312.47,649.14 294.29,645.70 275.60,643.71 256.56,643.17 237.32,644.10 218.05,646.51 198.89,650.41 180.00,655.81 161.55,662.74 143.67,671.19 126.53,681.19 110.29,692.75 95.10,705.88 81.11,720.59 68.48,736.90 57.37,754.82 47.93,774.36 40.32,795.53 34.69,818.36 31.20,842.84 30.00,869.00" fill="rgba(0,0,0,0.65)" stroke="black" stroke-width="2"/>
<polyline points="80.95,871.33 81.98,847.54 84.77,828.01 89.16,810.23 94.97,794.06 102.09,779.35 110.39,765.97 119.82,753.80 130.30,742.78 141.79,732.86 154.20,724.04 167.45,716.31 181.43,709.70 195.99,704.24 211.01,699.95 226.31,696.83 241.72,694.91 257.07,694.17 272.18,694.60 286.86,696.16 300.93,698.82 313.52,702.26 350.74,716.10 388.20,726.79 423.32,733.32 456.39,735.65 487.59,733.64 516.80,727.11 543.55,716.05 567.19,700.85 587.20,682.34 603.52,661.47 616.47,639.08 626.53,615.71 634.23,591.70 639.99,567.28 644.18,542.62 647.11,517.89 649.04,493.26 650.18,468.94 650.76,445.14 650.97,422.10 651.00,400.04 651.00,382.38 651.00,364.76 651.00,347.14 651.00,329.52 651.00,311.90 651.00,294.29 651.00,276.67 651.00,259.05 651.00,241.43 651.00,223.81 651.00,206.19 651.00,188.57 651.00,170.95 651.00,153.33 651.00,135.71 651.00,118.10 651.00,100.48 651.00,82.86 651.00,65.24 651.00,47.62 651.00,30.00" fill="none" stroke="#164cff" stroke-width="2"/>
<polyline points="30.00,869.00 31.20,842.84 34.69,818.36 40.32,795.53 47.93,774.36 57.37,754.82 68.48,736.90 81.11,720.59 95.10,705.88 110.29,692.75 126.53,681.19 143.67,671.19 161.55,662.74 180.00,655.81 198.89,650.41 218.05,646.51 237.32,644.10 256.56,643.17 275.60,643.71 294.29,645.70 312.47,649.14 330.00,654.00 366.76,667.68 400.03,677.18 429.97,682.75 456.76,684.65 480.58,683.12 501.60,678.43 520.00,670.81 535.95,660.54 549.62,647.86 561.20,633.02 570.85,616.28 578.75,597.90 585.07,578.11 590.00,557.19 593.70,535.37 596.36,512.92 598.13,490.09 599.21,467.13 599.77,444.29 599.97,421.83 600.00,400.00 600.00,382.38 600.00,364.76 600.00,347.14 600.00,329.52 600.00,311.90 600.00,294.29 600.00,276.67 600.00,259.05 600.00,241.43 600.00,223.81 600.00,206.19 600.00,188.57 600.00,170.95 600.00,153.33 600.00,135.71 600.00,118.10 600.00,100.48 600.00,82.86 600.00,65.24 600.00,47.62 600.00,30.00" fill="none" stroke="#111" stroke-width="2"/>
<rect x="81.00" y="69.00" width="643.50" height="762.00" fill="none" stroke="#1f77b4" stroke-width="2.0" stroke-dasharray="6 3"/>
<rect x="81.00" y="651.00" width="390.00" height="180.00" fill="rgba(0,180,180,0.06)" stroke="#0aa" stroke-width="2.0" stroke-dasharray="4 3"/>
<circle cx="291.00" cy="732.00" r="42.00" fill="rgba(0,180,180,0.12)" stroke="#0aa" stroke-width="2.0"/>
<text x="315.00" y="732.00" font-size="12" fill="#111">Approx Pi SoC/hotspot</text>
<line x1="186.00" y1="824.00" x2="186.00" y2="734.00" stroke="#333" stroke-width="12" stroke-linecap="round"/>
<line x1="246.00" y1="833.00" x2="246.00" y2="725.00" stroke="#333" stroke-width="12" stroke-linecap="round"/>
<line x1="306.00" y1="824.00" x2="306.00" y2="734.00" stroke="#333" stroke-width="12" stroke-linecap="round"/>
<line x1="366.00" y1="810.50" x2="366.00" y2="747.50" stroke="#333" stroke-width="12" stroke-linecap="round"/>
<line x1="426.00" y1="801.50" x2="426.00" y2="756.50" stroke="#333" stroke-width="12" stroke-linecap="round"/>
<rect x="126.00" y="870.00" width="84.00" height="24.00" fill="rgba(0,180,180,0.18)" stroke="#0aa" stroke-width="1.0" />
<text x="126.00" y="852.00" font-size="11" fill="#111">Pi mini-HDMI</text>
<rect x="297.00" y="870.00" width="84.00" height="24.00" fill="rgba(0,180,180,0.18)" stroke="#0aa" stroke-width="1.0" />
<text x="297.00" y="852.00" font-size="11" fill="#111">Pi USB data</text>
<rect x="335.28" y="74.46" width="251.46" height="259.08" fill="rgba(255,0,0,0.05)" stroke="red" stroke-width="2.0" />
<rect x="362.01" y="105.00" width="198.00" height="198.00" fill="none" stroke="red" stroke-width="2.0" />
<circle cx="174.30" cy="322.50" r="69.00" fill="none" stroke="#777" stroke-width="1.5"/>
<circle cx="174.30" cy="322.50" r="57.00" fill="none" stroke="#111" stroke-width="2.0"/>
<text x="204.30" y="334.50" font-size="14" fill="#111">SW1</text>
<circle cx="356.10" cy="435.30" r="60.00" fill="none" stroke="#777" stroke-width="1.5"/>
<circle cx="356.10" cy="435.30" r="48.00" fill="none" stroke="#111" stroke-width="2.0"/>
<text x="386.10" y="447.30" font-size="14" fill="#111">SW2</text>
<circle cx="254.10" cy="573.90" r="60.00" fill="none" stroke="#777" stroke-width="1.5"/>
<circle cx="254.10" cy="573.90" r="48.00" fill="none" stroke="#111" stroke-width="2.0"/>
<text x="284.10" y="585.90" font-size="14" fill="#111">SW3</text>
<circle cx="458.10" cy="573.90" r="60.00" fill="none" stroke="#777" stroke-width="1.5"/>
<circle cx="458.10" cy="573.90" r="48.00" fill="none" stroke="#111" stroke-width="2.0"/>
<text x="488.10" y="585.90" font-size="14" fill="#111">AUX3</text>
<rect x="744.90" y="701.40" width="67.20" height="67.20" fill="none" stroke="orange" stroke-width="0.8" />
<rect x="834.90" y="701.40" width="67.20" height="67.20" fill="none" stroke="orange" stroke-width="0.8" />
<rect x="924.90" y="701.40" width="67.20" height="67.20" fill="none" stroke="orange" stroke-width="0.8" />
<rect x="1014.90" y="701.40" width="67.20" height="67.20" fill="none" stroke="orange" stroke-width="0.8" />
<rect x="1104.90" y="701.40" width="67.20" height="67.20" fill="none" stroke="orange" stroke-width="0.8" />
<rect x="1194.90" y="701.40" width="67.20" height="67.20" fill="none" stroke="orange" stroke-width="0.8" />
<rect x="1284.90" y="701.40" width="67.20" height="67.20" fill="none" stroke="orange" stroke-width="0.8" />
<rect x="1374.90" y="701.40" width="67.20" height="67.20" fill="none" stroke="orange" stroke-width="0.8" />
<rect x="744.90" y="611.40" width="67.20" height="67.20" fill="none" stroke="orange" stroke-width="0.8" />
<rect x="834.90" y="611.40" width="67.20" height="67.20" fill="none" stroke="orange" stroke-width="0.8" />
<rect x="924.90" y="611.40" width="67.20" height="67.20" fill="none" stroke="orange" stroke-width="0.8" />
<rect x="1014.90" y="611.40" width="67.20" height="67.20" fill="none" stroke="orange" stroke-width="0.8" />
<rect x="1104.90" y="611.40" width="67.20" height="67.20" fill="none" stroke="orange" stroke-width="0.8" />
<rect x="1194.90" y="611.40" width="67.20" height="67.20" fill="none" stroke="orange" stroke-width="0.8" />
<rect x="1284.90" y="611.40" width="67.20" height="67.20" fill="none" stroke="orange" stroke-width="0.8" />
<rect x="1374.90" y="611.40" width="67.20" height="67.20" fill="none" stroke="orange" stroke-width="0.8" />
<rect x="744.90" y="521.40" width="67.20" height="67.20" fill="none" stroke="orange" stroke-width="0.8" />
<rect x="834.90" y="521.40" width="67.20" height="67.20" fill="none" stroke="orange" stroke-width="0.8" />
<rect x="924.90" y="521.40" width="67.20" height="67.20" fill="none" stroke="orange" stroke-width="0.8" />
<rect x="1014.90" y="521.40" width="67.20" height="67.20" fill="none" stroke="orange" stroke-width="0.8" />
<rect x="1104.90" y="521.40" width="67.20" height="67.20" fill="none" stroke="orange" stroke-width="0.8" />
<rect x="1194.90" y="521.40" width="67.20" height="67.20" fill="none" stroke="orange" stroke-width="0.8" />
<rect x="1284.90" y="521.40" width="67.20" height="67.20" fill="none" stroke="orange" stroke-width="0.8" />
<rect x="1374.90" y="521.40" width="67.20" height="67.20" fill="none" stroke="orange" stroke-width="0.8" />
<rect x="744.90" y="431.40" width="67.20" height="67.20" fill="none" stroke="orange" stroke-width="0.8" />
<rect x="834.90" y="431.40" width="67.20" height="67.20" fill="none" stroke="orange" stroke-width="0.8" />
<rect x="924.90" y="431.40" width="67.20" height="67.20" fill="none" stroke="orange" stroke-width="0.8" />
<rect x="1014.90" y="431.40" width="67.20" height="67.20" fill="none" stroke="orange" stroke-width="0.8" />
<rect x="1104.90" y="431.40" width="67.20" height="67.20" fill="none" stroke="orange" stroke-width="0.8" />
<rect x="1194.90" y="431.40" width="67.20" height="67.20" fill="none" stroke="orange" stroke-width="0.8" />
<rect x="1284.90" y="431.40" width="67.20" height="67.20" fill="none" stroke="orange" stroke-width="0.8" />
<rect x="1374.90" y="431.40" width="67.20" height="67.20" fill="none" stroke="orange" stroke-width="0.8" />
<rect x="744.90" y="341.40" width="67.20" height="67.20" fill="none" stroke="orange" stroke-width="0.8" />
<rect x="834.90" y="341.40" width="67.20" height="67.20" fill="none" stroke="orange" stroke-width="0.8" />
<rect x="924.90" y="341.40" width="67.20" height="67.20" fill="none" stroke="orange" stroke-width="0.8" />
<rect x="1014.90" y="341.40" width="67.20" height="67.20" fill="none" stroke="orange" stroke-width="0.8" />
<rect x="1104.90" y="341.40" width="67.20" height="67.20" fill="none" stroke="orange" stroke-width="0.8" />
<rect x="1194.90" y="341.40" width="67.20" height="67.20" fill="none" stroke="orange" stroke-width="0.8" />
<rect x="1284.90" y="341.40" width="67.20" height="67.20" fill="none" stroke="orange" stroke-width="0.8" />
<rect x="1374.90" y="341.40" width="67.20" height="67.20" fill="none" stroke="orange" stroke-width="0.8" />
<rect x="744.90" y="251.40" width="67.20" height="67.20" fill="none" stroke="orange" stroke-width="0.8" />
<rect x="834.90" y="251.40" width="67.20" height="67.20" fill="none" stroke="orange" stroke-width="0.8" />
<rect x="924.90" y="251.40" width="67.20" height="67.20" fill="none" stroke="orange" stroke-width="0.8" />
<rect x="1014.90" y="251.40" width="67.20" height="67.20" fill="none" stroke="orange" stroke-width="0.8" />
<rect x="1104.90" y="251.40" width="67.20" height="67.20" fill="none" stroke="orange" stroke-width="0.8" />
<rect x="1194.90" y="251.40" width="67.20" height="67.20" fill="none" stroke="orange" stroke-width="0.8" />
<rect x="1284.90" y="251.40" width="67.20" height="67.20" fill="none" stroke="orange" stroke-width="0.8" />
<rect x="1374.90" y="251.40" width="67.20" height="67.20" fill="none" stroke="orange" stroke-width="0.8" />
<rect x="744.90" y="161.40" width="67.20" height="67.20" fill="none" stroke="orange" stroke-width="0.8" />
<rect x="834.90" y="161.40" width="67.20" height="67.20" fill="none" stroke="orange" stroke-width="0.8" />
<rect x="924.90" y="161.40" width="67.20" height="67.20" fill="none" stroke="orange" stroke-width="0.8" />
<rect x="1014.90" y="161.40" width="67.20" height="67.20" fill="none" stroke="orange" stroke-width="0.8" />
<rect x="1104.90" y="161.40" width="67.20" height="67.20" fill="none" stroke="orange" stroke-width="0.8" />
<rect x="1194.90" y="161.40" width="67.20" height="67.20" fill="none" stroke="orange" stroke-width="0.8" />
<rect x="1284.90" y="161.40" width="67.20" height="67.20" fill="none" stroke="orange" stroke-width="0.8" />
<rect x="1374.90" y="161.40" width="67.20" height="67.20" fill="none" stroke="orange" stroke-width="0.8" />
<rect x="744.90" y="71.40" width="67.20" height="67.20" fill="none" stroke="orange" stroke-width="0.8" />
<rect x="834.90" y="71.40" width="67.20" height="67.20" fill="none" stroke="orange" stroke-width="0.8" />
<rect x="924.90" y="71.40" width="67.20" height="67.20" fill="none" stroke="orange" stroke-width="0.8" />
<rect x="1014.90" y="71.40" width="67.20" height="67.20" fill="none" stroke="orange" stroke-width="0.8" />
<rect x="1104.90" y="71.40" width="67.20" height="67.20" fill="none" stroke="orange" stroke-width="0.8" />
<rect x="1194.90" y="71.40" width="67.20" height="67.20" fill="none" stroke="orange" stroke-width="0.8" />
<rect x="1284.90" y="71.40" width="67.20" height="67.20" fill="none" stroke="orange" stroke-width="0.8" />
<rect x="1374.90" y="71.40" width="67.20" height="67.20" fill="none" stroke="orange" stroke-width="0.8" />
<text x="40" y="22" font-size="18" fill="#111">Current generated top view: black = shoulder slope, blue = high flat tier</text>
<text x="40" y="44" font-size="13" fill="#555">Blue dashed = main PCB keepout; red = OLED; orange = NeoTrellis; AUX3 label marks SW4 crater.</text>
<text x="40" y="62" font-size="13" fill="#555">Cyan = approximate Pi Zero 2 W board and SoC/hotspot target. Gray encoder rings include sloped crater radius.</text>
</svg>