<svg xmlns="http://www.w3.org/2000/svg" viewBox="0 0 514.00 70.00" role="img" aria-label="OCTESSERA wordmark">
  <g fill="#fff">
    <path d="M0.00 0.00 L50.00 0.00 L50.00 11.00 L0.00 11.00 Z"/>
    <path d="M0.00 59.00 L50.00 59.00 L50.00 70.00 L0.00 70.00 Z"/>
    <path d="M0.00 0.00 L11.00 0.00 L11.00 35.00 L0.00 35.00 Z"/>
    <path d="M0.00 35.00 L11.00 35.00 L11.00 70.00 L0.00 70.00 Z"/>
    <path d="M39.00 0.00 L50.00 0.00 L50.00 35.00 L39.00 35.00 Z"/>
    <path d="M39.00 35.00 L50.00 35.00 L50.00 70.00 L39.00 70.00 Z"/>
    <path d="M58.00 0.00 L108.00 0.00 L108.00 11.00 L58.00 11.00 Z"/>
    <path d="M58.00 59.00 L108.00 59.00 L108.00 70.00 L58.00 70.00 Z"/>
    <path d="M58.00 0.00 L69.00 0.00 L69.00 35.00 L58.00 35.00 Z"/>
    <path d="M58.00 35.00 L69.00 35.00 L69.00 70.00 L58.00 70.00 Z"/>
    <path d="M116.00 0.00 L166.00 0.00 L166.00 11.00 L116.00 11.00 Z"/>
    <path d="M135.50 0.00 L146.50 0.00 L146.50 70.00 L135.50 70.00 Z"/>
    <path d="M174.00 0.00 L224.00 0.00 L224.00 11.00 L174.00 11.00 Z"/>
    <path d="M174.00 29.50 L224.00 29.50 L224.00 40.50 L174.00 40.50 Z"/>
    <path d="M174.00 59.00 L224.00 59.00 L224.00 70.00 L174.00 70.00 Z"/>
    <path d="M174.00 0.00 L185.00 0.00 L185.00 35.00 L174.00 35.00 Z"/>
    <path d="M174.00 35.00 L185.00 35.00 L185.00 70.00 L174.00 70.00 Z"/>
    <path d="M232.00 0.00 L282.00 0.00 L282.00 11.00 L232.00 11.00 Z"/>
    <path d="M232.00 29.50 L282.00 29.50 L282.00 40.50 L232.00 40.50 Z"/>
    <path d="M232.00 59.00 L282.00 59.00 L282.00 70.00 L232.00 70.00 Z"/>
    <path d="M232.00 0.00 L243.00 0.00 L243.00 35.00 L232.00 35.00 Z"/>
    <path d="M271.00 35.00 L282.00 35.00 L282.00 70.00 L271.00 70.00 Z"/>
    <path d="M290.00 0.00 L340.00 0.00 L340.00 11.00 L290.00 11.00 Z"/>
    <path d="M290.00 29.50 L340.00 29.50 L340.00 40.50 L290.00 40.50 Z"/>
    <path d="M290.00 59.00 L340.00 59.00 L340.00 70.00 L290.00 70.00 Z"/>
    <path d="M290.00 0.00 L301.00 0.00 L301.00 35.00 L290.00 35.00 Z"/>
    <path d="M329.00 35.00 L340.00 35.00 L340.00 70.00 L329.00 70.00 Z"/>
    <path d="M348.00 0.00 L398.00 0.00 L398.00 11.00 L348.00 11.00 Z"/>
    <path d="M348.00 29.50 L398.00 29.50 L398.00 40.50 L348.00 40.50 Z"/>
    <path d="M348.00 59.00 L398.00 59.00 L398.00 70.00 L348.00 70.00 Z"/>
    <path d="M348.00 0.00 L359.00 0.00 L359.00 35.00 L348.00 35.00 Z"/>
    <path d="M348.00 35.00 L359.00 35.00 L359.00 70.00 L348.00 70.00 Z"/>
    <path d="M406.00 0.00 L456.00 0.00 L456.00 11.00 L406.00 11.00 Z"/>
    <path d="M406.00 29.50 L456.00 29.50 L456.00 40.50 L406.00 40.50 Z"/>
    <path d="M406.00 0.00 L417.00 0.00 L417.00 35.00 L406.00 35.00 Z"/>
    <path d="M406.00 35.00 L417.00 35.00 L417.00 70.00 L406.00 70.00 Z"/>
    <path d="M445.00 0.00 L456.00 0.00 L456.00 35.00 L445.00 35.00 Z"/>
    <path d="M445.00 35.00 L456.00 35.00 L456.00 70.00 L445.00 70.00 L431.00 35.00 L442.00 35.00 Z"/>
    <path d="M464.00 0.00 L514.00 0.00 L514.00 11.00 L464.00 11.00 Z"/>
    <path d="M464.00 29.50 L514.00 29.50 L514.00 40.50 L464.00 40.50 Z"/>
    <path d="M464.00 0.00 L475.00 0.00 L475.00 35.00 L464.00 35.00 Z"/>
    <path d="M464.00 35.00 L475.00 35.00 L475.00 70.00 L464.00 70.00 Z"/>
    <path d="M503.00 0.00 L514.00 0.00 L514.00 35.00 L503.00 35.00 Z"/>
    <path d="M503.00 35.00 L514.00 35.00 L514.00 70.00 L503.00 70.00 Z"/>
  </g>
</svg>
