<svg xmlns="http://www.w3.org/2000/svg" viewBox="0 0 850.18 112.82" role="img" aria-label="OCTESSERA wordmark">
  <g fill="#fff" fill-rule="evenodd">
    <path d="M56 25.44 L53.33 25.57 L48.44 26.58 L44.18 28.61 L40.53 31.66 L38.94 33.56 L37.52 35.69 L35.25 40.58 L33.73 46.3 L32.97 52.85 L32.88 56.44 L32.97 60.01 L33.73 66.53 L35.25 72.24 L37.52 77.12 L38.94 79.26 L40.53 81.16 L44.18 84.21 L48.44 86.24 L53.33 87.25 L56 87.38 L58.69 87.25 L63.59 86.24 L67.87 84.21 L71.53 81.16 L73.12 79.26 L74.54 77.12 L76.81 72.24 L78.33 66.53 L79.09 60.01 L79.18 56.44 L79.09 52.85 L78.33 46.3 L76.81 40.58 L74.54 35.69 L73.12 33.56 L71.53 31.66 L67.87 28.61 L63.59 26.58 L58.69 25.57 L56 25.44 Z"/>
    <path d="M56 8 L61.47 8.2 L71.5 9.81 L80.31 13.03 L86.12 16.5 L89.61 19.32 L91.24 20.88 L92.79 22.53 L95.58 26.05 L99.02 31.91 L102.21 40.8 L103.8 50.92 L104 56.44 L103.8 61.94 L102.21 72.04 L99.02 80.91 L95.58 86.77 L92.79 90.29 L91.24 91.94 L89.61 93.5 L86.12 96.32 L80.31 99.79 L71.5 103.01 L61.47 104.62 L56 104.82 L50.54 104.62 L40.53 103.01 L31.72 99.79 L25.91 96.32 L22.42 93.5 L20.78 91.94 L19.23 90.29 L16.44 86.77 L12.99 80.91 L9.8 72.04 L8.2 61.94 L8 56.44 L8.2 50.92 L9.8 40.8 L12.99 31.91 L16.44 26.05 L19.23 22.53 L20.78 20.88 L22.42 19.32 L25.91 16.5 L31.72 13.03 L40.53 9.81 L50.54 8.2 L56 8 Z"/>
    <path d="M196.19 97.88 L192.84 99.49 L185.93 102.08 L182.37 103.06 L178.74 103.83 L171.24 104.71 L167.37 104.82 L161.69 104.62 L151.25 102.99 L142.01 99.73 L135.88 96.21 L132.17 93.36 L130.43 91.78 L128.78 90.11 L125.8 86.56 L123.25 82.73 L121.12 78.6 L118.73 71.86 L117.03 61.87 L116.81 56.44 L117.03 50.99 L118.73 40.97 L121.12 34.22 L123.25 30.09 L125.8 26.25 L128.78 22.7 L130.43 21.04 L132.17 19.46 L135.88 16.61 L142.01 13.09 L151.25 9.83 L161.69 8.2 L167.37 8 L171.24 8.11 L178.74 8.99 L182.37 9.76 L185.93 10.74 L192.84 13.33 L196.19 14.94 L196.19 34.24 L192.85 32.11 L186.25 28.77 L182.99 27.56 L179.7 26.63 L172.86 25.57 L169.31 25.44 L166.18 25.57 L160.43 26.6 L155.36 28.67 L150.98 31.76 L149.05 33.7 L147.33 35.86 L144.57 40.76 L142.73 46.45 L141.81 52.91 L141.69 56.44 L141.81 59.95 L142.73 66.4 L144.57 72.08 L147.33 76.98 L149.05 79.14 L150.98 81.07 L155.36 84.16 L160.43 86.22 L166.18 87.25 L169.31 87.38 L172.86 87.25 L179.7 86.19 L182.99 85.26 L186.25 84.04 L192.85 80.69 L196.19 78.56 L196.19 97.88 Z"/>
    <path d="M204.99 9.68 L290.99 9.68 L290.99 27.88 L260.05 27.88 L260.05 103 L235.99 103 L235.99 27.88 L204.99 27.88 L204.99 9.68 Z"/>
    <path d="M303.44 9.68 L368.36 9.68 L368.36 27.88 L327.5 27.88 L327.5 45.24 L365.94 45.24 L365.94 63.44 L327.5 63.44 L327.5 84.82 L369.74 84.82 L369.74 103 L303.44 103 L303.44 9.68 Z"/>
    <path d="M455.8 12.62 L455.8 32.38 L451.98 30.77 L444.48 28.18 L440.8 27.2 L437.2 26.43 L430.3 25.55 L427 25.44 L422.97 25.59 L416.59 26.78 L414.24 27.82 L413.27 28.45 L411.73 29.96 L410.7 31.8 L410.18 33.97 L410.12 35.18 L410.29 36.96 L411.68 39.89 L412.9 41.04 L414.57 42.04 L419.62 43.83 L423 44.62 L433.24 46.68 L436.99 47.52 L443.64 49.49 L449.17 51.87 L453.58 54.66 L455.36 56.2 L456.9 57.87 L459.37 61.73 L461.01 66.26 L461.84 71.46 L461.94 74.32 L461.8 78.05 L460.65 84.78 L458.36 90.52 L454.93 95.27 L452.78 97.28 L450.34 99.05 L444.55 101.87 L437.56 103.76 L429.35 104.7 L424.8 104.82 L420.37 104.71 L411.47 103.86 L407 103.12 L402.53 102.18 L393.59 99.68 L389.12 98.12 L389.12 77.82 L393.55 80.05 L402.19 83.62 L406.4 84.98 L410.53 86.03 L418.58 87.23 L422.5 87.38 L426.21 87.22 L432.24 85.91 L434.56 84.76 L435.54 84.06 L437.11 82.47 L438.15 80.58 L438.67 78.42 L438.74 77.24 L438.56 75.18 L437.14 71.81 L435.9 70.5 L434.13 69.34 L428.46 67.21 L424.56 66.24 L415.24 64.18 L411.86 63.37 L405.8 61.43 L400.68 59.04 L396.5 56.2 L394.76 54.62 L393.25 52.91 L390.82 49.06 L389.21 44.64 L388.4 39.65 L388.3 36.94 L388.44 33.56 L389.57 27.39 L391.82 22.03 L395.19 17.48 L397.3 15.5 L399.67 13.74 L405.16 10.93 L411.63 9.05 L419.08 8.12 L423.18 8 L427.06 8.07 L434.97 8.65 L439 9.16 L443.09 9.81 L451.5 11.54 L455.8 12.62 Z"/>
    <path d="M542.23 12.62 L542.23 32.38 L538.41 30.77 L530.91 28.18 L527.23 27.2 L523.63 26.43 L516.73 25.55 L513.43 25.44 L509.4 25.59 L503.02 26.78 L500.67 27.82 L499.7 28.45 L498.16 29.96 L497.13 31.8 L496.61 33.97 L496.55 35.18 L496.72 36.96 L498.11 39.89 L499.33 41.04 L501 42.04 L506.05 43.83 L509.43 44.62 L519.67 46.68 L523.42 47.52 L530.07 49.49 L535.6 51.87 L540.01 54.66 L541.79 56.2 L543.33 57.87 L545.8 61.73 L547.44 66.26 L548.26 71.46 L548.37 74.32 L548.22 78.05 L547.08 84.78 L544.79 90.52 L541.35 95.27 L539.21 97.28 L536.77 99.05 L530.98 101.87 L523.98 103.76 L515.78 104.7 L511.23 104.82 L506.79 104.71 L497.89 103.86 L493.43 103.12 L488.96 102.18 L480.02 99.68 L475.55 98.12 L475.55 77.82 L479.98 80.05 L488.62 83.62 L492.83 84.98 L496.96 86.03 L505.01 87.23 L508.93 87.38 L512.64 87.22 L518.67 85.91 L520.99 84.76 L521.97 84.06 L523.53 82.47 L524.58 80.58 L525.1 78.42 L525.17 77.24 L524.99 75.18 L523.57 71.81 L522.33 70.5 L520.55 69.34 L514.88 67.21 L510.99 66.24 L501.67 64.18 L498.29 63.37 L492.23 61.43 L487.11 59.04 L482.93 56.2 L481.19 54.62 L479.67 52.91 L477.25 49.06 L475.64 44.64 L474.83 39.65 L474.73 36.94 L474.87 33.56 L475.99 27.39 L478.24 22.03 L481.62 17.48 L483.73 15.5 L486.1 13.74 L491.59 10.93 L498.06 9.05 L505.51 8.12 L509.61 8 L513.48 8.07 L521.39 8.65 L525.43 9.16 L529.52 9.81 L537.92 11.54 L542.23 12.62 Z"/>
    <path d="M569.5 9.68 L634.41 9.68 L634.41 27.88 L593.56 27.88 L593.56 45.24 L632 45.24 L632 63.44 L593.56 63.44 L593.56 84.82 L635.8 84.82 L635.8 103 L569.5 103 L569.5 9.68 Z"/>
    <path d="M691.11 51.06 L694.63 50.89 L698.89 49.97 L701.07 48.92 L701.95 48.26 L702.72 47.5 L703.95 45.64 L705.03 41.99 L705.23 39 L705.03 36.04 L703.95 32.45 L702.72 30.62 L701.95 29.88 L701.07 29.23 L698.89 28.2 L694.63 27.29 L691.11 27.12 L680.99 27.12 L680.99 51.06 L691.11 51.06 Z"/>
    <path d="M680.99 67.68 L680.99 103 L656.93 103 L656.93 9.68 L693.67 9.68 L698.13 9.78 L706.12 10.55 L712.87 12.1 L718.39 14.43 L720.69 15.88 L722.71 17.54 L725.93 21.53 L728.08 26.42 L729.16 32.21 L729.29 35.44 L729.22 37.7 L728.66 41.91 L727.54 45.7 L725.86 49.08 L724.81 50.62 L723.63 52.06 L720.83 54.64 L717.46 56.83 L713.53 58.63 L711.35 59.38 L713.76 60.12 L718.18 62.67 L720.19 64.48 L722.16 66.72 L726.12 72.73 L728.11 76.5 L741.17 103 L715.55 103 L704.17 79.82 L702.45 76.6 L698.96 71.82 L697.19 70.26 L695.28 69.13 L690.58 67.84 L687.79 67.68 L680.99 67.68 Z"/>
    <path d="M812.12 86 L774.5 86 L768.56 103 L744.36 103 L778.92 9.68 L807.62 9.68 L842.18 103 L818 103 L812.12 86 Z"/>
    <path d="M780.5 68.68 L806.06 68.68 L793.3 31.56 L780.5 68.68 Z"/>
  </g>
</svg>
